<?xml version="1.0" standalone="no"?>
<!DOCTYPE svg PUBLIC "-//W3C//DTD SVG 1.1//EN" "http://www.w3.org/Graphics/SVG/1.1/DTD/svg11.dtd" >
<svg xmlns="http://www.w3.org/2000/svg" xmlns:xlink="http://www.w3.org/1999/xlink" version="1.1">
<metadata>
Created by FontForge 20201107 at Tue Aug 23 06:02:26 2022
 By Unknown
Copyright \(c\) 2022 by Jehoo Creative. All rights reserved.
</metadata>
<defs>
<font id="Valverde-CondensedSemibold" horiz-adv-x="437" >
  <font-face 
    font-family="Valverde"
    font-weight="600"
    font-stretch="condensed"
    units-per-em="1000"
    panose-1="0 0 0 0 0 0 0 0 0 0"
    ascent="800"
    descent="-200"
    x-height="500"
    cap-height="730"
    bbox="-162 -270 1535 1005"
    underline-thickness="50"
    underline-position="-125"
    stemh="64"
    stemv="117"
    unicode-range="U+000D-FB06"
  />
<missing-glyph horiz-adv-x="250" 
 />
    <glyph glyph-name="f_f" unicode="ff" horiz-adv-x="592" 
d="M50 558c0 115 68 192 158 192c85 0 118 -68 95 -169l-112 -36v25c19 62 10 104 -21 104c-32 0 -58 -47 -58 -113c0 -39 22 -56 55 -61h176v58c0 115 68 192 158 192c86 0 118 -68 95 -169l-112 -36v25c19 62 10 104 -21 104s-58 -47 -58 -113c0 -39 22 -56 55 -61h119
v-50h-119v-337c0 -34 15 -57 37 -57v-56h-191v56c23 0 37 23 37 57v337h-176v-337c0 -34 15 -57 37 -57v-56h-191v56c22 0 37 23 37 57v337h-37v50h37v58z" />
    <glyph glyph-name="fi" unicode="fi" horiz-adv-x="492" 
d="M330 673c0 53 25 87 61 87c35 0 60 -34 60 -87s-25 -87 -60 -87c-36 0 -61 34 -61 87zM50 558c0 115 68 192 158 192c85 0 118 -68 95 -169l-112 -36v25c19 62 10 104 -21 104c-32 0 -58 -47 -58 -113c0 -39 22 -56 55 -61h280v-387c0 -34 15 -57 37 -57v-56h-191v56
c23 0 37 23 37 57v337h-163v-337c0 -34 15 -57 37 -57v-56h-191v56c22 0 37 23 37 57v337h-37v50h37v58z" />
    <glyph glyph-name="f_f_l" unicode="ffl" horiz-adv-x="791" 
d="M50 558c0 115 68 192 158 192c85 0 118 -68 95 -169l-112 -36v25c19 62 10 104 -21 104c-32 0 -58 -47 -58 -113c0 -39 22 -56 55 -61h176v58c0 115 68 192 158 192c86 0 118 -68 95 -169l-112 -36v25c19 62 10 104 -21 104s-58 -47 -58 -113c0 -39 22 -56 55 -61h119
v-50h-119v-337c0 -34 15 -57 37 -57v-56h-191v56c23 0 37 23 37 57v337h-176v-337c0 -34 15 -57 37 -57v-56h-191v56c22 0 37 23 37 57v337h-37v50h37v58zM629 685c29 2 58 28 78 65h39v-637c0 -34 15 -57 37 -57v-56h-191v56c22 0 37 23 37 57v572z" />
    <glyph glyph-name="f_f_i" unicode="ffi" horiz-adv-x="785" 
d="M623 673c0 53 25 87 61 87c35 0 60 -34 60 -87s-25 -87 -60 -87c-36 0 -61 34 -61 87zM50 558c0 115 68 192 158 192c85 0 118 -68 95 -169l-112 -36v25c19 62 10 104 -21 104c-32 0 -58 -47 -58 -113c0 -39 22 -56 55 -61h176v58c0 115 69 192 158 192
c86 0 118 -68 95 -169l-112 -36v25c19 62 10 104 -21 104s-58 -47 -58 -113c0 -39 22 -56 55 -61h280v-387c0 -34 15 -57 37 -57v-56h-191v56c22 0 37 23 37 57v337h-163v-337c0 -34 15 -57 37 -57v-56h-191v56c23 0 37 23 37 57v337h-176v-337c0 -34 15 -57 37 -57v-56
h-191v56c22 0 37 23 37 57v337h-37v50h37v58z" />
    <glyph glyph-name="fl" unicode="fl" horiz-adv-x="498" 
d="M50 558c0 115 68 192 158 192c85 0 118 -68 95 -169l-112 -36v25c19 62 10 104 -21 104c-32 0 -58 -47 -58 -113c0 -39 22 -56 55 -61h118v-50h-118v-337c0 -34 15 -57 37 -57v-56h-191v56c22 0 37 23 37 57v337h-37v50h37v58zM336 685c29 2 57 28 78 65h39v-637
c0 -34 15 -57 37 -57v-56h-191v56c22 0 37 23 37 57v572z" />
    <glyph glyph-name="f_b.liga" unicode="fb" horiz-adv-x="782" 
d="M50 558c0 115 68 192 158 192c85 0 118 -68 95 -169l-112 -36v25c19 62 10 104 -21 104c-32 0 -58 -47 -58 -113c0 -39 22 -56 55 -61h118v-50h-118v-337c0 -34 15 -57 37 -57v-56h-191v56c22 0 37 23 37 57v337h-37v50h37v58zM336 685c29 2 57 28 78 65h39v-326l-3 -32
l3 -2c27 81 80 130 145 130c98 0 162 -104 162 -259c0 -169 -80 -281 -201 -281c-63 0 -115 32 -140 86l-44 -86h-39v705zM453 245v-97c0 -66 35 -110 84 -110c64 0 106 85 106 216c0 114 -36 190 -90 190c-58 0 -100 -80 -100 -199z" />
    <glyph glyph-name="f_k.liga" unicode="fk" horiz-adv-x="791" 
d="M50 558c0 115 68 192 158 192c85 0 118 -68 95 -169l-112 -36v25c19 62 10 104 -21 104c-32 0 -58 -47 -58 -113c0 -39 22 -56 55 -61h118v-50h-118v-337c0 -34 15 -57 37 -57v-56h-191v56c22 0 37 23 37 57v337h-37v50h37v58zM613 325l105 -214c16 -33 42 -55 64 -55
v-56h-196v56c24 0 18 26 3 57l-62 124l-74 -84v-40c0 -34 15 -57 37 -57v-56h-191v56c22 0 37 23 37 57v572c29 2 57 28 78 65h39v-521l147 170c22 24 19 45 -11 45v56h186v-56c-19 0 -75 -19 -110 -55z" />
    <glyph glyph-name="f_h.liga" unicode="fh" horiz-adv-x="783" 
d="M50 558c0 115 68 192 158 192c85 0 118 -68 95 -169l-112 -36v25c19 62 10 104 -21 104c-32 0 -58 -47 -58 -113c0 -39 22 -56 55 -61h118v-50h-118v-337c0 -34 15 -57 37 -57v-56h-191v56c22 0 37 23 37 57v337h-37v50h37v58zM336 685c29 2 57 28 78 65h39v-325l-3 -32
l3 -2c27 81 79 129 147 129c83 0 138 -74 138 -184v-223c0 -34 15 -57 37 -57v-56h-191v56c22 0 37 23 37 57v224c0 64 -27 107 -71 107c-58 0 -97 -79 -97 -199v-132c0 -34 15 -57 37 -57v-56h-191v56c22 0 37 23 37 57v572z" />
    <glyph glyph-name="f_f_b.liga" unicode="ffb" horiz-adv-x="1075" 
d="M50 558c0 115 68 192 158 192c85 0 118 -68 95 -169l-112 -36v25c19 62 10 104 -21 104c-32 0 -58 -47 -58 -113c0 -39 22 -56 55 -61h176v58c0 115 68 192 158 192c86 0 118 -68 95 -169l-112 -36v25c19 62 10 104 -21 104s-58 -47 -58 -113c0 -39 22 -56 55 -61h119
v-50h-119v-337c0 -34 15 -57 37 -57v-56h-191v56c23 0 37 23 37 57v337h-176v-337c0 -34 15 -57 37 -57v-56h-191v56c22 0 37 23 37 57v337h-37v50h37v58zM629 685c29 2 58 28 78 65h39v-326l-2 -32l2 -2c27 81 80 130 146 130c97 0 162 -104 162 -259
c0 -169 -81 -281 -201 -281c-65 0 -115 32 -140 86l-45 -86h-39v705zM746 245v-97c0 -66 36 -110 84 -110c64 0 106 85 106 216c0 114 -36 190 -89 190c-59 0 -101 -80 -101 -199z" />
    <glyph glyph-name="f_f_k.liga" unicode="ffk" horiz-adv-x="1083" 
d="M50 558c0 115 68 192 158 192c85 0 118 -68 95 -169l-112 -36v25c19 62 10 104 -21 104c-32 0 -58 -47 -58 -113c0 -39 22 -56 55 -61h176v58c0 115 68 192 158 192c86 0 118 -68 95 -169l-112 -36v25c19 62 10 104 -21 104s-58 -47 -58 -113c0 -39 22 -56 55 -61h119
v-50h-119v-337c0 -34 15 -57 37 -57v-56h-191v56c23 0 37 23 37 57v337h-176v-337c0 -34 15 -57 37 -57v-56h-191v56c22 0 37 23 37 57v337h-37v50h37v58zM906 325l105 -214c16 -33 42 -55 64 -55v-56h-196v56c24 0 19 26 3 57l-62 124l-74 -84v-40c0 -34 15 -57 37 -57v-56
h-191v56c22 0 37 23 37 57v572c29 2 58 28 78 65h39v-521l147 170c23 24 19 45 -11 45v56h186v-56c-19 0 -75 -19 -110 -55z" />
    <glyph glyph-name="f_f_h.liga" unicode="ffh" horiz-adv-x="1077" 
d="M50 558c0 115 68 192 158 192c85 0 118 -68 95 -169l-112 -36v25c19 62 10 104 -21 104c-32 0 -58 -47 -58 -113c0 -39 22 -56 55 -61h176v58c0 115 68 192 158 192c86 0 118 -68 95 -169l-112 -36v25c19 62 10 104 -21 104s-58 -47 -58 -113c0 -39 22 -56 55 -61h119
v-50h-119v-337c0 -34 15 -57 37 -57v-56h-191v56c23 0 37 23 37 57v337h-176v-337c0 -34 15 -57 37 -57v-56h-191v56c22 0 37 23 37 57v337h-37v50h37v58zM629 685c29 2 58 28 78 65h39v-326l-2 -31l2 -2c27 81 79 129 147 129c83 0 139 -74 139 -184v-223
c0 -34 15 -57 37 -57v-56h-191v56c22 0 37 23 37 57v224c0 64 -27 107 -71 107c-58 0 -98 -79 -98 -199v-132c0 -34 15 -57 37 -57v-56h-191v56c22 0 37 23 37 57v572z" />
    <glyph glyph-name="f_t.liga" unicode="ft" horiz-adv-x="660" 
d="M50 558c0 115 68 192 158 192c85 0 118 -68 95 -169l-112 -36v25c19 62 10 104 -21 104c-32 0 -58 -47 -58 -113c0 -39 22 -56 55 -61h125c61 0 107 36 123 150h39v-150h138v-51h-138v-216c0 -89 32 -148 78 -148c34 0 64 37 81 93l39 -14c-21 -112 -81 -184 -164 -184
c-89 0 -149 83 -151 207v206c0 34 -15 57 -45 57h-125v-337c0 -34 15 -57 37 -57v-56h-191v56c22 0 37 23 37 57v337h-37v50h37v58z" />
    <glyph glyph-name="f_j.liga" unicode="fj" horiz-adv-x="482" 
d="M330 673c0 53 25 87 61 87c35 0 60 -34 60 -87s-25 -87 -60 -87c-36 0 -61 34 -61 87zM447 -40c0 -138 -70 -230 -172 -230c-71 0 -104 68 -80 169l111 36v-25c-20 -62 -11 -104 20 -104c33 0 59 47 59 113c0 39 -22 56 -55 61v470h-163v-337c0 -34 15 -57 37 -57v-56
h-191v56c22 0 37 23 37 57v337h-37v50h37v58c0 115 68 192 158 192c85 0 118 -68 95 -169l-112 -36v25c19 62 10 104 -21 104c-32 0 -58 -47 -58 -113c0 -39 22 -56 55 -61h280v-540z" />
    <glyph glyph-name="e_e.liga" unicode="ee" horiz-adv-x="881" 
d="M22 250c0 162 80 270 202 270c104 0 177 -74 197 -193h55c22 118 95 193 195 193c116 0 194 -89 201 -229v-19h-283c6 -77 33 -187 129 -187c55 0 98 37 116 93l38 -14c-20 -112 -97 -184 -196 -184c-124 0 -207 108 -207 270c0 8 0 15 1 22h-329c1 -12 2 -25 5 -36
c11 -92 58 -151 125 -151c54 0 98 37 116 93l38 -14c-20 -112 -97 -184 -197 -184c-124 0 -206 108 -206 270zM141 327h173c-9 80 -42 136 -86 136c-46 0 -79 -53 -87 -136zM589 327h173c-9 80 -43 136 -86 136c-46 0 -79 -53 -87 -136z" />
    <glyph glyph-name=".notdef" horiz-adv-x="250" 
 />
    <glyph glyph-name="uni0000" horiz-adv-x="0" 
 />
    <glyph glyph-name="uni000D" unicode="&#xd;" horiz-adv-x="250" 
 />
    <glyph glyph-name="space" unicode=" " horiz-adv-x="250" 
 />
    <glyph glyph-name="n" unicode="n" horiz-adv-x="498" 
d="M14 455c46 0 92 25 115 65h39v-95l-3 -32l3 -2c27 81 79 129 147 129c82 0 138 -74 138 -184v-223c0 -34 15 -57 37 -57v-56h-191v56c22 0 37 23 37 57v224c0 64 -27 107 -71 107c-58 0 -97 -79 -97 -199v-132c0 -34 14 -57 37 -57v-56h-191v56c22 0 37 23 37 57v229
c0 34 -15 57 -37 57v56z" />
    <glyph glyph-name="o" unicode="o" horiz-adv-x="467" 
d="M22 250c0 162 85 270 212 270s211 -108 211 -270s-84 -270 -211 -270s-212 108 -212 270zM141 242c11 -119 54 -204 111 -204s89 85 75 220c-12 120 -55 205 -112 205c-56 0 -89 -85 -74 -221z" />
    <glyph glyph-name="a" unicode="a" horiz-adv-x="505" 
d="M158 314l-109 -31c-27 138 48 237 182 237c120 0 195 -76 195 -191v-219c0 -34 8 -51 21 -51c9 0 22 11 31 27l20 -40c-20 -39 -61 -66 -106 -66c-50 0 -83 34 -83 85v34l-3 3c-24 -76 -79 -122 -150 -122c-80 0 -132 52 -132 135c0 192 285 104 285 230v20
c0 58 -33 98 -84 98c-55 0 -83 -55 -67 -125v-24zM309 279c-44 -61 -168 -42 -168 -145c0 -44 19 -78 61 -78c62 0 107 73 107 157v35l3 29z" />
    <glyph glyph-name="i" unicode="i" horiz-adv-x="212" 
d="M29 667c0 56 29 93 71 93s71 -37 71 -93c0 -57 -29 -93 -71 -93s-71 36 -71 93zM14 455c46 0 92 25 115 65h39v-407c0 -34 14 -57 37 -57v-56h-191v56c22 0 37 23 37 57v229c0 34 -15 57 -37 57v56z" />
    <glyph glyph-name="e" unicode="e" 
d="M386 178l38 -14c-20 -112 -96 -184 -196 -184c-124 0 -206 108 -206 270s80 270 202 270c115 0 194 -89 201 -225v-19l-284 34c-1 -18 -1 -35 0 -53c7 -104 57 -172 129 -172c55 0 98 37 116 93zM145 354l169 -21c-9 74 -42 130 -86 130c-41 0 -71 -42 -83 -109z" />
    <glyph glyph-name="c" unicode="c" horiz-adv-x="435" 
d="M139 284c0 -123 53 -199 131 -199c55 0 98 37 116 93l38 -14c-20 -112 -96 -184 -196 -184c-124 0 -206 108 -206 269c0 163 83 271 214 271c109 0 179 -74 168 -186l-111 -23v24c14 76 -8 128 -58 128c-58 0 -96 -76 -96 -179z" />
    <glyph glyph-name="p" unicode="p" horiz-adv-x="496" 
d="M13 455c47 0 92 25 116 65h38v-96l-3 -32l3 -2c27 81 80 130 146 130c97 0 161 -104 161 -259c0 -169 -80 -281 -201 -281c-44 0 -81 19 -106 50l-3 -2l3 -27v-138c0 -34 15 -57 37 -57v-56h-191v56c22 0 37 23 37 57v479c0 34 -15 57 -37 57v56zM167 245v-97
c0 -66 35 -110 84 -110c64 0 106 85 106 216c0 114 -36 190 -90 190c-57 0 -100 -80 -100 -199z" />
    <glyph glyph-name="b" unicode="b" horiz-adv-x="491" 
d="M7 685c47 0 92 25 115 65h39v-326l-2 -32l2 -2c27 81 80 130 146 130c97 0 162 -104 162 -259c0 -169 -81 -281 -201 -281c-64 0 -115 32 -140 86l-45 -86h-39v592c0 34 -14 57 -37 57v56zM161 245v-97c0 -66 36 -110 84 -110c64 0 107 85 107 216c0 114 -36 190 -90 190
c-58 0 -101 -80 -101 -199z" />
    <glyph glyph-name="d" unicode="d" horiz-adv-x="492" 
d="M293 685c46 0 92 25 115 65h39v-592c0 -34 15 -57 37 -57v-56c-47 0 -92 -25 -115 -65h-39v96l2 32l-2 2c-27 -81 -80 -130 -146 -130c-97 0 -161 104 -161 259c0 169 80 281 201 281c44 0 81 -19 106 -50l2 2l-2 20v80c0 34 -15 57 -37 57v56zM330 255v98
c0 65 -36 110 -84 110c-64 0 -106 -86 -106 -217c0 -114 36 -190 90 -190c58 0 100 80 100 199z" />
    <glyph glyph-name="l" unicode="l" horiz-adv-x="206" 
d="M8 685c46 0 92 25 115 65h39v-637c0 -34 14 -57 37 -57v-56h-191v56c22 0 37 23 37 57v459c0 34 -15 57 -37 57v56z" />
    <glyph glyph-name="h" unicode="h" horiz-adv-x="492" 
d="M8 685c46 0 92 25 115 65h39v-325l-3 -32l3 -2c27 81 79 129 147 129c83 0 138 -74 138 -184v-223c0 -34 15 -57 37 -57v-56h-191v56c22 0 37 23 37 57v224c0 64 -27 107 -71 107c-58 0 -97 -79 -97 -199v-132c0 -34 15 -57 37 -57v-56h-191v56c22 0 37 23 37 57v459
c0 34 -15 57 -37 57v56z" />
    <glyph glyph-name="m" unicode="m" horiz-adv-x="739" 
d="M13 455c47 0 92 25 116 65h38v-90l-3 -33l3 -2c26 78 73 125 135 125c61 0 104 -45 120 -120l1 -18h3c24 86 74 138 140 138c76 0 128 -74 128 -184v-223c0 -34 14 -57 37 -57v-56h-186v56c19 0 32 23 32 57v224c0 64 -24 107 -62 107c-50 0 -84 -79 -84 -199v-132
c0 -34 13 -57 32 -57v-56h-182v56c19 0 32 23 32 57v224c0 64 -23 107 -61 107c-51 0 -85 -79 -85 -199v-132c0 -34 13 -57 33 -57v-56h-187v56c22 0 37 23 37 57v229c0 34 -15 57 -37 57v56z" />
    <glyph glyph-name="u" unicode="u" horiz-adv-x="498" 
d="M490 45c-46 0 -92 -25 -115 -65h-39v95l3 32l-3 3c-27 -82 -79 -130 -147 -130c-83 0 -138 74 -138 184v223c0 34 -15 57 -37 57v56h191v-56c-23 0 -37 -23 -37 -57v-224c0 -64 27 -107 71 -107c58 0 97 79 97 199v132c0 34 -15 57 -37 57v56h191v-56
c-22 0 -37 -23 -37 -57v-229c0 -34 15 -57 37 -57v-56z" />
    <glyph glyph-name="r" unicode="r" horiz-adv-x="413" 
d="M14 455c46 0 92 25 115 65h39v-88l-3 -32l3 -3c25 77 70 123 131 123c80 0 127 -78 95 -214l-121 -23v24c24 82 14 137 -26 137c-48 0 -79 -79 -79 -199v-132c0 -34 14 -57 37 -57v-56h-191v56c22 0 37 23 37 57v229c0 34 -15 57 -37 57v56z" />
    <glyph glyph-name="q" unicode="q" horiz-adv-x="488" 
d="M446 508v-645c0 -34 15 -57 36 -57v-56h-190v56c22 0 36 23 36 57v213l3 32l-3 2c-26 -81 -79 -130 -145 -130c-97 0 -161 104 -161 259c0 169 80 281 201 281c63 0 115 -32 140 -86l43 74h40zM328 255v98c0 65 -35 110 -83 110c-64 0 -106 -86 -106 -217
c0 -114 36 -190 90 -190c57 0 99 80 99 199z" />
    <glyph glyph-name="f" unicode="f" horiz-adv-x="299" 
d="M50 558c0 115 68 192 158 192c85 0 118 -68 95 -169l-112 -36v25c19 62 10 104 -21 104c-32 0 -58 -47 -58 -113c0 -39 22 -56 55 -61h118v-50h-118v-337c0 -34 15 -57 37 -57v-56h-191v56c22 0 37 23 37 57v337h-37v50h37v58z" />
    <glyph glyph-name="k" unicode="k" horiz-adv-x="499" 
d="M321 325l105 -214c17 -33 43 -55 65 -55v-56h-196v56c23 0 19 26 3 57l-62 124l-74 -84v-40c0 -34 15 -57 37 -57v-56h-191v56c22 0 37 23 37 57v459c0 34 -15 57 -37 57v56c46 0 92 25 115 65h39v-521l147 170c22 24 18 45 -11 45v56h186v-56c-19 0 -76 -18 -110 -55z
" />
    <glyph glyph-name="t" unicode="t" horiz-adv-x="378" 
d="M172 233c0 -89 33 -148 78 -148c34 0 64 37 81 93l38 -14c-20 -112 -80 -184 -163 -184c-89 0 -149 83 -151 207v219c0 34 -15 57 -44 57v37c60 0 106 36 122 150h39v-150h138v-51h-138v-216z" />
    <glyph glyph-name="j" unicode="j" horiz-adv-x="269" 
d="M95 667c0 56 29 93 71 93c43 0 72 -37 72 -93c0 -57 -29 -93 -72 -93c-42 0 -71 36 -71 93zM234 -40c0 -138 -69 -230 -172 -230c-71 0 -104 68 -81 169l113 36v-25c-21 -62 -12 -104 20 -104s58 47 58 113c0 39 -22 56 -55 61v362c0 34 -15 57 -37 57v56
c47 0 92 25 115 65h39v-560z" />
    <glyph glyph-name="g" unicode="g" horiz-adv-x="432" 
d="M162 -270c-115 0 -155 58 -135 144l112 36v-25c-21 -62 -14 -104 43 -104s108 36 108 87c0 39 -28 64 -68 76l-78 24c-50 14 -84 19 -84 68c0 46 32 77 67 97c-66 28 -107 95 -107 187c0 120 70 200 176 200c32 0 61 -7 85 -21c-3 123 42 201 109 201
c62 0 83 -65 58 -162l-55 -18v25c12 48 4 79 -24 79c-37 0 -65 -56 -60 -144c40 -35 63 -91 63 -160c0 -120 -71 -200 -176 -200c-13 0 -25 2 -36 4c-9 -8 -15 -19 -15 -32c0 -29 23 -32 54 -41l86 -23c70 -19 118 -56 118 -125c0 -103 -109 -173 -241 -173zM267 326
c-8 87 -40 149 -83 149s-69 -62 -59 -161c8 -87 40 -149 83 -149s68 62 59 161z" />
    <glyph glyph-name="z" unicode="z" horiz-adv-x="453" 
d="M140 500h285v-35l-247 -414h125c34 0 50 44 93 165l36 -21l-54 -225h-22c-3 18 -18 30 -38 30h-298v35l247 414h-112c-35 0 -51 -44 -92 -165l-36 21l54 225h22c2 -18 18 -30 37 -30z" />
    <glyph glyph-name="s" unicode="s" horiz-adv-x="383" 
d="M22 364c0 103 69 156 162 156c68 0 134 -31 172 -79l-23 -112h-39c-4 82 -42 134 -92 134c-42 0 -70 -36 -70 -73c0 -103 227 -64 227 -255c0 -102 -66 -155 -158 -155c-69 0 -137 32 -176 79l23 112h39c5 -82 43 -133 93 -133c42 0 69 34 69 72c0 103 -227 64 -227 254z
" />
    <glyph glyph-name="v" unicode="v" horiz-adv-x="445" 
d="M201 500v-56c-26 0 -36 -20 -26 -51l88 -252l86 249c12 33 2 54 -24 54v56h118v-56c-17 0 -37 -15 -52 -54l-156 -410h-23l-156 410c-14 33 -36 54 -53 54v56h198z" />
    <glyph glyph-name="w" unicode="w" horiz-adv-x="656" 
d="M4 444v56h194v-56c-25 0 -33 -27 -20 -69l65 -219l109 364h28l105 -366l67 221c13 42 6 69 -20 69v56h122v-56c-20 0 -46 -37 -66 -92l-124 -372h-28l-105 345l-109 -345h-28l-124 372c-20 55 -47 92 -66 92z" />
    <glyph glyph-name="y" unicode="y" horiz-adv-x="454" 
d="M152 138l-73 204c-24 61 -53 102 -71 102v56h197v-56c-27 0 -32 -34 -12 -87l74 -216l74 216c21 53 16 87 -11 87v56h122v-56c-19 0 -47 -41 -72 -102l-158 -423c-45 -117 -87 -189 -166 -189c-72 0 -115 65 -92 161l113 34v-25c-24 -54 -16 -94 17 -94c32 0 56 45 66 98
c5 45 -9 76 -32 76v14c33 50 39 108 24 144z" />
    <glyph glyph-name="H" unicode="H" horiz-adv-x="582" 
d="M21 0v56c26 0 43 27 43 67v484c0 40 -17 67 -43 67v56h218v-56c-27 0 -44 -27 -44 -67v-210h193v210c0 40 -17 67 -44 67v56h218v-56c-26 0 -43 -27 -43 -67v-484c0 -40 17 -67 43 -67v-56h-218v56c27 0 44 27 44 67v210h-193v-210c0 -40 17 -67 44 -67v-56h-218z" />
    <glyph glyph-name="O" unicode="O" horiz-adv-x="594" 
d="M31 365c0 231 106 385 266 385s266 -154 266 -385s-106 -385 -266 -385s-266 154 -266 385zM162 357c16 -187 79 -313 160 -313c83 0 129 130 110 330c-17 186 -80 312 -160 312c-82 0 -128 -130 -110 -329z" />
    <glyph glyph-name="I" unicode="I" horiz-adv-x="258" 
d="M21 0v56c26 0 43 27 43 67v484c0 40 -17 67 -43 67v56h218v-56c-27 0 -44 -27 -44 -67v-484c0 -40 17 -67 44 -67v-56h-218z" />
    <glyph glyph-name="E" unicode="E" horiz-adv-x="476" 
d="M21 0v56c26 0 43 27 43 67v484c0 40 -17 67 -43 67v56h318c24 0 45 12 51 30h22l33 -241l-31 -21c-35 121 -71 168 -111 168h-108v-269h82c25 0 41 22 41 56h34v-176h-34c0 34 -16 56 -41 56h-82v-269h113c46 0 93 51 135 172l32 -21l-58 -245h-22c-6 18 -26 30 -51 30
h-323z" />
    <glyph glyph-name="F" unicode="F" horiz-adv-x="450" 
d="M20 730h318c25 0 45 12 51 30h22l34 -241l-32 -21c-34 121 -70 168 -110 168h-108v-269h82c24 0 40 22 40 56h35v-176h-35c0 34 -16 56 -40 56h-82v-210c0 -40 17 -67 43 -67v-56h-218v56c26 0 44 27 44 67v484c0 40 -18 67 -44 67v56z" />
    <glyph glyph-name="L" unicode="L" horiz-adv-x="455" 
d="M21 0v56c26 0 43 27 43 67v484c0 40 -17 67 -43 67v56h218v-56c-27 0 -44 -27 -44 -67v-543h113c41 0 79 51 114 172l31 -21l-36 -245h-22c-6 18 -26 30 -51 30h-323z" />
    <glyph glyph-name="T" unicode="T" horiz-adv-x="610" 
d="M476 730c25 0 45 12 51 30h22l56 -271l-32 -21c-43 151 -87 198 -132 198h-71v-543c0 -40 17 -67 44 -67v-56h-218v56c26 0 43 27 43 67v543h-70c-46 0 -90 -47 -133 -198l-31 21l55 271h22c6 -18 26 -30 51 -30h343z" />
    <glyph glyph-name="P" unicode="P" horiz-adv-x="516" 
d="M20 0v56c26 0 44 27 44 67v484c0 40 -18 67 -44 67v56h247c149 0 237 -84 237 -201c0 -116 -88 -187 -220 -243l-89 -37v-126c0 -40 17 -67 43 -67v-56h-218zM195 314l62 30c70 34 116 106 116 185c0 80 -43 137 -111 137h-67v-352z" />
    <glyph glyph-name="B" unicode="B" horiz-adv-x="562" 
d="M64 607c0 40 -18 67 -44 67v56h247c149 0 237 -69 237 -165c0 -64 -41 -113 -108 -154c79 -26 136 -101 136 -197c0 -128 -95 -214 -237 -214h-275v56c26 0 44 27 44 67v484zM195 384l62 30c44 22 116 73 116 149c0 60 -43 103 -111 103h-67v-282zM195 319v-255h76
c78 0 130 58 130 148c0 82 -40 151 -103 151z" />
    <glyph glyph-name="D" unicode="D" horiz-adv-x="590" 
d="M21 0v56c26 0 43 27 43 67v484c0 40 -17 67 -43 67v56h255c172 0 283 -146 283 -365s-110 -365 -281 -365h-257zM195 64h75c92 0 159 118 159 297c0 183 -64 305 -153 305h-81v-602z" />
    <glyph glyph-name="N" unicode="N" horiz-adv-x="535" 
d="M21 0v56c26 0 43 27 43 67v484c0 40 -17 67 -43 67v56h108l298 -489v366c0 40 -17 67 -44 67v56h132v-56c-26 0 -43 -27 -43 -67v-627h-26l-337 542v-399c0 -40 18 -67 44 -67v-56h-132z" />
    <glyph glyph-name="R" unicode="R" horiz-adv-x="577" 
d="M21 0v56c26 0 43 27 43 67v484c0 40 -17 67 -43 67v56h246c141 0 235 -71 235 -175c0 -83 -62 -131 -157 -173c44 -30 79 -84 107 -156c35 -92 54 -170 113 -170v-56c-165 0 -189 51 -248 214c-24 65 -48 109 -75 125l-47 -20v-196c0 -40 17 -67 44 -67v-56h-218z
M195 384l62 30c69 34 115 79 115 143s-44 109 -110 109h-67v-282z" />
    <glyph glyph-name="S" unicode="S" horiz-adv-x="491" 
d="M31 537c0 138 89 213 214 213c94 0 178 -46 212 -105l-36 -161h-39c-4 121 -50 202 -123 202c-63 0 -105 -44 -105 -110c0 -156 306 -134 306 -385c0 -135 -84 -211 -206 -211c-89 0 -177 47 -220 105l36 161h39c6 -121 54 -202 125 -202c62 0 102 44 102 110
c0 157 -305 134 -305 383z" />
    <glyph glyph-name="Q" unicode="Q" horiz-adv-x="593" 
d="M30 365c0 231 107 385 267 385c159 0 266 -154 266 -385c0 -148 -43 -264 -117 -328c34 -24 74 -37 117 -37v-114c-74 0 -137 39 -184 109c-25 -10 -53 -15 -82 -15c-160 0 -267 154 -267 385zM284 390h26c0 -129 31 -234 84 -302c35 54 50 155 38 286
c-17 186 -80 312 -161 312c-82 0 -127 -130 -110 -329c17 -187 80 -313 161 -313c10 0 18 1 27 5c-41 86 -65 203 -65 341z" />
    <glyph glyph-name="Z" unicode="Z" horiz-adv-x="529" 
d="M158 730h344v-35l-317 -631h143c50 0 102 77 149 232l32 -21l-72 -305h-22c-2 18 -17 30 -37 30h-358v35l316 631h-133c-48 0 -99 -72 -144 -219l-32 20l71 293h22c3 -18 19 -30 38 -30z" />
    <glyph glyph-name="G" unicode="G" horiz-adv-x="584" 
d="M392 462v24c28 108 -4 200 -82 200c-89 0 -149 -121 -149 -311c0 -199 66 -331 171 -331c26 0 51 14 70 38v125c0 39 -19 60 -73 60c-13 0 -29 -1 -47 -4v37l294 81v-37c-26 -12 -43 -41 -43 -71v-125c-47 -114 -152 -168 -240 -168c-158 0 -262 153 -262 382
c0 233 107 388 275 388c145 0 229 -113 223 -252z" />
    <glyph glyph-name="C" unicode="C" horiz-adv-x="569" 
d="M161 410c0 -184 74 -306 184 -306c70 0 130 42 155 104l38 -14c-27 -117 -126 -214 -250 -214c-155 0 -257 153 -257 382c0 233 107 388 276 388c146 0 235 -113 224 -283l-137 -36v24c29 139 -4 231 -82 231c-90 0 -151 -111 -151 -276z" />
    <glyph glyph-name="U" unicode="U" horiz-adv-x="544" 
d="M21 730h218v-56c-27 0 -44 -27 -44 -66v-369c0 -117 48 -195 118 -195c74 0 123 85 123 214v350c0 39 -18 66 -44 66v56h132v-56c-26 0 -44 -27 -44 -67v-353c0 -165 -79 -274 -207 -274c-122 0 -209 102 -209 256v371c0 40 -17 67 -43 67v56z" />
    <glyph glyph-name="K" unicode="K" horiz-adv-x="614" 
d="M376 93l-102 230l-79 -127v-73c0 -40 28 -67 55 -67v-56h-229v56c26 0 44 27 44 67v484c0 40 -18 67 -44 67v56h218v-56c-26 0 -44 -27 -44 -67v-290l151 244c42 66 42 113 5 113v56h210v-56c-32 0 -107 -72 -146 -131l-52 -88l113 -263c34 -82 84 -136 127 -136v-56h-85
c-63 0 -120 37 -142 93z" />
    <glyph glyph-name="V" unicode="V" horiz-adv-x="630" 
d="M11 730h267v-56c-38 0 -44 -46 -15 -133l101 -329l105 341c26 78 18 121 -19 121v56h170v-56c-48 0 -77 -43 -107 -130l-185 -564h-25l-186 567c-28 80 -60 127 -106 127v56z" />
    <glyph glyph-name="A" unicode="A" horiz-adv-x="634" 
d="M355 0v56c37 0 45 43 29 95l-17 60h-195l-18 -60c-17 -51 -8 -95 29 -95v-56h-170v56c47 0 77 43 107 131l185 563h26l185 -567c27 -80 59 -127 106 -127v-56h-267zM269 518l-75 -244h150z" />
    <glyph glyph-name="W" unicode="W" horiz-adv-x="891" 
d="M11 674v56h250v-56c-32 0 -46 -40 -31 -91l100 -360l150 527h28l150 -529l100 362c14 51 2 91 -30 91v56h152v-56c-27 0 -54 -26 -70 -78l-188 -616h-26l-150 528l-151 -528h-26l-185 609c-17 56 -44 85 -73 85z" />
    <glyph glyph-name="M" unicode="M" horiz-adv-x="660" 
d="M20 0v56c26 0 44 27 44 67v484c0 40 -18 67 -44 67v56h138l178 -517l166 517h138v-56c-27 0 -44 -27 -44 -67v-484c0 -40 17 -67 44 -67v-56h-218v56c26 0 44 27 44 67v358l-161 -501h-26l-170 501v-358c0 -40 17 -67 44 -67v-56h-133z" />
    <glyph glyph-name="Y" unicode="Y" horiz-adv-x="568" 
d="M260 730v-56c-32 0 -46 -40 -35 -72l109 -266l112 271c11 28 -8 67 -38 67v56h150v-56c-24 0 -47 -26 -65 -68l-143 -345v-138c0 -40 18 -67 44 -67v-56h-218v56c26 0 44 27 44 67v141l-140 335c-20 46 -41 75 -68 75v56h248z" />
    <glyph glyph-name="X" unicode="X" horiz-adv-x="573" 
d="M280 730v-56c-27 0 -32 -41 -18 -72l75 -166l74 163c14 32 12 75 -17 75v56h156v-56c-25 0 -64 -26 -85 -70l-102 -223l115 -249c21 -46 57 -76 83 -76v-56h-260v56c31 0 36 40 21 72l-81 181l-81 -178c-15 -31 -12 -75 20 -75v-56h-167v56c33 0 72 26 93 71l108 238
l-108 234c-21 45 -56 75 -82 75v56h256z" />
    <glyph glyph-name="J" unicode="J" horiz-adv-x="427" 
d="M363 210c0 -138 -75 -230 -193 -230c-112 0 -190 98 -157 244l125 36v-25c-37 -107 -17 -179 29 -179c41 0 65 57 65 138v413c0 40 -17 67 -44 67v56h218v-56c-26 0 -43 -27 -43 -67v-397z" />
    <glyph glyph-name="x" unicode="x" horiz-adv-x="394" 
d="M201 500v-56c-17 0 -19 -24 -1 -60l34 -70l36 71c19 35 20 59 3 59v56h112v-56c-18 0 -47 -33 -73 -83l-51 -101l57 -118c25 -51 54 -86 74 -86v-56h-191v56c19 0 17 27 -2 68l-35 72l-35 -73c-21 -40 -24 -67 -8 -67v-56h-117v56c22 0 53 34 79 85l54 110l-54 110
c-24 50 -54 83 -73 83v56h191z" />
    <glyph glyph-name="zero" unicode="0" horiz-adv-x="523" 
d="M30 365c0 231 93 385 232 385c138 0 231 -154 231 -385s-93 -385 -231 -385c-139 0 -232 154 -232 385zM161 365c0 -193 40 -321 101 -321c60 0 101 128 101 321s-41 321 -101 321c-61 0 -101 -128 -101 -321z" />
    <glyph glyph-name="one" unicode="1" horiz-adv-x="258" 
d="M20 0v56c26 0 44 27 44 67v456h-44v56c56 0 111 46 136 115h39v-627c0 -40 17 -67 43 -67v-56h-218z" />
    <glyph glyph-name="two" unicode="2" horiz-adv-x="473" 
d="M32 413c-40 202 46 337 216 337c119 0 199 -91 199 -210c0 -167 -158 -310 -291 -429h117c58 0 111 47 149 160l32 -21l-72 -280h-22c-2 18 -17 30 -37 30h-303v35c135 159 297 280 297 496c0 103 -37 168 -88 168c-61 0 -84 -89 -58 -224v-26z" />
    <glyph glyph-name="three" unicode="3" horiz-adv-x="487" 
d="M257 -20c-169 0 -256 127 -216 317l140 -35v-24c-27 -124 -4 -207 60 -207c50 0 85 50 85 128c0 86 -41 163 -111 190v37c58 23 97 100 97 191c0 74 -29 122 -73 122c-60 0 -84 -83 -57 -207v-24l-127 -35c-40 190 36 317 202 317c111 0 185 -75 185 -176
c0 -83 -50 -159 -128 -205c87 -46 142 -125 142 -210c0 -102 -80 -179 -199 -179z" />
    <glyph glyph-name="five" unicode="5" horiz-adv-x="487" 
d="M257 -20c-169 0 -256 127 -216 317l140 -35v-24c-27 -124 -4 -207 60 -207c51 0 85 64 85 169c0 129 -49 192 -128 192c-24 0 -50 -6 -79 -17l-25 9l25 346h303l-9 -111h-257l-12 -167c44 16 84 23 120 23c119 0 192 -84 192 -236c0 -158 -80 -259 -199 -259z" />
    <glyph glyph-name="seven" unicode="7" horiz-adv-x="443" 
d="M241 0h-131c0 172 126 467 224 619h-149c-58 0 -111 -46 -149 -160l-32 21l72 280h22c2 -18 17 -30 37 -30h303v-42c-90 -156 -197 -471 -197 -688z" />
    <glyph glyph-name="six" unicode="6" horiz-adv-x="488" 
d="M244 -20c-129 0 -214 98 -214 287c0 239 135 448 337 493l14 -53c-102 -34 -188 -147 -218 -300c24 38 72 63 116 63c93 0 179 -98 179 -245s-86 -245 -214 -245zM152 225c0 -109 37 -181 93 -181c55 0 92 72 92 181s-38 181 -92 181c-56 0 -93 -72 -93 -181z" />
    <glyph glyph-name="nine" unicode="9" horiz-adv-x="488" 
d="M245 750c128 0 213 -98 213 -287c0 -239 -135 -447 -337 -493l-14 54c102 33 188 146 219 299c-25 -38 -72 -63 -117 -63c-93 0 -179 98 -179 245s86 245 215 245zM337 505c0 109 -38 181 -92 181c-56 0 -93 -72 -93 -181s37 -181 93 -181c55 0 92 72 92 181z" />
    <glyph glyph-name="eight" unicode="8" horiz-adv-x="456" 
d="M51 540c0 135 85 210 189 210c100 0 165 -70 165 -172c0 -77 -34 -138 -86 -173c56 -47 107 -107 107 -215c0 -134 -94 -210 -212 -210c-114 0 -184 70 -184 170c0 81 43 148 109 192c-48 45 -88 102 -88 198zM280 436c23 35 37 81 37 135c0 67 -25 115 -70 115
c-41 0 -72 -41 -72 -99c0 -69 50 -108 105 -151zM173 313c-34 -39 -55 -90 -55 -149c0 -71 33 -120 90 -120c54 0 94 41 94 104c0 77 -65 115 -129 165z" />
    <glyph glyph-name="four" unicode="4" horiz-adv-x="486" 
d="M208 0v56c26 0 44 27 44 67v59h-239v37l313 531h56v-472h100v-96h-100v-59c0 -40 17 -67 44 -67v-56h-218zM109 278h143v255z" />
    <glyph glyph-name="e.ss01" 
d="M148 226c13 -86 59 -141 122 -141c55 0 98 37 116 93l38 -14c-20 -112 -96 -184 -196 -184c-124 0 -206 108 -206 270s80 270 202 270c115 0 186 -89 201 -193v-13l-284 -34c0 -19 3 -37 7 -54zM141 324l173 20c-9 63 -42 119 -86 119c-46 0 -79 -54 -87 -139z" />
    <glyph glyph-name="e.ss02" 
d="M141 272c6 -77 33 -187 129 -187c55 0 98 37 116 93l38 -14c-20 -112 -96 -184 -196 -184c-124 0 -206 108 -206 270s80 270 202 270c115 0 194 -89 201 -229v-19h-284zM141 327h173c-9 80 -42 136 -86 136c-46 0 -79 -53 -87 -136z" />
    <glyph glyph-name="period" unicode="." horiz-adv-x="180" 
d="M31 65c0 51 24 85 59 85s60 -34 60 -85s-25 -85 -60 -85s-59 34 -59 85z" />
    <glyph glyph-name="comma" unicode="," horiz-adv-x="180" 
d="M59 10c-17 12 -29 34 -29 64c0 45 24 76 60 76c35 0 59 -28 59 -94c1 -81 -36 -157 -95 -176l-9 29c15 12 26 27 33 42c12 22 4 44 -19 59z" />
    <glyph glyph-name="colon" unicode=":" horiz-adv-x="179" 
d="M30 435c0 51 25 85 60 85s59 -34 59 -85s-24 -85 -59 -85s-60 34 -60 85zM30 65c0 51 25 85 60 85s59 -34 59 -85s-24 -85 -59 -85s-60 34 -60 85z" />
    <glyph glyph-name="ampersand" unicode="&#x26;" horiz-adv-x="657" 
d="M363 646c-16 36 -40 53 -64 53c-35 0 -61 -35 -61 -83c0 -37 13 -90 53 -146l140 -196c5 9 10 19 14 28c41 69 41 104 -13 104h-30v56h226v-56h-27c-41 0 -77 -48 -113 -115c-8 -21 -17 -41 -27 -60l88 -122c23 -32 60 -53 91 -53h9v-56h-119c-31 0 -67 20 -90 52l-48 66
c-67 -87 -145 -138 -219 -138c-87 0 -157 72 -157 170c0 106 74 196 168 258c-35 58 -47 115 -47 165c0 105 81 177 185 177c82 0 139 -59 156 -138c14 -49 -12 -78 -39 -78c-48 0 -52 72 -76 112zM356 169l-154 213c-1 1 -2 2 -2 3c-46 -49 -75 -113 -75 -177
c0 -68 32 -117 89 -117c45 0 96 30 142 78z" />
    <glyph glyph-name="question" unicode="?" horiz-adv-x="466" 
d="M31 413c-40 202 46 337 215 337c120 0 200 -87 200 -216c0 -235 -206 -170 -206 -325h-43c0 196 119 143 119 324c0 103 -38 166 -88 166c-62 0 -85 -89 -58 -224v-27zM168 53c0 43 20 72 50 72s51 -29 51 -72c0 -44 -21 -73 -51 -73s-50 29 -50 73z" />
    <glyph glyph-name="exclam" unicode="!" horiz-adv-x="177" 
d="M110 209h-43c-13 119 -18 255 -41 465v56h125v-56c-23 -210 -28 -346 -41 -465zM38 53c0 43 21 72 50 72c30 0 51 -29 51 -72c0 -44 -21 -73 -51 -73c-29 0 -50 29 -50 73z" />
    <glyph glyph-name="dollar" unicode="$" horiz-adv-x="490" 
d="M259 820v-70c109 -5 183 -68 190 -162c1 -30 -12 -51 -30 -51c-17 0 -38 16 -49 43c-20 65 -60 104 -111 106v-238c88 -53 201 -105 201 -257c0 -133 -82 -209 -201 -211v-115h-27v116c-76 6 -186 43 -193 160c-1 35 13 59 33 59c18 0 38 -19 49 -47
c19 -63 58 -105 111 -109v238c-89 53 -202 104 -202 255c0 133 84 207 202 213v70h27zM232 465v219c-46 -10 -78 -50 -78 -102c0 -54 33 -87 78 -117zM259 265v-219c45 9 77 49 77 103c0 53 -33 86 -77 116z" />
    <glyph glyph-name="at" unicode="@" horiz-adv-x="683" 
d="M548 515v-267c0 -53 7 -86 22 -86c31 0 52 93 52 202c0 202 -98 329 -242 329c-152 0 -250 -145 -250 -368c0 -228 98 -366 241 -366c74 0 134 32 188 109l35 -38c-52 -102 -147 -170 -264 -170c-180 0 -308 165 -308 434c0 265 129 456 327 456c183 0 313 -148 313 -402
c0 -141 -55 -256 -136 -256c-46 0 -72 41 -72 76v10l2 17l-2 2c-21 -65 -63 -104 -116 -104c-78 0 -130 83 -130 207c0 135 65 225 161 225c51 0 92 -26 112 -69l36 59h31zM454 313v78c0 52 -28 88 -66 88c-52 0 -86 -69 -86 -173c0 -92 29 -152 72 -152c46 0 80 64 80 159z
" />
    <glyph glyph-name="section" unicode="&#xa7;" horiz-adv-x="525" 
d="M280 750c117 0 196 -64 204 -162c1 -30 -12 -51 -30 -51c-17 0 -38 16 -49 43c-21 67 -63 106 -117 106c-57 0 -99 -44 -99 -100c0 -147 306 -63 306 -303c0 -69 -25 -124 -68 -158c20 -23 33 -56 33 -102c0 -128 -84 -203 -207 -203c-74 0 -206 32 -214 161
c-1 35 13 59 33 59c18 0 38 -19 49 -47c20 -66 62 -109 118 -109c55 0 97 44 97 100c0 146 -306 64 -306 300c0 69 26 125 70 159c-22 23 -35 55 -35 101c0 131 90 206 215 206zM162 405c-26 -19 -43 -51 -43 -91c0 -121 155 -114 244 -150c26 19 43 52 43 92
c0 122 -153 112 -244 149z" />
    <glyph glyph-name="Euro" unicode="&#x20ac;" horiz-adv-x="604" 
d="M455 540c2 86 -36 146 -99 146c-83 0 -142 -95 -150 -241h191v-57h-191c1 -31 4 -59 9 -85h182v-58h-167c30 -88 87 -141 160 -141c70 0 129 42 155 104l38 -14c-27 -117 -126 -214 -250 -214c-128 0 -221 105 -249 265h-62v58h55c-2 15 -2 31 -2 47c0 13 0 25 1 38h-54
v57h59c24 189 124 305 271 305c112 0 190 -72 213 -180c16 -54 -10 -121 -58 -121c-33 0 -54 31 -52 91z" />
    <glyph glyph-name="cent" unicode="&#xa2;" horiz-adv-x="463" 
d="M310 498c0 60 -26 80 -65 80v-371c14 -4 28 -7 42 -6c51 4 90 36 108 92l38 -14c-19 -108 -92 -180 -188 -184v-95h-27v96c-113 11 -188 115 -188 268c0 151 72 256 188 270v96h27v-95c71 -1 132 -34 150 -106c21 -33 1 -89 -44 -89c-23 0 -41 22 -41 58zM218 226v340
c-42 -19 -70 -81 -70 -167c0 -85 27 -149 70 -173z" />
    <glyph glyph-name="sterling" unicode="&#xa3;" horiz-adv-x="522" 
d="M291 750c117 0 196 -64 204 -162c1 -30 -12 -51 -31 -51c-17 0 -37 16 -48 43c-21 67 -63 106 -117 106c-57 0 -99 -44 -99 -123c0 -65 29 -114 54 -168h157v-57h-134c8 -26 13 -54 13 -85c0 -59 -33 -120 -74 -170l47 18l99 10c58 9 89 47 127 160l32 -21l-71 -280h-22
c-3 18 -18 32 -38 30l-316 -20h-5v64c58 0 97 53 97 131c0 60 -27 106 -51 163h-95v57h74c-11 33 -18 71 -18 117c0 163 90 238 215 238z" />
    <glyph glyph-name="copyright" unicode="&#xa9;" horiz-adv-x="609" 
d="M30 365c0 231 110 385 275 385c164 0 274 -154 274 -385s-110 -385 -274 -385c-165 0 -275 154 -275 385zM62 365c0 -204 97 -340 243 -340c145 0 242 136 242 340s-97 340 -242 340c-146 0 -243 -136 -243 -340zM216 401c0 -129 52 -214 129 -214c49 0 92 29 108 73
l28 -10c-20 -82 -89 -150 -175 -150c-109 0 -181 107 -181 267c0 163 75 272 193 272c103 0 165 -79 158 -198l-96 -25v17c20 97 -3 161 -58 161c-63 0 -106 -77 -106 -193z" />
    <glyph glyph-name="trademark" unicode="&#x2122;" horiz-adv-x="510" 
d="M193 730c10 0 18 5 20 12h9l23 -109l-13 -8c-17 61 -35 80 -53 80h-28v-218c0 -16 7 -27 17 -27v-22h-87v22c10 0 18 11 18 27v218h-29c-18 0 -36 -19 -52 -80l-14 8l23 109h8c3 -7 11 -12 21 -12h137zM242 438v22c11 0 18 11 18 27v194c0 16 -7 27 -18 27v22h56l71 -207
l66 207h55v-22c-11 0 -17 -11 -17 -27v-194c0 -16 6 -27 17 -27v-22h-87v22c11 0 17 11 17 27v143l-64 -200h-10l-68 200v-143c0 -16 7 -27 17 -27v-22h-53z" />
    <glyph glyph-name="registered" unicode="&#xae;" horiz-adv-x="299" 
d="M30 589c0 97 48 161 120 161s119 -64 119 -161s-47 -161 -119 -161s-120 64 -120 161zM83 699h60c42 0 71 -21 71 -52c0 -26 -19 -40 -47 -52c13 -10 23 -26 32 -47c10 -27 16 -49 32 -51c14 23 23 55 23 92c0 83 -42 139 -104 139c-26 0 -50 -11 -67 -29zM46 589
c0 -38 8 -69 23 -92c9 1 14 9 14 20v145c0 10 -5 19 -14 20c-15 -23 -23 -55 -23 -93zM121 595l20 9c20 9 34 23 34 42s-13 33 -33 33h-21v-84zM135 480h-53c18 -19 41 -30 68 -30c28 0 51 11 68 30c-37 4 -44 20 -60 64c-7 19 -14 33 -22 38l-15 -7v-58c0 -12 6 -20 14 -20
v-17z" />
    <glyph glyph-name="questiondown" unicode="&#xbf;" horiz-adv-x="466" 
d="M298 428c0 -44 -20 -73 -50 -73s-51 29 -51 73c0 43 21 72 51 72s50 -29 50 -72zM436 67c39 -202 -47 -337 -216 -337c-120 0 -200 87 -200 216c0 235 206 171 206 325h43c0 -196 -118 -143 -118 -324c0 -103 37 -166 87 -166c62 0 85 89 58 224v27z" />
    <glyph glyph-name="exclamdown" unicode="&#xa1;" horiz-adv-x="177" 
d="M139 428c0 -44 -21 -73 -51 -73c-29 0 -50 29 -50 73c0 43 21 72 50 72c30 0 51 -29 51 -72zM67 271h44c13 -119 17 -255 40 -465v-56h-124v56c23 210 27 346 40 465z" />
    <glyph glyph-name="parenleft" unicode="(" horiz-adv-x="288" 
d="M253 765l27 -21c-82 -104 -137 -288 -137 -459c0 -172 55 -355 137 -459l-27 -21c-142 118 -223 310 -223 480s81 362 223 480z" />
    <glyph glyph-name="braceleft" unicode="{" horiz-adv-x="247" 
d="M178 780h60v-57h-60c-41 0 -68 -34 -68 -81c0 -75 89 -118 89 -216c0 -60 -33 -109 -115 -138v-6c82 -29 115 -78 115 -137c0 -98 -89 -142 -89 -217c0 -47 27 -81 68 -81h60v-57h-60c-89 0 -171 51 -171 155c0 110 90 153 90 233c0 44 -27 78 -83 78v58
c56 0 83 34 83 78c0 80 -90 123 -90 233c0 104 82 155 171 155z" />
    <glyph glyph-name="bracketleft" unicode="[" horiz-adv-x="257" 
d="M20 780h228v-57h-118v-876h118v-57h-228v990z" />
    <glyph glyph-name="slash" unicode="/" horiz-adv-x="410" 
d="M403 760l-349 -955h-45l345 955h49z" />
    <glyph glyph-name="backslash" unicode="\" horiz-adv-x="410" 
d="M9 760h47l347 -955h-47z" />
    <glyph glyph-name="parenright" unicode=")" horiz-adv-x="288" 
d="M9 744l27 21c141 -118 222 -310 222 -480s-81 -362 -222 -480l-27 21c82 104 137 287 137 459c0 171 -55 355 -137 459z" />
    <glyph glyph-name="braceright" unicode="}" horiz-adv-x="248" 
d="M69 780c89 0 171 -51 171 -155c0 -110 -90 -153 -90 -233c0 -44 27 -78 83 -78v-58c-56 0 -83 -34 -83 -78c0 -80 90 -123 90 -233c0 -104 -82 -155 -171 -155h-60v57h60c41 0 68 34 68 81c0 75 -89 119 -89 217c0 59 33 108 115 137v6c-82 29 -115 78 -115 138
c0 98 89 141 89 216c0 47 -27 81 -68 81h-60v57h60z" />
    <glyph glyph-name="bracketright" unicode="]" horiz-adv-x="256" 
d="M236 780v-990h-227v57h118v876h-118v57h227z" />
    <glyph glyph-name="semicolon" unicode=";" horiz-adv-x="180" 
d="M29 435c0 51 27 85 66 85s66 -34 66 -85s-27 -85 -66 -85s-66 34 -66 85zM83 4c-32 4 -54 30 -54 70c0 45 26 76 66 76c39 0 66 -28 66 -88c0 -87 -40 -163 -105 -182l-10 29c23 15 41 39 51 63c5 17 -1 28 -14 32z" />
    <glyph glyph-name="quotesinglbase" unicode="&#x201a;" horiz-adv-x="180" 
d="M59 10c-17 12 -29 34 -29 64c0 45 24 76 60 76c35 0 59 -28 59 -94c1 -81 -36 -157 -95 -176l-9 29c15 12 26 27 33 42c13 23 7 42 -19 59z" />
    <glyph glyph-name="quotedblbase" unicode="&#x201e;" horiz-adv-x="328" 
d="M208 10c-18 12 -29 34 -29 64c0 45 24 76 60 76c35 0 59 -28 59 -94c0 -81 -36 -157 -95 -176l-9 29c15 12 26 27 33 42c13 23 6 42 -19 59zM59 10c-17 12 -29 34 -29 64c0 45 24 76 60 76c35 0 59 -28 59 -94c1 -81 -36 -157 -95 -176l-9 29c15 12 26 27 33 42
c13 23 7 42 -19 59z" />
    <glyph glyph-name="ellipsis" unicode="&#x2026;" horiz-adv-x="541" 
d="M31 65c0 51 24 85 59 85s60 -34 60 -85s-25 -85 -60 -85s-59 34 -59 85zM212 65c0 51 24 85 59 85s60 -34 60 -85s-25 -85 -60 -85s-59 34 -59 85zM392 65c0 51 24 85 59 85s60 -34 60 -85s-25 -85 -60 -85s-59 34 -59 85z" />
    <glyph glyph-name="ordfeminine" unicode="&#xaa;" horiz-adv-x="314" 
d="M102 627l-65 -20c-15 84 30 143 110 143c71 0 117 -46 117 -115v-129c0 -23 4 -34 12 -34c6 0 14 7 19 17l12 -23c-12 -24 -37 -40 -64 -40c-31 0 -50 21 -50 46v26l-1 1c-15 -46 -48 -73 -90 -73c-48 0 -79 31 -79 81c0 115 170 63 170 138v12c0 35 -20 59 -49 59
c-34 0 -51 -34 -42 -75v-14zM193 605c-26 -36 -100 -25 -100 -87c0 -26 11 -46 36 -46c38 0 64 43 64 94v21l2 17z" />
    <glyph glyph-name="percent" unicode="%" horiz-adv-x="830" 
d="M22 525c0 135 70 225 176 225c105 0 175 -90 175 -225s-70 -225 -175 -225c-106 0 -176 90 -176 225zM617 730l-348 -730h-46l346 730h48zM108 525c0 -97 36 -161 90 -161c53 0 89 64 89 161s-36 161 -89 161c-54 0 -90 -64 -90 -161zM457 205c0 135 70 225 176 225
c105 0 176 -90 176 -225s-71 -225 -176 -225c-106 0 -176 90 -176 225zM544 205c0 -97 35 -161 89 -161s89 64 89 161s-35 161 -89 161s-89 -64 -89 -161z" />
    <glyph glyph-name="yen" unicode="&#xa5;" horiz-adv-x="568" 
d="M260 730v-56c-32 0 -46 -40 -36 -72l109 -266l112 271c12 28 -7 67 -37 67v56h150v-56c-25 0 -48 -26 -66 -68l-95 -233h75v-57h-99l-18 -82h117v-57h-123v-54c0 -40 18 -67 44 -67v-56h-218v56c27 0 44 27 44 67v54h-122v57h117l-18 82h-99v57h76l-93 226
c-20 46 -42 75 -69 75v56h249z" />
    <glyph glyph-name="perthousand" unicode="&#x2030;" horiz-adv-x="1249" 
d="M30 525c0 135 71 225 176 225s176 -90 176 -225s-71 -225 -176 -225s-176 90 -176 225zM626 730l-349 -730h-46l347 730h48zM117 525c0 -97 35 -161 89 -161s89 64 89 161s-35 161 -89 161c-53 0 -89 -64 -89 -161zM466 205c0 135 70 225 176 225c105 0 176 -90 176 -225
s-71 -225 -176 -225c-106 0 -176 90 -176 225zM867 205c0 135 70 225 176 225c105 0 176 -90 176 -225s-71 -225 -176 -225c-106 0 -176 90 -176 225zM552 205c0 -97 36 -161 90 -161c53 0 89 64 89 161s-36 161 -89 161c-54 0 -90 -64 -90 -161zM953 205
c0 -97 36 -161 90 -161c53 0 89 64 89 161s-36 161 -89 161c-54 0 -90 -64 -90 -161z" />
    <glyph glyph-name="paragraph" unicode="&#xb6;" horiz-adv-x="378" 
d="M267 -170h-43v419h-13c-109 0 -181 102 -181 248s82 233 203 233h125v-900h-43v843h-48v-843z" />
    <glyph glyph-name="less" unicode="&#x3c;" horiz-adv-x="285" 
d="M277 655c-57 -86 -142 -192 -214 -266v-8c72 -73 157 -180 214 -266h-56c-66 94 -141 188 -212 266v8c70 77 141 163 212 266h56z" />
    <glyph glyph-name="greater" unicode="&#x3e;" horiz-adv-x="285" 
d="M9 655h56c71 -103 142 -189 212 -266v-8c-71 -78 -147 -172 -212 -266h-56c56 86 142 193 214 266v8c-72 74 -158 180 -214 266z" />
    <glyph glyph-name="degree" unicode="&#xb0;" horiz-adv-x="286" 
d="M30 589c0 97 45 161 113 161s113 -64 113 -161s-45 -161 -113 -161s-113 64 -113 161zM62 589c0 -70 32 -116 81 -116s82 46 82 116s-33 116 -82 116s-81 -46 -81 -116z" />
    <glyph glyph-name="numbersign" unicode="#" horiz-adv-x="620" 
d="M314 730l-58 -197l203 -1l57 198h44l-58 -197h102v-58h-119l-64 -220h106v-57h-123l-58 -198h-41l57 198h-204l-58 -198h-42l58 198h-100v57h116l64 220h-103v58l120 -1l57 198h44zM175 255h204l64 220h-204z" />
    <glyph glyph-name="equal" unicode="=" horiz-adv-x="294" 
d="M9 481h277v-70h-277v70zM9 279h277v-70h-277v70z" />
    <glyph glyph-name="plus" unicode="+" horiz-adv-x="294" 
d="M9 380h113v164h49v-164h115v-70h-115v-163h-49v163h-113v70z" />
    <glyph glyph-name="hyphen" unicode="-" horiz-adv-x="294" 
d="M9 340h277v-70h-277v70z" />
    <glyph glyph-name="quotesingle" unicode="'" horiz-adv-x="124" 
d="M84 531h-43c-3 78 -5 122 -21 197v32h84v-32c-16 -75 -18 -119 -20 -197z" />
    <glyph glyph-name="quotedbl" unicode="&#x22;" horiz-adv-x="232" 
d="M84 531h-43c-3 78 -5 122 -21 197v32h84v-32c-16 -75 -18 -119 -20 -197zM192 531h-43c-2 78 -4 122 -20 197v32h84v-32c-16 -75 -19 -119 -21 -197z" />
    <glyph glyph-name="quoteleft" unicode="&#x2018;" horiz-adv-x="180" 
d="M121 630c17 -12 29 -34 29 -64c0 -45 -25 -76 -60 -76c-36 0 -59 29 -59 95c-1 80 36 156 94 175l9 -29c-15 -12 -26 -27 -33 -42c-13 -23 -6 -42 20 -59z" />
    <glyph glyph-name="quoteright" unicode="&#x2019;" horiz-adv-x="180" 
d="M58 620c-17 12 -28 34 -28 64c0 45 24 76 59 76c36 0 60 -28 60 -88c1 -87 -36 -163 -95 -182l-9 29c15 12 26 27 33 42c13 23 6 42 -20 59z" />
    <glyph glyph-name="quotedblleft" unicode="&#x201c;" horiz-adv-x="328" 
d="M121 630c17 -12 29 -34 29 -64c0 -45 -24 -76 -60 -76c-35 0 -59 29 -59 95c-1 80 36 156 94 175l9 -29c-14 -12 -26 -27 -33 -42c-13 -23 -6 -42 20 -59zM269 630c18 -12 29 -34 29 -64c0 -45 -23 -76 -59 -76c-35 0 -60 29 -60 95c0 80 36 156 95 175l9 -29
c-15 -12 -26 -27 -33 -42c-13 -23 -6 -42 19 -59z" />
    <glyph glyph-name="quotedblright" unicode="&#x201d;" horiz-adv-x="328" 
d="M208 620c-18 12 -29 34 -29 64c0 45 24 76 60 76c35 0 59 -28 59 -94c0 -81 -36 -157 -95 -176l-9 29c15 12 26 27 33 42c13 23 6 42 -19 59zM59 620c-17 12 -29 34 -29 64c0 45 24 76 60 76c35 0 59 -28 59 -94c1 -81 -36 -157 -95 -176l-9 29c15 12 26 27 33 42
c13 23 7 42 -19 59z" />
    <glyph glyph-name="dagger" unicode="&#x2020;" horiz-adv-x="294" 
d="M9 566h113v164h49v-164h115v-70h-115v-496h-49v496h-113v70z" />
    <glyph glyph-name="daggerdbl" unicode="&#x2021;" horiz-adv-x="294" 
d="M9 566h113v164h49v-164h115v-70h-115v-262h115v-70h-115v-164h-49v164h-113v70h113v262h-113v70z" />
    <glyph glyph-name="underscore" unicode="_" horiz-adv-x="399" 
d="M9 -56h382v-70h-382v70z" />
    <glyph glyph-name="endash" unicode="&#x2013;" horiz-adv-x="434" 
d="M9 340h417v-70h-417v70z" />
    <glyph glyph-name="emdash" unicode="&#x2014;" horiz-adv-x="609" 
d="M9 340h592v-70h-592v70z" />
    <glyph glyph-name="minus" unicode="&#x2212;" horiz-adv-x="294" 
d="M9 380h277v-70h-277v70z" />
    <glyph glyph-name="divide" unicode="&#xf7;" horiz-adv-x="294" 
d="M108 503c0 34 15 56 39 56c23 0 39 -22 39 -56c0 -35 -16 -57 -39 -57c-24 0 -39 22 -39 57zM9 380h277v-70h-277v70zM108 188c0 34 15 56 39 56c23 0 39 -22 39 -56c0 -35 -16 -57 -39 -57c-24 0 -39 22 -39 57z" />
    <glyph glyph-name="multiply" unicode="&#xd7;" horiz-adv-x="248" 
d="M9 230l80 115l-80 116l34 49l81 -115l81 115l35 -49l-82 -116l81 -115l-34 -49l-81 114l-81 -114z" />
    <glyph glyph-name="asciitilde" unicode="~" horiz-adv-x="341" 
d="M69 270l-60 19c0 68 33 116 79 116c57 0 102 -71 146 -71c29 0 38 33 38 71l60 -19c0 -67 -32 -116 -78 -116c-56 0 -95 71 -142 71c-28 0 -43 -29 -43 -71z" />
    <glyph glyph-name="bar" unicode="|" horiz-adv-x="87" 
d="M67 760v-955h-47v955h47z" />
    <glyph glyph-name="brokenbar" unicode="&#xa6;" horiz-adv-x="87" 
d="M60 368l-40 147l8 246l39 -147zM28 51h32v-99h-32v99z" />
    <glyph glyph-name="asciicircum" unicode="^" horiz-adv-x="324" 
d="M24 457l-15 24c65 92 105 172 150 269h7c46 -100 87 -179 151 -269l-16 -24c-67 56 -108 100 -135 168h-7c-27 -68 -69 -112 -135 -168z" />
    <glyph glyph-name="guilsinglleft" unicode="&#x2039;" horiz-adv-x="221" 
d="M214 493c-40 -95 -70 -154 -118 -193v-10c48 -39 78 -97 118 -192l-17 -23c-63 91 -118 150 -188 215v10c67 64 123 122 188 215z" />
    <glyph glyph-name="guilsinglright" unicode="&#x203a;" horiz-adv-x="221" 
d="M9 493l16 22c65 -93 121 -151 189 -215v-10c-70 -65 -126 -124 -189 -215l-16 23c38 95 69 153 116 192v10c-47 39 -78 98 -116 193z" />
    <glyph glyph-name="guillemotleft" unicode="&#xab;" horiz-adv-x="376" 
d="M214 493c-40 -95 -70 -154 -118 -193v-10c48 -39 78 -97 118 -192l-17 -23c-63 91 -118 150 -188 215v10c67 64 123 122 188 215zM368 493c-39 -95 -70 -154 -117 -193v-10c47 -39 78 -97 117 -192l-16 -23c-64 91 -120 150 -190 215v10c68 64 124 122 190 215z" />
    <glyph glyph-name="guillemotright" unicode="&#xbb;" horiz-adv-x="376" 
d="M162 493l17 22c65 -93 121 -151 189 -215v-10c-70 -65 -126 -124 -189 -215l-17 23c40 95 71 153 118 192v10c-47 39 -78 98 -118 193zM9 493l16 22c65 -93 121 -151 189 -215v-10c-70 -65 -126 -124 -189 -215l-16 23c38 95 69 153 116 192v10c-47 39 -78 98 -116 193z
" />
    <glyph glyph-name="logicalnot" unicode="&#xac;" horiz-adv-x="294" 
d="M9 380h277v-233h-49v163h-228v70z" />
    <glyph glyph-name="Wgrave" unicode="&#x1e80;" horiz-adv-x="891" 
d="M570 821v-22c-84 0 -147 60 -152 151l85 -12c1 -66 32 -117 67 -117zM11 674v56h250v-56c-32 0 -46 -40 -31 -91l100 -360l150 527h28l150 -529l100 362c14 51 2 91 -30 91v56h152v-56c-27 0 -54 -26 -70 -78l-188 -616h-26l-150 528l-151 -528h-26l-185 609
c-17 56 -44 85 -73 85z" />
    <glyph glyph-name="wgrave" unicode="&#x1e81;" horiz-adv-x="656" 
d="M414 591v-22c-84 0 -147 60 -152 151l85 -12c1 -66 32 -117 67 -117zM4 444v56h194v-56c-25 0 -33 -27 -20 -69l65 -219l109 364h28l105 -366l67 221c13 42 6 69 -20 69v56h122v-56c-20 0 -46 -37 -66 -92l-124 -372h-28l-105 345l-109 -345h-28l-124 372
c-20 55 -47 92 -66 92z" />
    <glyph glyph-name="Wacute" unicode="&#x1e82;" horiz-adv-x="891" 
d="M419 821c36 0 66 51 68 117l84 12c-4 -91 -67 -151 -152 -151v22zM11 674v56h250v-56c-32 0 -46 -40 -31 -91l100 -360l150 527h28l150 -529l100 362c14 51 2 91 -30 91v56h152v-56c-27 0 -54 -26 -70 -78l-188 -616h-26l-150 528l-151 -528h-26l-185 609
c-17 56 -44 85 -73 85z" />
    <glyph glyph-name="wacute" unicode="&#x1e83;" horiz-adv-x="656" 
d="M263 591c36 0 66 51 68 117l84 12c-4 -91 -67 -151 -152 -151v22zM4 444v56h194v-56c-25 0 -33 -27 -20 -69l65 -219l109 364h28l105 -366l67 221c13 42 6 69 -20 69v56h122v-56c-20 0 -46 -37 -66 -92l-124 -372h-28l-105 345l-109 -345h-28l-124 372
c-20 55 -47 92 -66 92z" />
    <glyph glyph-name="Wdieresis" unicode="&#x1e84;" horiz-adv-x="891" 
d="M381 880c0 39 18 65 46 65s46 -26 46 -65c0 -40 -18 -66 -46 -66s-46 26 -46 66zM514 880c0 39 18 65 46 65s46 -26 46 -65c0 -40 -18 -66 -46 -66s-46 26 -46 66zM11 674v56h250v-56c-32 0 -46 -40 -31 -91l100 -360l150 527h28l150 -529l100 362c14 51 2 91 -30 91v56
h152v-56c-27 0 -54 -26 -70 -78l-188 -616h-26l-150 528l-151 -528h-26l-185 609c-17 56 -44 85 -73 85z" />
    <glyph glyph-name="wdieresis" unicode="&#x1e85;" horiz-adv-x="656" 
d="M225 650c0 39 18 65 46 65s46 -26 46 -65c0 -40 -18 -66 -46 -66s-46 26 -46 66zM358 650c0 39 18 65 46 65s46 -26 46 -65c0 -40 -18 -66 -46 -66s-46 26 -46 66zM4 444v56h194v-56c-25 0 -33 -27 -20 -69l65 -219l109 364h28l105 -366l67 221c13 42 6 69 -20 69v56h122
v-56c-20 0 -46 -37 -66 -92l-124 -372h-28l-105 345l-109 -345h-28l-124 372c-20 55 -47 92 -66 92z" />
    <glyph glyph-name="periodcentered" unicode="&#xb7;" horiz-adv-x="179" 
d="M30 250c0 51 25 85 60 85s59 -34 59 -85s-24 -85 -59 -85s-60 34 -60 85z" />
    <glyph glyph-name="bullet" unicode="&#x2022;" horiz-adv-x="235" 
d="M30 365c0 76 36 125 88 125s87 -49 87 -125s-35 -125 -87 -125s-88 49 -88 125z" />
    <glyph glyph-name="plusminus" unicode="&#xb1;" horiz-adv-x="294" 
d="M9 380h113v164h49v-164h115v-70h-115v-121h115v-70h-277v70h113v121h-113v70z" />
    <glyph glyph-name="fraction" unicode="&#x2044;" horiz-adv-x="70" 
d="M232 730l-348 -730h-46l346 730h48z" />
    <glyph glyph-name="currency" unicode="&#xa4;" horiz-adv-x="313" 
d="M261 185l-34 49c-18 -19 -42 -30 -70 -30s-52 11 -70 30l-35 -49l-22 32l35 49c-14 26 -21 60 -21 99c0 40 8 73 21 100l-35 49l22 32l35 -49c19 19 42 29 70 29c27 0 51 -10 69 -29l35 49l22 -32l-34 -49c13 -27 21 -60 21 -100c0 -39 -8 -73 -21 -99l34 -49zM157 481
c-48 0 -81 -46 -81 -116c0 -69 31 -116 81 -116c48 0 81 45 81 116c0 69 -32 116 -81 116z" />
    <glyph glyph-name="franc" unicode="&#x20a3;" horiz-adv-x="472" 
d="M27 730h318c25 0 45 12 51 30h22l34 -241l-32 -21c-34 121 -70 168 -110 168h-108v-257h82c24 0 40 23 40 57h35v-177h-35c0 34 -16 57 -40 57h-82v-102h104v-58h-104v-63c0 -40 17 -67 43 -67v-56h-218v56c26 0 44 27 44 67v63h-51v58h51v363c0 40 -18 67 -44 67v56z
" />
    <glyph glyph-name="lira" unicode="&#x20a4;" horiz-adv-x="522" 
d="M291 750c117 0 196 -64 204 -162c1 -30 -12 -51 -31 -51c-17 0 -37 16 -48 43c-21 67 -63 106 -117 106c-57 0 -99 -44 -99 -123c0 -44 14 -81 31 -118h180v-57h-153c11 -27 22 -54 27 -85h126v-58h-121c-3 -57 -35 -115 -74 -162l47 18l99 10c58 9 89 47 127 160l32 -21
l-71 -280h-22c-3 18 -18 32 -38 30l-316 -20h-5v64c58 0 97 53 97 131c0 25 -5 48 -12 70h-134v58h111c-12 26 -25 53 -35 85h-76v57h62c-4 20 -6 43 -6 67c0 163 90 238 215 238z" />
    <glyph glyph-name="partialdiff" unicode="&#x2202;" horiz-adv-x="434" 
d="M87 622l-9 56c25 38 76 72 133 72c115 0 192 -141 192 -362c0 -241 -88 -408 -216 -408c-96 0 -157 93 -157 223c0 137 63 222 148 222c70 0 137 -56 175 -142c4 31 6 64 6 99c0 183 -64 304 -158 304c-45 0 -90 -26 -114 -64zM345 235c-34 73 -92 120 -153 120
c-67 0 -117 -58 -117 -154c0 -91 45 -157 118 -157c71 0 127 73 152 191z" />
    <glyph glyph-name="product" unicode="&#x220f;" horiz-adv-x="441" 
d="M20 -195v56c26 0 44 27 44 67v709c0 40 -18 67 -44 67v56h401v-56c-27 0 -44 -27 -44 -67v-709c0 -40 17 -67 44 -67v-56h-132v56c26 0 44 27 44 67v768h-224v-768c0 -40 17 -67 44 -67v-56h-133z" />
    <glyph glyph-name="summation" unicode="&#x2211;" horiz-adv-x="468" 
d="M317 -196h-297v35l214 428l-214 428v35h297c19 0 35 12 38 30h22l71 -293l-31 -20c-46 165 -72 219 -145 219h-182l181 -360v-78l-181 -361h182c73 0 99 55 145 220l31 -20l-71 -293h-22c-3 18 -19 30 -38 30z" />
    <glyph glyph-name="lessequal" unicode="&#x2264;" horiz-adv-x="221" 
d="M214 493c-40 -95 -70 -154 -118 -193v-10c48 -39 78 -97 118 -192l-17 -23h-188v64h137c-46 59 -86 101 -137 151v10c67 64 123 122 188 215z" />
    <glyph glyph-name="greaterequal" unicode="&#x2265;" horiz-adv-x="221" 
d="M9 493l16 22c65 -93 121 -151 189 -215v-10c-53 -50 -92 -92 -139 -151h139v-64h-189l-16 23c38 95 69 153 116 192v10c-47 39 -78 98 -116 193z" />
    <glyph glyph-name="notequal" unicode="&#x2260;" horiz-adv-x="294" 
d="M9 481h162l69 209h46l-70 -209h70v-70h-95l-44 -132h139v-70h-164l-70 -209h-43l69 209h-69v70h94l43 132h-137v70z" />
    <glyph glyph-name="integral" unicode="&#x222b;" horiz-adv-x="365" 
d="M205 19c0 -113 -43 -189 -104 -189c-62 0 -85 73 -60 182l43 23v-25c-21 -75 -12 -123 20 -123c31 0 56 48 56 115v589c0 113 44 189 104 189c62 0 85 -73 61 -182l-44 -23v25c20 75 12 123 -20 123c-31 0 -56 -48 -56 -115v-589z" />
    <glyph glyph-name="approxequal" unicode="&#x2248;" horiz-adv-x="341" 
d="M69 388l-60 18c0 69 33 116 79 116c57 0 102 -71 146 -71c29 0 38 33 38 71l60 -19c0 -67 -32 -115 -78 -115c-56 0 -95 70 -142 70c-28 0 -43 -28 -43 -70zM69 168l-60 19c0 68 33 116 79 116c57 0 102 -71 146 -71c29 0 38 33 38 71l60 -19c0 -67 -32 -116 -78 -116
c-56 0 -95 71 -142 71c-28 0 -43 -29 -43 -71z" />
    <glyph glyph-name="infinity" unicode="&#x221e;" horiz-adv-x="535" 
d="M30 250c0 97 54 161 111 161c44 0 88 -42 127 -109c39 67 82 109 127 109c57 0 110 -64 110 -161s-53 -161 -110 -161c-45 0 -88 42 -127 109c-39 -67 -83 -109 -127 -109c-57 0 -111 64 -111 161zM82 250c0 -70 32 -116 63 -116c30 0 66 46 97 116
c-31 70 -67 116 -97 116c-31 0 -63 -46 -63 -116zM454 250c0 70 -32 116 -62 116c-31 0 -68 -46 -98 -116c30 -70 67 -116 98 -116c30 0 62 46 62 116z" />
    <glyph glyph-name="radical" unicode="&#x221a;" horiz-adv-x="527" 
d="M20 209v51h141l92 -369l218 869h48l-244 -955h-45l-103 404h-107z" />
    <glyph glyph-name="uni0394" unicode="&#x394;" horiz-adv-x="471" 
d="M213 730h46l192 -672v-58h-431v58zM65 58h342l-171 596z" />
    <glyph glyph-name="lozenge" unicode="&#x25ca;" horiz-adv-x="346" 
d="M150 -30l-141 395l141 395h46l142 -395l-142 -395h-46zM173 46l117 319l-117 319l-117 -319z" />
    <glyph glyph-name="uni03A9" unicode="&#x3a9;" horiz-adv-x="593" 
d="M30 64h148c-88 56 -148 188 -148 341c0 195 107 345 267 345c159 0 266 -150 266 -345c0 -153 -59 -285 -147 -341h147v-64h-233v76c63 18 103 136 103 296c0 190 -55 314 -136 314c-82 0 -136 -124 -136 -313c0 -160 40 -279 101 -297v-76h-232v64z" />
    <glyph glyph-name="O.ss01" horiz-adv-x="594" 
d="M31 365c0 231 106 385 266 385s266 -154 266 -385s-106 -385 -266 -385s-266 154 -266 385zM162 357c16 -187 79 -313 160 -313c83 0 129 130 110 330c-17 186 -80 312 -160 312c-82 0 -128 -130 -110 -329zM270 365c0 23 11 39 27 39s27 -16 27 -39s-11 -39 -27 -39
s-27 16 -27 39z" />
    <glyph glyph-name="o.ss01" horiz-adv-x="467" 
d="M22 250c0 162 85 270 212 270s211 -108 211 -270s-84 -270 -211 -270s-212 108 -212 270zM141 242c11 -119 54 -204 111 -204s89 85 75 220c-12 120 -55 205 -112 205c-56 0 -89 -85 -74 -221zM211 250c0 20 10 33 23 33s22 -13 22 -33c0 -19 -9 -32 -22 -32
s-23 13 -23 32z" />
    <glyph glyph-name="zero.onum" horiz-adv-x="495" 
d="M30 250c0 162 87 270 218 270c130 0 217 -108 217 -270s-87 -270 -217 -270c-131 0 -218 108 -218 270zM152 250c0 -124 38 -206 96 -206c57 0 96 82 96 206s-39 206 -96 206c-58 0 -96 -82 -96 -206z" />
    <glyph glyph-name="one.onum" horiz-adv-x="249" 
d="M20 0v56c26 0 44 27 44 67v206h-44v56c52 0 102 46 127 115h39v-377c0 -40 17 -67 44 -67v-56h-210z" />
    <glyph glyph-name="two.onum" horiz-adv-x="445" 
d="M32 229c-38 160 45 291 205 291c111 0 182 -63 182 -148c0 -120 -140 -222 -261 -298h87c58 0 111 46 149 159l32 -20l-72 -243h-22c-2 18 -17 30 -37 30h-275v28c126 106 278 183 278 328c0 68 -35 113 -86 113c-62 0 -81 -71 -49 -177v-27z" />
    <glyph glyph-name="three.onum" horiz-adv-x="469" 
d="M248 -250c-169 0 -246 127 -207 317l131 -35v-24c-26 -125 -3 -207 60 -207c50 0 85 50 85 128c0 86 -40 163 -110 190v37c57 23 96 100 96 191c0 74 -28 122 -73 122c-59 0 -83 -83 -57 -207v-24l-118 -35c-39 190 28 317 193 317c106 0 177 -75 177 -176
c0 -83 -50 -159 -129 -205c88 -46 143 -125 143 -210c0 -103 -76 -179 -191 -179z" />
    <glyph glyph-name="five.onum" horiz-adv-x="487" 
d="M257 -20c-169 0 -256 127 -216 317l140 -35v-24c-27 -124 -4 -207 60 -207c51 0 85 64 85 169c0 129 -49 192 -128 192c-24 0 -50 -6 -79 -17l-25 9l25 346h303l-9 -111h-257l-12 -167c44 16 84 23 120 23c119 0 192 -84 192 -236c0 -158 -80 -259 -199 -259z" />
    <glyph glyph-name="seven.onum" horiz-adv-x="435" 
d="M232 -230h-122c0 172 126 467 224 619h-149c-58 0 -111 -46 -149 -160l-32 21l72 280h22c2 -18 17 -30 37 -30h294v-42c-90 -156 -197 -472 -197 -688z" />
    <glyph glyph-name="six.onum" horiz-adv-x="461" 
d="M231 -20c-122 0 -201 89 -201 264c0 220 130 411 324 456l14 -53c-99 -39 -184 -140 -214 -266c24 39 68 59 109 59c87 0 168 -92 168 -230s-80 -230 -200 -230zM143 216c0 -99 35 -172 88 -172c52 0 87 66 87 166s-35 166 -87 166c-53 0 -88 -64 -88 -160z" />
    <glyph glyph-name="nine.onum" horiz-adv-x="471" 
d="M237 520c123 0 204 -98 204 -287c0 -239 -131 -448 -329 -493l-13 53c102 34 188 147 218 300c-23 -38 -70 -63 -113 -63c-91 0 -174 98 -174 245s82 245 207 245zM328 275c0 109 -37 181 -92 181c-56 0 -93 -72 -93 -181s37 -181 93 -181c55 0 92 72 92 181z" />
    <glyph glyph-name="eight.onum" horiz-adv-x="426" 
d="M49 498c0 123 79 192 176 192c92 0 152 -64 152 -158c0 -72 -33 -129 -83 -161c53 -44 102 -98 102 -200c0 -121 -87 -191 -196 -191c-105 0 -170 65 -170 157c0 75 40 137 103 178c-46 41 -84 94 -84 183zM260 398c23 31 38 74 38 124c0 61 -24 104 -65 104
c-39 0 -68 -38 -68 -91c0 -63 45 -98 95 -137zM163 290c-33 -36 -54 -82 -54 -136c0 -66 31 -110 84 -110c51 0 88 38 88 95c0 70 -59 105 -118 151z" />
    <glyph glyph-name="four.onum" horiz-adv-x="472" 
d="M203 -230v56c26 0 44 27 44 67v107h-234v37l308 463h47v-426h100v-74h-100v-107c0 -40 17 -67 44 -67v-56h-209zM114 74h133v225z" />
    <glyph glyph-name="twosuperior" unicode="&#xb2;" horiz-adv-x="301" 
d="M28 648c-24 121 28 202 129 202c72 0 120 -54 120 -126c0 -101 -95 -186 -174 -257h70c34 0 66 27 89 95l19 -12l-43 -168h-13c-2 11 -11 18 -22 18h-182v21c81 95 178 167 178 297c0 63 -22 101 -53 101c-37 0 -50 -53 -34 -133v-17z" />
    <glyph glyph-name="threesuperior" unicode="&#xb3;" horiz-adv-x="316" 
d="M165 388c-101 0 -152 76 -129 190l84 -21v-14c-16 -75 -2 -124 36 -124c30 0 51 30 51 76c0 52 -24 98 -67 115v22c35 14 59 60 59 114c0 45 -17 73 -44 73c-36 0 -50 -49 -34 -123v-15l-76 -21c-24 114 21 190 120 190c68 0 112 -45 112 -106c0 -49 -30 -94 -77 -122
c53 -28 86 -75 86 -126c0 -62 -48 -108 -121 -108z" />
    <glyph glyph-name="onesuperior" unicode="&#xb9;" horiz-adv-x="171" 
d="M20 400v33c16 0 26 17 26 41v269h-26v34c33 0 66 27 81 69h24v-372c0 -24 10 -41 26 -41v-33h-131z" />
    <glyph glyph-name="onequarter" unicode="&#xbc;" horiz-adv-x="541" 
d="M21 292v33c15 0 26 17 26 41v262h-26v33c33 0 66 28 81 69h23v-364c0 -24 11 -41 26 -41v-27l205 432h48l-348 -730h-46l139 292h-128zM372 0v33c15 0 26 17 26 41v35h-144v22l188 307h34v-271h60v-58h-60v-35c0 -24 10 -41 27 -41v-33h-131zM316 167h82v141z" />
    <glyph glyph-name="onehalf" unicode="&#xbd;" horiz-adv-x="542" 
d="M21 292v33c15 0 26 17 26 41v262h-26v33c33 0 66 28 81 69h23v-364c0 -24 11 -41 26 -41v-27l205 432h48l-348 -730h-46l139 292h-128zM269 248c-24 121 28 202 129 202c72 0 120 -54 120 -126c0 -101 -95 -186 -175 -257h71c35 0 66 27 89 95l19 -12l-43 -168h-13
c-2 11 -11 18 -22 18h-182v21c80 95 178 167 178 297c0 63 -23 101 -53 101c-37 0 -50 -53 -34 -133v-17z" />
    <glyph glyph-name="threequarters" unicode="&#xbe;" horiz-adv-x="686" 
d="M167 280c-102 0 -154 76 -130 190l84 -21v-14c-16 -75 -2 -124 36 -124c30 0 51 30 51 76c0 52 -25 98 -66 115v22c34 14 58 60 58 114c0 45 -17 73 -44 73c-36 0 -50 -49 -34 -123v-15l-76 -21c-24 114 21 190 121 190c67 0 111 -45 111 -106c0 -49 -30 -94 -77 -122
c53 -28 86 -75 86 -126c0 -62 -49 -108 -120 -108zM549 730l-348 -730h-46l346 730h48zM518 0v33c15 0 26 17 26 41v35h-144v22l188 307h34v-271h60v-58h-60v-35c0 -24 10 -41 27 -41v-33h-131zM462 167h82v141z" />
    <glyph glyph-name="uni2070" unicode="&#x2070;" horiz-adv-x="338" 
d="M30 619c0 139 56 231 139 231c84 0 139 -92 139 -231s-55 -231 -139 -231c-83 0 -139 92 -139 231zM109 619c0 -115 24 -193 60 -193c37 0 61 78 61 193s-24 193 -61 193c-36 0 -60 -78 -60 -193z" />
    <glyph glyph-name="uni2074" unicode="&#x2074;" horiz-adv-x="299" 
d="M130 400v33c16 0 26 17 26 41v35h-143v22l188 307h34v-271h60v-58h-60v-35c0 -24 10 -41 26 -41v-33h-131zM74 567h82v141z" />
    <glyph glyph-name="uni2075" unicode="&#x2075;" horiz-adv-x="316" 
d="M165 388c-101 0 -152 76 -129 190l84 -21v-14c-16 -75 -2 -124 36 -124c31 0 51 38 51 101c0 77 -30 115 -77 115c-14 0 -30 -3 -47 -10l-15 6l15 207h182l-6 -67h-153l-8 -100c26 10 50 14 72 14c72 0 116 -51 116 -142c0 -94 -48 -155 -121 -155z" />
    <glyph glyph-name="uni2076" unicode="&#x2076;" horiz-adv-x="317" 
d="M158 388c-77 0 -128 59 -128 173c0 143 82 268 203 295l8 -32c-61 -20 -113 -88 -131 -180c14 23 43 38 70 38c56 0 107 -59 107 -147s-51 -147 -129 -147zM103 535c0 -65 22 -109 56 -109c33 0 55 44 55 109s-22 109 -55 109c-34 0 -56 -44 -56 -109z" />
    <glyph glyph-name="uni2077" unicode="&#x2077;" horiz-adv-x="270" 
d="M146 400h-79c0 103 77 280 135 371h-89c-35 0 -67 -27 -90 -95l-19 12l43 168h14c1 -11 10 -18 22 -18h182v-25c-54 -94 -119 -283 -119 -413z" />
    <glyph glyph-name="uni2078" unicode="&#x2078;" horiz-adv-x="298" 
d="M43 724c0 81 51 126 114 126c60 0 98 -42 98 -103c0 -48 -22 -84 -53 -104c34 -28 66 -64 66 -129c0 -81 -57 -126 -127 -126c-69 0 -111 42 -111 102c0 51 28 90 68 115c-29 27 -55 61 -55 119zM176 667c15 18 26 43 26 76c0 40 -15 69 -41 69c-25 0 -44 -25 -44 -60
c0 -41 28 -62 59 -85zM122 583c-23 -20 -39 -48 -39 -84c0 -43 20 -73 53 -73s57 25 57 63c0 44 -35 66 -71 94z" />
    <glyph glyph-name="uni2079" unicode="&#x2079;" horiz-adv-x="317" 
d="M159 850c77 0 128 -59 128 -173c0 -142 -81 -268 -202 -295l-9 33c62 19 113 87 132 179c-15 -23 -43 -38 -70 -38c-56 0 -108 59 -108 147s52 147 129 147zM214 703c0 65 -22 109 -55 109c-34 0 -56 -44 -56 -109s22 -109 56 -109c33 0 55 44 55 109z" />
    <glyph glyph-name="uni2080" unicode="&#x2080;" horiz-adv-x="338" 
d="M30 111c0 139 56 231 139 231c84 0 139 -92 139 -231s-55 -231 -139 -231c-83 0 -139 92 -139 231zM109 111c0 -115 24 -193 60 -193c37 0 61 78 61 193s-24 193 -61 193c-36 0 -60 -78 -60 -193z" />
    <glyph glyph-name="uni2081" unicode="&#x2081;" horiz-adv-x="171" 
d="M20 -108v33c16 0 26 16 26 41v262h-26v33c33 0 66 28 81 69h24v-364c0 -25 10 -41 26 -41v-33h-131z" />
    <glyph glyph-name="uni2082" unicode="&#x2082;" horiz-adv-x="301" 
d="M28 140c-24 121 28 202 129 202c72 0 120 -54 120 -126c0 -101 -95 -186 -174 -257h70c34 0 66 27 89 95l19 -12l-43 -168h-13c-2 11 -11 18 -22 18h-182v21c81 95 178 167 178 297c0 63 -22 101 -53 101c-37 0 -50 -53 -34 -133v-17z" />
    <glyph glyph-name="uni2083" unicode="&#x2083;" horiz-adv-x="316" 
d="M165 -120c-101 0 -152 76 -129 190l84 -21v-14c-16 -75 -2 -124 36 -124c30 0 51 30 51 76c0 52 -24 98 -67 115v22c35 14 59 60 59 114c0 45 -17 73 -44 73c-36 0 -50 -49 -34 -123v-15l-76 -21c-24 114 21 190 120 190c68 0 112 -45 112 -106c0 -49 -30 -94 -77 -122
c53 -28 86 -75 86 -127c0 -61 -48 -107 -121 -107z" />
    <glyph glyph-name="uni2084" unicode="&#x2084;" horiz-adv-x="299" 
d="M130 -108v33c16 0 26 16 26 41v35h-143v22l188 307h34v-271h60v-58h-60v-35c0 -25 10 -41 26 -41v-33h-131zM74 59h82v141z" />
    <glyph glyph-name="uni2085" unicode="&#x2085;" horiz-adv-x="316" 
d="M165 -120c-101 0 -152 76 -129 190l84 -21v-14c-16 -75 -2 -124 36 -124c31 0 51 38 51 101c0 77 -30 115 -77 115c-14 0 -30 -3 -47 -10l-15 6l15 207h182l-6 -67h-153l-8 -100c26 10 50 14 72 14c72 0 116 -51 116 -142c0 -94 -48 -155 -121 -155z" />
    <glyph glyph-name="uni2086" unicode="&#x2086;" horiz-adv-x="317" 
d="M158 -120c-77 0 -128 59 -128 173c0 143 82 268 203 295l8 -32c-61 -20 -113 -88 -131 -180c14 23 43 38 70 38c56 0 107 -59 107 -147s-51 -147 -129 -147zM103 27c0 -65 22 -109 56 -109c33 0 55 44 55 109s-22 109 -55 109c-34 0 -56 -44 -56 -109z" />
    <glyph glyph-name="uni2087" unicode="&#x2087;" horiz-adv-x="270" 
d="M146 -108h-79c0 103 77 280 135 371h-89c-35 0 -67 -27 -90 -95l-19 12l43 168h14c1 -11 10 -18 22 -18h182v-25c-54 -94 -119 -283 -119 -413z" />
    <glyph glyph-name="uni2088" unicode="&#x2088;" horiz-adv-x="298" 
d="M43 216c0 81 51 126 114 126c60 0 98 -42 98 -103c0 -48 -22 -84 -53 -104c34 -28 66 -64 66 -129c0 -81 -57 -126 -127 -126c-69 0 -111 42 -111 102c0 51 28 90 68 115c-29 27 -55 61 -55 119zM176 159c15 18 26 43 26 76c0 40 -15 69 -41 69c-25 0 -44 -25 -44 -60
c0 -41 28 -62 59 -85zM122 75c-23 -20 -39 -48 -39 -85c0 -42 20 -72 53 -72s57 25 57 63c0 44 -35 66 -71 94z" />
    <glyph glyph-name="uni2089" unicode="&#x2089;" horiz-adv-x="317" 
d="M159 342c77 0 128 -59 128 -173c0 -142 -81 -268 -202 -295l-9 32c62 20 113 88 132 180c-15 -23 -43 -38 -70 -38c-56 0 -108 59 -108 147s52 147 129 147zM214 195c0 65 -22 109 -55 109c-34 0 -56 -44 -56 -109s22 -109 56 -109c33 0 55 44 55 109z" />
    <glyph glyph-name="uni2460" unicode="&#x2460;" horiz-adv-x="599" 
d="M30 365c0 231 108 385 270 385c161 0 269 -154 269 -385s-108 -385 -269 -385c-162 0 -270 154 -270 385zM57 365c0 -208 97 -346 243 -346c145 0 242 138 242 346s-97 346 -242 346c-146 0 -243 -138 -243 -346zM234 146v33c16 0 27 17 27 41v262h-27v33
c34 0 67 28 82 69h23v-364c0 -24 10 -41 26 -41v-33h-131z" />
    <glyph glyph-name="uni2461" unicode="&#x2461;" horiz-adv-x="599" 
d="M30 365c0 231 108 385 270 385c161 0 269 -154 269 -385s-108 -385 -269 -385c-162 0 -270 154 -270 385zM57 365c0 -208 97 -346 243 -346c145 0 242 138 242 346s-97 346 -242 346c-146 0 -243 -138 -243 -346zM186 394c-24 121 28 202 129 202c72 0 120 -54 120 -126
c0 -101 -95 -186 -175 -257h70c35 0 67 27 90 95l19 -12l-43 -168h-13c-2 11 -11 18 -22 18h-183v21c82 95 179 167 179 297c0 63 -22 101 -53 101c-37 0 -50 -53 -34 -133v-17z" />
    <glyph glyph-name="uni2462" unicode="&#x2462;" horiz-adv-x="599" 
d="M30 365c0 231 108 385 270 385c161 0 269 -154 269 -385s-108 -385 -269 -385c-162 0 -270 154 -270 385zM57 365c0 -208 97 -346 243 -346c145 0 242 138 242 346s-97 346 -242 346c-146 0 -243 -138 -243 -346zM316 134c-101 0 -153 76 -129 190l84 -21v-14
c-16 -75 -2 -124 36 -124c30 0 51 30 51 76c0 52 -24 98 -67 115v22c35 14 59 60 59 114c0 45 -17 73 -44 73c-36 0 -50 -49 -34 -123v-15l-76 -21c-24 114 21 190 120 190c68 0 112 -45 112 -106c0 -49 -30 -94 -78 -122c54 -28 87 -75 87 -126c0 -62 -48 -108 -121 -108z
" />
    <glyph glyph-name="uni2463" unicode="&#x2463;" horiz-adv-x="599" 
d="M30 365c0 231 108 385 270 385c161 0 269 -154 269 -385s-108 -385 -269 -385c-162 0 -270 154 -270 385zM57 365c0 -208 97 -346 243 -346c145 0 242 138 242 346s-97 346 -242 346c-146 0 -243 -138 -243 -346zM256 146v33c15 0 26 17 26 41v35h-144v22l188 307h34
v-271h60v-58h-60v-35c0 -24 10 -41 26 -41v-33h-130zM199 313h83v141z" />
    <glyph glyph-name="uni2464" unicode="&#x2464;" horiz-adv-x="599" 
d="M30 365c0 231 108 385 270 385c161 0 269 -154 269 -385s-108 -385 -269 -385c-162 0 -270 154 -270 385zM57 365c0 -208 97 -346 243 -346c145 0 242 138 242 346s-97 346 -242 346c-146 0 -243 -138 -243 -346zM302 134c-101 0 -153 76 -129 190l84 -21v-14
c-16 -75 -2 -124 36 -124c31 0 51 38 51 101c0 77 -30 115 -77 115c-14 0 -30 -3 -47 -10l-16 6l16 207h182l-6 -67h-154l-7 -100c26 10 50 14 72 14c72 0 116 -51 116 -142c0 -94 -48 -155 -121 -155z" />
    <glyph glyph-name="uni2465" unicode="&#x2465;" horiz-adv-x="599" 
d="M30 365c0 231 108 385 270 385c161 0 269 -154 269 -385s-108 -385 -269 -385c-162 0 -270 154 -270 385zM57 365c0 -208 97 -346 243 -346c145 0 242 138 242 346s-97 346 -242 346c-146 0 -243 -138 -243 -346zM296 134c-77 0 -128 59 -128 173c0 143 81 268 202 295
l9 -32c-62 -20 -113 -88 -132 -180c15 23 43 38 70 38c56 0 108 -59 108 -147s-52 -147 -129 -147zM241 281c0 -65 22 -109 55 -109c34 0 56 44 56 109s-22 109 -56 109c-33 0 -55 -44 -55 -109z" />
    <glyph glyph-name="uni2466" unicode="&#x2466;" horiz-adv-x="599" 
d="M30 365c0 231 108 385 270 385c161 0 269 -154 269 -385s-108 -385 -269 -385c-162 0 -270 154 -270 385zM57 365c0 -208 97 -346 243 -346c145 0 242 138 242 346s-97 346 -242 346c-146 0 -243 -138 -243 -346zM306 146h-79c0 103 77 280 135 371h-89
c-35 0 -67 -27 -90 -95l-19 12l43 168h14c1 -11 10 -18 22 -18h182v-25c-54 -94 -119 -283 -119 -413z" />
    <glyph glyph-name="uni2467" unicode="&#x2467;" horiz-adv-x="599" 
d="M30 365c0 231 108 385 270 385c161 0 269 -154 269 -385s-108 -385 -269 -385c-162 0 -270 154 -270 385zM57 365c0 -208 97 -346 243 -346c145 0 242 138 242 346s-97 346 -242 346c-146 0 -243 -138 -243 -346zM194 470c0 81 51 126 113 126c61 0 99 -42 99 -103
c0 -48 -21 -84 -52 -104c34 -28 64 -64 64 -129c0 -81 -55 -126 -126 -126c-69 0 -110 42 -110 102c0 51 27 90 67 115c-29 27 -55 61 -55 119zM316 413c15 18 27 43 27 76c0 40 -15 69 -42 69c-24 0 -43 -25 -43 -60c0 -41 28 -62 58 -85zM285 329c-23 -20 -40 -48 -40 -84
c0 -43 20 -73 54 -73c32 0 56 25 56 63c0 44 -34 66 -70 94z" />
    <glyph glyph-name="uni2468" unicode="&#x2468;" horiz-adv-x="599" 
d="M30 365c0 231 108 385 270 385c161 0 269 -154 269 -385s-108 -385 -269 -385c-162 0 -270 154 -270 385zM57 365c0 -208 97 -346 243 -346c145 0 242 138 242 346s-97 346 -242 346c-146 0 -243 -138 -243 -346zM300 596c77 0 128 -59 128 -173
c0 -142 -81 -268 -202 -295l-8 33c61 19 113 87 130 179c-14 -23 -42 -38 -69 -38c-56 0 -107 59 -107 147s51 147 128 147zM355 449c0 65 -22 109 -55 109c-34 0 -55 -44 -55 -109s21 -109 55 -109c33 0 55 44 55 109z" />
    <glyph glyph-name="uni24EA" unicode="&#x24ea;" horiz-adv-x="599" 
d="M30 365c0 231 108 385 270 385c161 0 269 -154 269 -385s-108 -385 -269 -385c-162 0 -270 154 -270 385zM57 365c0 -208 97 -346 243 -346c145 0 242 138 242 346s-97 346 -242 346c-146 0 -243 -138 -243 -346zM161 365c0 139 55 231 139 231c83 0 139 -92 139 -231
s-56 -231 -139 -231c-84 0 -139 92 -139 231zM239 365c0 -115 24 -193 61 -193c36 0 60 78 60 193s-24 193 -60 193c-37 0 -61 -78 -61 -193z" />
    <glyph glyph-name="uni24FF" unicode="&#x24ff;" horiz-adv-x="599" 
d="M30 365c0 231 108 385 270 385c161 0 269 -154 269 -385s-108 -385 -269 -385c-162 0 -270 154 -270 385zM161 365c0 -139 55 -231 139 -231c83 0 139 92 139 231s-56 231 -139 231c-84 0 -139 -92 -139 -231zM239 365c0 115 24 193 61 193c36 0 60 -78 60 -193
s-24 -193 -60 -193c-37 0 -61 78 -61 193z" />
    <glyph glyph-name="uni2776" unicode="&#x2776;" horiz-adv-x="599" 
d="M30 365c0 231 108 385 270 385c161 0 269 -154 269 -385s-108 -385 -269 -385c-162 0 -270 154 -270 385zM234 146h131v33c-16 0 -26 17 -26 41v364h-23c-15 -41 -48 -69 -82 -69v-33h27v-262c0 -24 -11 -41 -27 -41v-33z" />
    <glyph glyph-name="uni2777" unicode="&#x2777;" horiz-adv-x="599" 
d="M30 365c0 231 108 385 270 385c161 0 269 -154 269 -385s-108 -385 -269 -385c-162 0 -270 154 -270 385zM186 394l84 21v17c-16 80 -3 133 34 133c31 0 53 -38 53 -101c0 -130 -97 -202 -179 -297v-21h183c11 0 20 -7 22 -18h13l43 168l-19 12c-23 -68 -55 -95 -90 -95
h-70c80 71 175 156 175 257c0 72 -48 126 -120 126c-101 0 -153 -81 -129 -202z" />
    <glyph glyph-name="uni2778" unicode="&#x2778;" horiz-adv-x="599" 
d="M30 365c0 231 108 385 270 385c161 0 269 -154 269 -385s-108 -385 -269 -385c-162 0 -270 154 -270 385zM316 134c73 0 121 46 121 108c0 51 -33 98 -87 126c48 28 78 73 78 122c0 61 -44 106 -112 106c-99 0 -144 -76 -120 -190l76 21v15c-16 74 -2 123 34 123
c27 0 44 -28 44 -73c0 -54 -24 -100 -59 -114v-22c43 -17 67 -63 67 -115c0 -46 -21 -76 -51 -76c-38 0 -52 49 -36 124v14l-84 21c-24 -114 28 -190 129 -190z" />
    <glyph glyph-name="uni2779" unicode="&#x2779;" horiz-adv-x="599" 
d="M30 365c0 231 108 385 270 385c161 0 269 -154 269 -385s-108 -385 -269 -385c-162 0 -270 154 -270 385zM256 146h130v33c-16 0 -26 17 -26 41v35h60v58h-60v271h-34l-188 -307v-22h144v-35c0 -24 -11 -41 -26 -41v-33zM199 313l83 141v-141h-83z" />
    <glyph glyph-name="uni277A" unicode="&#x277a;" horiz-adv-x="599" 
d="M30 365c0 231 108 385 270 385c161 0 269 -154 269 -385s-108 -385 -269 -385c-162 0 -270 154 -270 385zM302 134c73 0 121 61 121 155c0 91 -44 142 -116 142c-22 0 -46 -4 -72 -14l7 100h154l6 67h-182l-16 -207l16 -6c17 7 33 10 47 10c47 0 77 -38 77 -115
c0 -63 -20 -101 -51 -101c-38 0 -52 49 -36 124v14l-84 21c-24 -114 28 -190 129 -190z" />
    <glyph glyph-name="uni277B" unicode="&#x277b;" horiz-adv-x="599" 
d="M30 365c0 231 108 385 270 385c161 0 269 -154 269 -385s-108 -385 -269 -385c-162 0 -270 154 -270 385zM296 134c77 0 129 59 129 147s-52 147 -108 147c-27 0 -55 -15 -70 -38c19 92 70 160 132 180l-9 32c-121 -27 -202 -152 -202 -295c0 -114 51 -173 128 -173z
M241 281c0 65 22 109 55 109c34 0 56 -44 56 -109s-22 -109 -56 -109c-33 0 -55 44 -55 109z" />
    <glyph glyph-name="uni277C" unicode="&#x277c;" horiz-adv-x="599" 
d="M30 365c0 231 108 385 270 385c161 0 269 -154 269 -385s-108 -385 -269 -385c-162 0 -270 154 -270 385zM306 146c0 130 65 319 119 413v25h-182c-12 0 -21 7 -22 18h-14l-43 -168l19 -12c23 68 55 95 90 95h89c-58 -91 -135 -268 -135 -371h79z" />
    <glyph glyph-name="uni277D" unicode="&#x277d;" horiz-adv-x="599" 
d="M30 365c0 231 108 385 270 385c161 0 269 -154 269 -385s-108 -385 -269 -385c-162 0 -270 154 -270 385zM194 470c0 -58 26 -92 55 -119c-40 -25 -67 -64 -67 -115c0 -60 41 -102 110 -102c71 0 126 45 126 126c0 65 -30 101 -64 129c31 20 52 56 52 104
c0 61 -38 103 -99 103c-62 0 -113 -45 -113 -126zM316 413c-30 23 -58 44 -58 85c0 35 19 60 43 60c27 0 42 -29 42 -69c0 -33 -12 -58 -27 -76zM285 329c36 -28 70 -50 70 -94c0 -38 -24 -63 -56 -63c-34 0 -54 30 -54 73c0 36 17 64 40 84z" />
    <glyph glyph-name="uni277E" unicode="&#x277e;" horiz-adv-x="599" 
d="M30 365c0 231 108 385 270 385c161 0 269 -154 269 -385s-108 -385 -269 -385c-162 0 -270 154 -270 385zM300 596c-77 0 -128 -59 -128 -147s51 -147 107 -147c27 0 55 15 69 38c-17 -92 -69 -160 -130 -179l8 -33c121 27 202 153 202 295c0 114 -51 173 -128 173z
M355 449c0 -65 -22 -109 -55 -109c-34 0 -55 44 -55 109s21 109 55 109c33 0 55 -44 55 -109z" />
    <glyph glyph-name="oneeighth" unicode="&#x215b;" horiz-adv-x="540" 
d="M21 292v33c15 0 26 17 26 41v262h-26v33c33 0 66 28 81 69h23v-364c0 -24 11 -41 26 -41v-27l205 432h48l-348 -730h-46l139 292h-128zM286 324c0 81 51 126 113 126c61 0 99 -42 99 -103c0 -48 -22 -84 -52 -104c34 -28 64 -64 64 -129c0 -81 -56 -126 -127 -126
c-68 0 -110 42 -110 102c0 51 28 90 68 115c-29 27 -55 61 -55 119zM418 267c16 18 27 43 27 76c0 40 -15 69 -42 69c-24 0 -43 -25 -43 -60c0 -41 28 -62 58 -85zM365 183c-23 -20 -39 -48 -39 -84c0 -43 20 -73 53 -73s57 25 57 63c0 44 -35 66 -71 94z" />
    <glyph glyph-name="threeeighths" unicode="&#x215c;" horiz-adv-x="686" 
d="M167 280c-102 0 -154 76 -130 190l84 -21v-14c-16 -75 -2 -124 36 -124c30 0 51 30 51 76c0 52 -25 98 -66 115v22c34 14 58 60 58 114c0 45 -17 73 -44 73c-36 0 -50 -49 -34 -123v-15l-76 -21c-24 114 21 190 121 190c67 0 111 -45 111 -106c0 -49 -30 -94 -77 -122
c53 -28 86 -75 86 -126c0 -62 -49 -108 -120 -108zM549 730l-348 -730h-46l346 730h48zM431 324c0 81 51 126 113 126c61 0 99 -42 99 -103c0 -48 -22 -84 -52 -104c34 -28 64 -64 64 -129c0 -81 -56 -126 -127 -126c-68 0 -110 42 -110 102c0 51 28 90 68 115
c-29 27 -55 61 -55 119zM563 267c16 18 27 43 27 76c0 40 -15 69 -42 69c-24 0 -43 -25 -43 -60c0 -41 28 -62 58 -85zM510 183c-23 -20 -39 -48 -39 -84c0 -43 20 -73 53 -73s57 25 57 63c0 44 -35 66 -71 94z" />
    <glyph glyph-name="fiveeighths" unicode="&#x215d;" horiz-adv-x="686" 
d="M167 280c-102 0 -154 76 -130 190l84 -21v-14c-16 -75 -2 -124 36 -124c30 0 51 38 51 101c0 77 -30 115 -77 115c-14 0 -30 -3 -47 -10l-15 6l15 207h182l-6 -67h-154l-7 -100c26 10 50 14 72 14c72 0 116 -51 116 -142c0 -94 -49 -155 -120 -155zM549 730l-348 -730
h-46l346 730h48zM431 324c0 81 51 126 113 126c61 0 99 -42 99 -103c0 -48 -22 -84 -52 -104c34 -28 64 -64 64 -129c0 -81 -56 -126 -127 -126c-68 0 -110 42 -110 102c0 51 28 90 68 115c-29 27 -55 61 -55 119zM563 267c16 18 27 43 27 76c0 40 -15 69 -42 69
c-24 0 -43 -25 -43 -60c0 -41 28 -62 58 -85zM510 183c-23 -20 -39 -48 -39 -84c0 -43 20 -73 53 -73s57 25 57 63c0 44 -35 66 -71 94z" />
    <glyph glyph-name="seveneighths" unicode="&#x215e;" horiz-adv-x="639" 
d="M146 292h-78c0 103 75 280 134 371h-89c-35 0 -67 -27 -90 -95l-19 12l43 168h13c2 -11 11 -18 23 -18h181v-25c-53 -94 -118 -283 -118 -413zM502 730l-348 -730h-46l346 730h48zM385 324c0 81 51 126 113 126c61 0 99 -42 99 -103c0 -48 -22 -84 -52 -104
c34 -28 64 -64 64 -129c0 -81 -56 -126 -127 -126c-68 0 -110 42 -110 102c0 51 28 90 68 115c-29 27 -55 61 -55 119zM517 267c16 18 27 43 27 76c0 40 -15 69 -42 69c-24 0 -43 -25 -43 -60c0 -41 28 -62 58 -85zM464 183c-23 -20 -39 -48 -39 -84c0 -43 20 -73 53 -73
s57 25 57 63c0 44 -35 66 -71 94z" />
    <glyph glyph-name="zero.dnom" horiz-adv-x="338" 
d="M30 219c0 139 56 231 139 231c84 0 139 -92 139 -231s-55 -231 -139 -231c-83 0 -139 92 -139 231zM109 219c0 -115 24 -193 60 -193c37 0 61 78 61 193s-24 193 -61 193c-36 0 -60 -78 -60 -193z" />
    <glyph glyph-name="one.dnom" horiz-adv-x="171" 
d="M20 0v33c16 0 26 17 26 41v262h-26v33c33 0 66 28 81 69h24v-364c0 -24 10 -41 26 -41v-33h-131z" />
    <glyph glyph-name="two.dnom" horiz-adv-x="301" 
d="M28 248c-24 121 28 202 129 202c72 0 120 -54 120 -126c0 -101 -95 -186 -175 -257h71c35 0 66 27 89 95l19 -12l-43 -168h-13c-2 11 -11 18 -22 18h-182v21c80 95 178 167 178 297c0 63 -23 101 -53 101c-37 0 -50 -53 -34 -133v-17z" />
    <glyph glyph-name="three.dnom" horiz-adv-x="316" 
d="M165 -12c-101 0 -152 76 -129 190l84 -21v-14c-16 -75 -2 -124 36 -124c30 0 51 30 51 76c0 52 -24 98 -67 115v22c35 14 59 60 59 114c0 45 -17 73 -44 73c-36 0 -50 -49 -34 -123v-15l-76 -21c-24 114 21 190 120 190c68 0 112 -45 112 -106c0 -49 -30 -94 -77 -122
c53 -28 86 -75 86 -126c0 -62 -48 -108 -121 -108z" />
    <glyph glyph-name="four.dnom" horiz-adv-x="299" 
d="M131 0v33c15 0 26 17 26 41v35h-144v22l188 307h34v-271h60v-58h-60v-35c0 -24 10 -41 27 -41v-33h-131zM75 167h82v141z" />
    <glyph glyph-name="five.dnom" horiz-adv-x="316" 
d="M165 -12c-101 0 -152 76 -129 190l84 -21v-14c-16 -75 -2 -124 36 -124c31 0 51 38 51 101c0 77 -30 115 -77 115c-14 0 -30 -3 -47 -10l-15 6l15 207h182l-6 -67h-153l-8 -100c26 10 50 14 72 14c72 0 116 -51 116 -142c0 -94 -48 -155 -121 -155z" />
    <glyph glyph-name="six.dnom" horiz-adv-x="317" 
d="M158 -12c-77 0 -128 59 -128 173c0 143 82 268 203 295l8 -32c-61 -20 -113 -88 -131 -180c14 23 43 38 70 38c56 0 107 -59 107 -147s-51 -147 -129 -147zM103 135c0 -65 22 -109 56 -109c33 0 55 44 55 109s-22 109 -55 109c-34 0 -56 -44 -56 -109z" />
    <glyph glyph-name="seven.dnom" horiz-adv-x="270" 
d="M146 0h-79c0 103 77 280 135 371h-89c-35 0 -67 -27 -90 -95l-19 12l43 168h14c1 -11 10 -18 22 -18h182v-25c-54 -94 -119 -283 -119 -413z" />
    <glyph glyph-name="eight.dnom" horiz-adv-x="299" 
d="M44 324c0 81 51 126 113 126c61 0 99 -42 99 -103c0 -48 -22 -84 -52 -104c34 -28 64 -64 64 -129c0 -81 -56 -126 -127 -126c-68 0 -110 42 -110 102c0 51 28 90 68 115c-29 27 -55 61 -55 119zM176 267c16 18 27 43 27 76c0 40 -15 69 -42 69c-24 0 -43 -25 -43 -60
c0 -41 28 -62 58 -85zM123 183c-23 -20 -39 -48 -39 -84c0 -43 20 -73 53 -73s57 25 57 63c0 44 -35 66 -71 94z" />
    <glyph glyph-name="nine.dnom" horiz-adv-x="317" 
d="M159 450c77 0 128 -59 128 -173c0 -142 -81 -268 -202 -295l-9 33c62 19 113 87 132 179c-15 -23 -43 -38 -70 -38c-56 0 -108 59 -108 147s52 147 129 147zM214 303c0 65 -22 109 -55 109c-34 0 -56 -44 -56 -109s22 -109 56 -109c33 0 55 44 55 109z" />
    <glyph glyph-name="zero.numr" horiz-adv-x="338" 
d="M30 511c0 139 56 231 139 231c84 0 139 -92 139 -231s-55 -231 -139 -231c-83 0 -139 92 -139 231zM109 511c0 -115 24 -193 60 -193c37 0 61 78 61 193s-24 193 -61 193c-36 0 -60 -78 -60 -193z" />
    <glyph glyph-name="one.numr" horiz-adv-x="172" 
d="M21 292v33c15 0 26 17 26 41v262h-26v33c33 0 66 28 81 69h23v-364c0 -24 11 -41 26 -41v-33h-130z" />
    <glyph glyph-name="two.numr" horiz-adv-x="301" 
d="M28 540c-24 121 28 202 129 202c72 0 120 -54 120 -126c0 -101 -95 -186 -174 -257h70c34 0 66 27 89 95l19 -12l-43 -168h-13c-2 11 -11 18 -22 18h-182v21c81 95 178 167 178 297c0 63 -22 101 -53 101c-37 0 -50 -53 -34 -133v-17z" />
    <glyph glyph-name="three.numr" horiz-adv-x="317" 
d="M167 280c-102 0 -154 76 -130 190l84 -21v-14c-16 -75 -2 -124 36 -124c30 0 51 30 51 76c0 52 -25 98 -66 115v22c34 14 58 60 58 114c0 45 -17 73 -44 73c-36 0 -50 -49 -34 -123v-15l-76 -21c-24 114 21 190 121 190c67 0 111 -45 111 -106c0 -49 -30 -94 -77 -122
c53 -28 86 -75 86 -126c0 -62 -49 -108 -120 -108z" />
    <glyph glyph-name="four.numr" horiz-adv-x="299" 
d="M130 292v33c16 0 26 17 26 41v35h-143v22l188 307h34v-271h60v-58h-60v-35c0 -24 10 -41 26 -41v-33h-131zM74 459h82v141z" />
    <glyph glyph-name="five.numr" horiz-adv-x="317" 
d="M167 280c-102 0 -154 76 -130 190l84 -21v-14c-16 -75 -2 -124 36 -124c30 0 51 38 51 101c0 77 -30 115 -77 115c-14 0 -30 -3 -47 -10l-15 6l15 207h182l-6 -67h-154l-7 -100c26 10 50 14 72 14c72 0 116 -51 116 -142c0 -94 -49 -155 -120 -155z" />
    <glyph glyph-name="six.numr" horiz-adv-x="317" 
d="M158 280c-77 0 -128 59 -128 173c0 143 82 268 203 295l8 -32c-61 -20 -113 -88 -131 -180c14 23 43 38 70 38c56 0 107 -59 107 -147s-51 -147 -129 -147zM103 427c0 -65 22 -109 56 -109c33 0 55 44 55 109s-22 109 -55 109c-34 0 -56 -44 -56 -109z" />
    <glyph glyph-name="seven.numr" horiz-adv-x="270" 
d="M146 292h-78c0 103 75 280 134 371h-89c-35 0 -67 -27 -90 -95l-19 12l43 168h13c2 -11 11 -18 23 -18h181v-25c-53 -94 -118 -283 -118 -413z" />
    <glyph glyph-name="eight.numr" horiz-adv-x="298" 
d="M43 616c0 81 51 126 114 126c60 0 98 -42 98 -103c0 -48 -22 -84 -53 -104c34 -28 66 -64 66 -129c0 -81 -57 -126 -127 -126c-69 0 -111 42 -111 102c0 51 28 90 68 115c-29 27 -55 61 -55 119zM176 559c15 18 26 43 26 76c0 40 -15 69 -41 69c-25 0 -44 -25 -44 -60
c0 -41 28 -62 59 -85zM122 475c-23 -20 -39 -48 -39 -84c0 -43 20 -73 53 -73s57 25 57 63c0 44 -35 66 -71 94z" />
    <glyph glyph-name="nine.numr" horiz-adv-x="317" 
d="M159 742c77 0 128 -59 128 -173c0 -142 -81 -268 -202 -295l-9 33c62 19 113 87 132 179c-15 -23 -43 -38 -70 -38c-56 0 -108 59 -108 147s52 147 129 147zM214 595c0 65 -22 109 -55 109c-34 0 -56 -44 -56 -109s22 -109 56 -109c33 0 55 44 55 109z" />
    <glyph glyph-name="ordmasculine" unicode="&#xba;" horiz-adv-x="297" 
d="M22 593c0 97 50 162 127 162c76 0 127 -65 127 -162s-51 -162 -127 -162c-77 0 -127 65 -127 162zM93 588c7 -72 33 -123 66 -123c35 0 54 51 45 133c-6 71 -32 122 -66 122c-35 0 -54 -51 -45 -132z" />
    <glyph glyph-name="AE" unicode="&#xc6;" horiz-adv-x="710" 
d="M13 56c47 0 77 43 107 131l178 543h275c24 0 45 12 51 30h22l33 -241l-31 -21c-35 121 -71 168 -111 168h-108v-269h83c24 0 40 22 40 56h34v-176h-34c0 34 -16 56 -40 56h-83v-269h113c53 0 99 67 135 172l32 -21l-58 -245h-22c-6 18 -26 30 -51 30h-323v56
c26 0 43 27 43 67v88h-126l-18 -60c-17 -51 -8 -95 29 -95v-56h-170v56zM253 459l-13 -185l58 164z" />
    <glyph glyph-name="ae" unicode="&#xe6;" horiz-adv-x="727" 
d="M158 314l-109 -31c-27 138 48 237 182 237c68 0 119 -29 146 -77c32 48 80 77 137 77c115 0 193 -89 201 -225v-19l-284 34c-1 -18 -1 -35 0 -53c7 -104 57 -172 129 -172c55 0 98 37 116 93l38 -14c-21 -121 -107 -185 -198 -185c-67 0 -127 41 -162 112
c-31 -61 -89 -111 -161 -111c-102 0 -169 52 -169 135c0 192 285 104 285 230v20c0 58 -33 98 -84 98c-55 0 -83 -55 -67 -125v-24zM435 354l169 -21c-9 74 -42 130 -87 130c-40 0 -70 -42 -82 -109zM309 279c-44 -61 -168 -42 -168 -145c0 -44 19 -78 61 -78
c62 0 107 73 107 157v35l3 29z" />
    <glyph glyph-name="Thorn" unicode="&#xde;" horiz-adv-x="483" 
d="M20 730h218v-56c-26 0 -43 -27 -43 -67v-37h31c138 0 227 -83 227 -209c0 -125 -88 -208 -225 -208h-33v-30c0 -40 17 -67 43 -67v-56h-218v56c26 0 44 27 44 67v484c0 40 -18 67 -44 67v56zM195 216h36c53 0 92 58 92 144c0 88 -37 146 -89 146h-39v-290z" />
    <glyph glyph-name="thorn" unicode="&#xfe;" horiz-adv-x="493" 
d="M10 685c46 0 92 25 115 65h39v-326l-3 -32l3 -2c26 81 80 130 145 130c98 0 162 -104 162 -259c0 -169 -80 -281 -201 -281c-44 0 -81 19 -106 50v-167c0 -34 15 -57 36 -57v-56h-190v56c22 0 36 23 36 57v709c0 34 -14 57 -36 57v56zM164 245v-97c0 -66 35 -110 83 -110
c65 0 107 85 107 216c0 114 -36 190 -90 190c-58 0 -100 -80 -100 -199z" />
    <glyph glyph-name="germandbls" unicode="&#xdf;" horiz-adv-x="543" 
d="M259 0v64c78 0 129 59 129 149c0 91 -48 152 -129 152v58c64 0 101 61 101 136c0 81 -43 127 -96 127c-54 0 -82 -46 -82 -129v-557h-175v56c27 0 44 28 44 69v437c0 117 112 188 232 188s208 -74 208 -180c0 -72 -41 -127 -107 -159c78 -26 135 -101 135 -197
c0 -171 -152 -214 -260 -214z" />
    <glyph glyph-name="eth" unicode="&#xf0;" horiz-adv-x="467" 
d="M106 688v62c67 0 126 -19 175 -53l69 53l13 -39l-48 -39c83 -76 131 -206 131 -369c0 -213 -90 -323 -223 -323c-121 0 -201 112 -201 281c0 155 64 259 161 259c66 0 119 -49 145 -130l3 2c-5 108 -31 189 -76 239l-86 -67l-13 39l65 53c-32 22 -70 32 -115 32zM328 254
c0 112 -42 190 -97 190c-56 0 -92 -76 -92 -190c0 -130 42 -216 99 -216c58 0 90 86 90 216z" />
    <glyph glyph-name="gravecomb" unicode="&#x300;" horiz-adv-x="0" 
d="M245 591v-22c-84 0 -147 60 -152 151l85 -12c1 -66 32 -117 67 -117z" />
    <glyph glyph-name="acutecomb" unicode="&#x301;" horiz-adv-x="0" 
d="M93 591c36 0 66 51 68 117l84 12c-4 -91 -67 -151 -152 -151v22z" />
    <glyph glyph-name="uni0302" unicode="&#x302;" horiz-adv-x="0" 
d="M28 609l96 126h45l96 -126l-27 -44c-41 9 -71 64 -90 146h-3c-19 -82 -49 -137 -90 -146z" />
    <glyph glyph-name="tildecomb" unicode="&#x303;" horiz-adv-x="0" 
d="M138 586l-61 19c0 69 23 116 57 116c42 0 68 -71 98 -71c20 0 26 33 26 71l60 -19c0 -67 -22 -116 -55 -116c-40 0 -64 71 -95 71c-20 0 -30 -28 -30 -71z" />
    <glyph glyph-name="uni0304" unicode="&#x304;" horiz-adv-x="0" 
d="M89 648h210v-58h-210v58z" />
    <glyph glyph-name="uni0306" unicode="&#x306;" horiz-adv-x="0" 
d="M78 714l39 12c0 -69 24 -111 58 -111c36 0 60 42 60 111l62 -12c0 -78 -44 -134 -109 -134c-66 0 -110 56 -110 134z" />
    <glyph glyph-name="uni0307" unicode="&#x307;" horiz-adv-x="80" 
d="M42 650c0 39 18 65 46 65s46 -26 46 -65c0 -40 -18 -66 -46 -66s-46 26 -46 66z" />
    <glyph glyph-name="uni0308" unicode="&#x308;" horiz-adv-x="0" 
d="M42 650c0 39 18 65 46 65s46 -26 46 -65c0 -40 -18 -66 -46 -66s-46 26 -46 66zM175 650c0 39 18 65 46 65s46 -26 46 -65c0 -40 -18 -66 -46 -66s-46 26 -46 66z" />
    <glyph glyph-name="uni030A" unicode="&#x30a;" horiz-adv-x="0" 
d="M47 680c0 57 27 95 68 95c39 0 66 -38 66 -95c0 -58 -27 -96 -66 -96c-41 0 -68 38 -68 96zM70 680c0 -38 18 -64 45 -64c26 0 43 26 43 64c0 37 -17 63 -43 63c-27 0 -45 -26 -45 -63z" />
    <glyph glyph-name="uni030B" unicode="&#x30b;" horiz-adv-x="0" 
d="M19 591c27 0 45 51 45 117l75 12c-3 -91 -50 -151 -120 -151v22zM125 591c27 0 45 51 45 117l75 12c-3 -91 -50 -151 -120 -151v22z" />
    <glyph glyph-name="uni030C" unicode="&#x30c;" horiz-adv-x="183" 
d="M28 691l27 44c41 -9 71 -64 90 -146h3c19 82 49 137 90 146l27 -44l-96 -126h-45z" />
    <glyph glyph-name="uni0312" unicode="&#x312;" horiz-adv-x="0" 
d="M135 689c14 -8 23 -25 23 -49c0 -33 -18 -56 -44 -56c-27 0 -45 24 -45 66c0 58 28 102 71 102l7 -22c-9 0 -17 -3 -22 -8c-14 -8 -7 -24 10 -33z" />
    <glyph glyph-name="uni0326" unicode="&#x326;" horiz-adv-x="0" 
d="M-48 -165c-14 8 -23 25 -23 49c0 33 18 56 44 56c27 0 45 -24 45 -66c0 -58 -28 -102 -71 -102l-7 22c9 0 17 3 22 8c14 8 7 24 -10 33z" />
    <glyph glyph-name="uni0327" unicode="&#x327;" horiz-adv-x="0" 
d="M111 0l-23 -60c14 9 29 13 42 13c33 0 58 -27 58 -72c0 -65 -55 -98 -104 -98c-43 0 -82 27 -71 81l37 18c-4 -35 13 -51 31 -51c20 0 42 19 42 55c0 23 -8 33 -19 33c-8 0 -19 -6 -29 -16l-29 14l36 106z" />
    <glyph glyph-name="uni0328" unicode="&#x328;" horiz-adv-x="0" 
d="M138 0c-55 0 -91 -55 -91 -102c0 -24 10 -38 28 -38c21 0 52 20 87 62l15 -71c-22 -37 -53 -55 -82 -55c-41 0 -77 34 -77 95c0 69 46 132 115 132z" />
    <glyph glyph-name="uni0335" unicode="&#x335;" horiz-adv-x="0" 
d="M44 266h218v-32h-218v32z" />
    <glyph glyph-name="uni0336" unicode="&#x336;" horiz-adv-x="0" 
d="M16 266h510v-32h-510v32z" />
    <glyph glyph-name="uni0337" unicode="&#x337;" horiz-adv-x="0" 
d="M445 500l-391 -500h-32l388 500h35z" />
    <glyph glyph-name="uni0338" unicode="&#x338;" horiz-adv-x="0" 
d="M564 730l-501 -730h-32l498 730h35z" />
    <glyph glyph-name="arrowleft" unicode="&#x2190;" horiz-adv-x="334" 
d="M20 283l122 163l32 -45l-54 -73c-14 -18 -35 -33 -53 -38l-16 -4v-3h263v-66h-263v-3l16 -4c18 -5 39 -19 53 -38l54 -73l-32 -45l-122 163v66z" />
    <glyph glyph-name="arrowup" unicode="&#x2191;" horiz-adv-x="335" 
d="M191 460l114 -174l-31 -45l-52 77c-12 20 -23 50 -26 76l-3 23h-2v-377h-46v377h-2l-3 -23c-3 -26 -14 -56 -27 -76l-51 -77l-32 45l115 174h46z" />
    <glyph glyph-name="arrowright" unicode="&#x2192;" horiz-adv-x="334" 
d="M314 283v-66l-121 -163l-32 45l54 73c13 19 34 33 53 38l16 4v3h-264v66h264v3l-16 4c-19 5 -40 20 -53 38l-54 73l32 45z" />
    <glyph glyph-name="arrowdown" unicode="&#x2193;" horiz-adv-x="335" 
d="M191 40h-46l-115 174l32 46l51 -78c13 -19 24 -50 27 -75l3 -24h2v377h46v-377h2l3 24c3 25 14 56 26 75l52 78l31 -46z" />
    <glyph glyph-name="arrowboth" unicode="&#x2194;" horiz-adv-x="475" 
d="M455 283v-66l-122 -163l-32 45l54 73c14 19 35 33 53 38l16 4v3h-373v-3l16 -4c18 -5 39 -19 53 -38l54 -73l-32 -45l-122 163v66l122 163l32 -45l-54 -73c-14 -18 -35 -33 -53 -38l-16 -4v-3h373v3l-16 4c-18 5 -39 20 -53 38l-54 73l32 45z" />
    <glyph glyph-name="arrowupdn" unicode="&#x2195;" horiz-adv-x="335" 
d="M191 560l114 -174l-31 -45l-52 77c-12 20 -23 50 -26 76l-3 23h-2v-534h2l3 24c3 25 14 56 26 75l52 78l31 -46l-114 -174h-46l-115 174l32 46l51 -78c13 -19 24 -50 27 -75l3 -24h2v534h-2l-3 -23c-3 -26 -14 -56 -27 -76l-51 -77l-32 45l115 174h46z" />
    <glyph glyph-name="uni2196" unicode="&#x2196;" horiz-adv-x="289" 
d="M63 422l167 -7v-65l-75 4c-18 0 -40 11 -56 26l-13 13l-2 -1l187 -267l-33 -47l-187 266l-1 -1l10 -19c11 -21 18 -54 18 -81l3 -106h-45l-6 238z" />
    <glyph glyph-name="uni2197" unicode="&#x2197;" horiz-adv-x="302" 
d="M238 422l33 -47l-5 -238h-45l2 106c1 27 8 60 19 81l9 19l-1 1l-187 -266l-33 47l187 267l-1 1l-14 -13c-15 -15 -37 -26 -56 -26l-75 -4v65z" />
    <glyph glyph-name="uni2198" unicode="&#x2198;" horiz-adv-x="302" 
d="M238 78l-167 8v64l75 -4c19 0 41 -11 56 -26l14 -13l1 1l-187 267l33 47l187 -266l1 1l-9 20c-11 20 -19 53 -19 80l-2 106h45l5 -238z" />
    <glyph glyph-name="uni2199" unicode="&#x2199;" horiz-adv-x="302" 
d="M63 78l-33 47l6 238h45l-3 -106c0 -27 -7 -60 -18 -80l-10 -20l1 -1l187 266l33 -47l-187 -267l2 -1l13 13c16 15 38 26 56 26l75 4v-64z" />
    <glyph glyph-name="Eth" unicode="&#xd0;" horiz-adv-x="590" 
d="M21 0v56c26 0 43 27 43 67v221h-116v32h116v231c0 40 -17 67 -43 67v56h255c172 0 283 -146 283 -365s-110 -365 -281 -365h-257zM195 64h75c92 0 159 118 159 297c0 183 -64 305 -153 305h-81v-602z" />
    <glyph glyph-name="hbar" unicode="&#x127;" horiz-adv-x="492" 
d="M8 685c46 0 92 25 115 65h39v-195h29v-32h-29v-98l-3 -32l3 -2c27 81 79 129 147 129c83 0 138 -74 138 -184v-223c0 -34 15 -57 37 -57v-56h-191v56c22 0 37 23 37 57v224c0 64 -27 107 -71 107c-58 0 -97 -79 -97 -199v-132c0 -34 15 -57 37 -57v-56h-191v56
c22 0 37 23 37 57v410h-73v32h73v17c0 34 -15 57 -37 57v56z" />
    <glyph glyph-name="Dcroat" unicode="&#x110;" horiz-adv-x="590" 
d="M21 0v56c26 0 43 27 43 67v221h-116v32h116v231c0 40 -17 67 -43 67v56h255c172 0 283 -146 283 -365s-110 -365 -281 -365h-257zM195 64h75c92 0 159 118 159 297c0 183 -64 305 -153 305h-81v-602z" />
    <glyph glyph-name="tbar" unicode="&#x167;" horiz-adv-x="378" 
d="M172 233c0 -89 33 -148 78 -148c34 0 64 37 81 93l38 -14c-20 -112 -80 -184 -163 -184c-89 0 -149 83 -151 207v87h-85v32h85v100c0 34 -15 57 -44 57v37c60 0 106 36 122 150h39v-150h138v-51h-138v-143h17v-32h-17v-41z" />
    <glyph glyph-name="Tbar" unicode="&#x166;" horiz-adv-x="610" 
d="M476 730c25 0 45 12 51 30h22l56 -271l-32 -21c-43 151 -87 198 -132 198h-71v-290h42v-32h-42v-221c0 -40 17 -67 44 -67v-56h-218v56c26 0 43 27 43 67v221h-45v32h45v290h-70c-46 0 -90 -47 -133 -198l-31 21l55 271h22c6 -18 26 -30 51 -30h343z" />
    <glyph glyph-name="Hbar" unicode="&#x126;" horiz-adv-x="582" 
d="M21 0v56c26 0 43 27 43 67v371h-29v32h29v81c0 40 -17 67 -43 67v56h218v-56c-27 0 -44 -27 -44 -67v-81h193v81c0 40 -17 67 -44 67v56h218v-56c-26 0 -43 -27 -43 -67v-81h26v-32h-26v-371c0 -40 17 -67 43 -67v-56h-218v56c27 0 44 27 44 67v210h-193v-210
c0 -40 17 -67 44 -67v-56h-218zM195 397h193v97h-193v-97z" />
    <glyph glyph-name="lslash" unicode="&#x142;" horiz-adv-x="206" 
d="M8 685c46 0 92 25 115 65h39v-404h52v-32h-52v-201c0 -34 14 -57 37 -57v-56h-191v56c22 0 37 23 37 57v201h-50v32h50v226c0 34 -15 57 -37 57v56z" />
    <glyph glyph-name="Lslash" unicode="&#x141;" horiz-adv-x="455" 
d="M21 0v56c26 0 43 27 43 67v221h-86v32h86v231c0 40 -17 67 -43 67v56h218v-56c-27 0 -44 -27 -44 -67v-231h2v-32h-2v-280h113c41 0 79 51 114 172l31 -21l-36 -245h-22c-6 18 -26 30 -51 30h-323z" />
    <glyph glyph-name="oslash" unicode="&#xf8;" horiz-adv-x="467" 
d="M22 250c0 162 85 270 212 270c58 0 107 -23 144 -63l33 43h35l-51 -65c32 -47 50 -110 50 -185c0 -162 -84 -270 -211 -270c-59 0 -108 23 -145 63l-34 -43h-32l50 64c-33 47 -51 111 -51 186zM141 242c2 -27 6 -52 12 -74l152 196c-20 61 -52 99 -90 99
c-56 0 -89 -85 -74 -221zM315 332l-153 -196c20 -60 52 -98 90 -98c57 0 89 85 75 220c-3 27 -7 51 -12 74z" />
    <glyph glyph-name="Oslash" unicode="&#xd8;" horiz-adv-x="594" 
d="M31 365c0 231 106 385 266 385c74 0 136 -33 182 -91l49 71h35l-66 -96c42 -67 66 -159 66 -269c0 -231 -106 -385 -266 -385c-75 0 -138 34 -184 94l-51 -74h-32l66 98c-42 66 -65 158 -65 267zM162 357c4 -48 11 -93 21 -132l216 317c-29 90 -74 144 -127 144
c-82 0 -128 -130 -110 -329zM410 507l-217 -316c30 -92 75 -147 129 -147c83 0 129 130 110 330c-5 49 -12 94 -22 133z" />
    <glyph glyph-name="dotlessi" unicode="&#x131;" horiz-adv-x="212" 
d="M14 455c46 0 92 25 115 65h39v-407c0 -34 14 -57 37 -57v-56h-191v56c22 0 37 23 37 57v229c0 34 -15 57 -37 57v56z" />
    <glyph glyph-name="Agrave" unicode="&#xc0;" horiz-adv-x="634" 
d="M376 821v-22c-84 0 -147 60 -152 151l85 -12c1 -66 32 -117 67 -117zM355 0v56c37 0 45 43 29 95l-17 60h-195l-18 -60c-17 -51 -8 -95 29 -95v-56h-170v56c47 0 77 43 107 131l185 563h26l185 -567c27 -80 59 -127 106 -127v-56h-267zM269 518l-75 -244h150z" />
    <glyph glyph-name="Aacute" unicode="&#xc1;" horiz-adv-x="634" 
d="M225 821c36 0 66 51 68 117l84 12c-4 -91 -67 -151 -152 -151v22zM355 0v56c37 0 45 43 29 95l-17 60h-195l-18 -60c-17 -51 -8 -95 29 -95v-56h-170v56c47 0 77 43 107 131l185 563h26l185 -567c27 -80 59 -127 106 -127v-56h-267zM269 518l-75 -244h150z" />
    <glyph glyph-name="Acircumflex" unicode="&#xc2;" horiz-adv-x="634" 
d="M182 839l96 126h45l96 -126l-27 -44c-41 9 -71 64 -90 146h-3c-19 -82 -49 -137 -90 -146zM355 0v56c37 0 45 43 29 95l-17 60h-195l-18 -60c-17 -51 -8 -95 29 -95v-56h-170v56c47 0 77 43 107 131l185 563h26l185 -567c27 -80 59 -127 106 -127v-56h-267zM269 518
l-75 -244h150z" />
    <glyph glyph-name="Atilde" unicode="&#xc3;" horiz-adv-x="634" 
d="M238 816l-61 19c0 69 23 116 57 116c42 0 68 -71 98 -71c20 0 26 33 26 71l60 -19c0 -67 -22 -116 -55 -116c-40 0 -64 71 -95 71c-20 0 -30 -28 -30 -71zM355 0v56c37 0 45 43 29 95l-17 60h-195l-18 -60c-17 -51 -8 -95 29 -95v-56h-170v56c47 0 77 43 107 131l185 563
h26l185 -567c27 -80 59 -127 106 -127v-56h-267zM269 518l-75 -244h150z" />
    <glyph glyph-name="Adieresis" unicode="&#xc4;" horiz-adv-x="634" 
d="M187 880c0 39 18 65 46 65s46 -26 46 -65c0 -40 -18 -66 -46 -66s-46 26 -46 66zM320 880c0 39 18 65 46 65s46 -26 46 -65c0 -40 -18 -66 -46 -66s-46 26 -46 66zM355 0v56c37 0 45 43 29 95l-17 60h-195l-18 -60c-17 -51 -8 -95 29 -95v-56h-170v56c47 0 77 43 107 131
l185 563h26l185 -567c27 -80 59 -127 106 -127v-56h-267zM269 518l-75 -244h150z" />
    <glyph glyph-name="Aring" unicode="&#xc5;" horiz-adv-x="634" 
d="M233 910c0 57 27 95 68 95c39 0 66 -38 66 -95c0 -58 -27 -96 -66 -96c-41 0 -68 38 -68 96zM256 910c0 -38 18 -64 45 -64c26 0 43 26 43 64c0 37 -17 63 -43 63c-27 0 -45 -26 -45 -63zM355 0v56c37 0 45 43 29 95l-17 60h-195l-18 -60c-17 -51 -8 -95 29 -95v-56h-170
v56c47 0 77 43 107 131l185 563h26l185 -567c27 -80 59 -127 106 -127v-56h-267zM269 518l-75 -244h150z" />
    <glyph glyph-name="Ccedilla" unicode="&#xc7;" horiz-adv-x="569" 
d="M161 410c0 -184 74 -306 184 -306c70 0 130 42 155 104l38 -14c-27 -117 -126 -214 -251 -214l-16 -40c14 9 29 13 42 13c33 0 58 -27 58 -72c0 -65 -55 -98 -104 -98c-43 0 -82 27 -71 81l37 18c-4 -35 13 -51 31 -51c20 0 42 19 42 55c0 23 -8 33 -19 33
c-8 0 -19 -6 -29 -16l-29 14l22 66c-134 22 -220 168 -220 379c0 233 107 388 276 388c146 0 235 -113 224 -283l-137 -36v24c29 139 -4 231 -82 231c-90 0 -151 -111 -151 -276z" />
    <glyph glyph-name="Egrave" unicode="&#xc8;" horiz-adv-x="476" 
d="M307 821v-22c-84 0 -147 60 -152 151l85 -12c1 -66 32 -117 67 -117zM21 0v56c26 0 43 27 43 67v484c0 40 -17 67 -43 67v56h318c24 0 45 12 51 30h22l33 -241l-31 -21c-35 121 -71 168 -111 168h-108v-269h82c25 0 41 22 41 56h34v-176h-34c0 34 -16 56 -41 56h-82v-269
h113c46 0 93 51 135 172l32 -21l-58 -245h-22c-6 18 -26 30 -51 30h-323z" />
    <glyph glyph-name="Eacute" unicode="&#xc9;" horiz-adv-x="476" 
d="M155 821c36 0 66 51 68 117l84 12c-4 -91 -67 -151 -152 -151v22zM21 0v56c26 0 43 27 43 67v484c0 40 -17 67 -43 67v56h318c24 0 45 12 51 30h22l33 -241l-31 -21c-35 121 -71 168 -111 168h-108v-269h82c25 0 41 22 41 56h34v-176h-34c0 34 -16 56 -41 56h-82v-269
h113c46 0 93 51 135 172l32 -21l-58 -245h-22c-6 18 -26 30 -51 30h-323z" />
    <glyph glyph-name="Ecircumflex" unicode="&#xca;" horiz-adv-x="476" 
d="M113 839l96 126h45l96 -126l-27 -44c-41 9 -71 64 -90 146h-3c-19 -82 -49 -137 -90 -146zM21 0v56c26 0 43 27 43 67v484c0 40 -17 67 -43 67v56h318c24 0 45 12 51 30h22l33 -241l-31 -21c-35 121 -71 168 -111 168h-108v-269h82c25 0 41 22 41 56h34v-176h-34
c0 34 -16 56 -41 56h-82v-269h113c46 0 93 51 135 172l32 -21l-58 -245h-22c-6 18 -26 30 -51 30h-323z" />
    <glyph glyph-name="Edieresis" unicode="&#xcb;" horiz-adv-x="476" 
d="M118 880c0 39 18 65 46 65s46 -26 46 -65c0 -40 -18 -66 -46 -66s-46 26 -46 66zM251 880c0 39 18 65 46 65s46 -26 46 -65c0 -40 -18 -66 -46 -66s-46 26 -46 66zM21 0v56c26 0 43 27 43 67v484c0 40 -17 67 -43 67v56h318c24 0 45 12 51 30h22l33 -241l-31 -21
c-35 121 -71 168 -111 168h-108v-269h82c25 0 41 22 41 56h34v-176h-34c0 34 -16 56 -41 56h-82v-269h113c46 0 93 51 135 172l32 -21l-58 -245h-22c-6 18 -26 30 -51 30h-323z" />
    <glyph glyph-name="Igrave" unicode="&#xcc;" horiz-adv-x="258" 
d="M206 821v-22c-84 0 -147 60 -152 151l85 -12c1 -66 32 -117 67 -117zM21 0v56c26 0 43 27 43 67v484c0 40 -17 67 -43 67v56h218v-56c-27 0 -44 -27 -44 -67v-484c0 -40 17 -67 44 -67v-56h-218z" />
    <glyph glyph-name="Iacute" unicode="&#xcd;" horiz-adv-x="258" 
d="M55 821c36 0 66 51 68 117l84 12c-4 -91 -67 -151 -152 -151v22zM21 0v56c26 0 43 27 43 67v484c0 40 -17 67 -43 67v56h218v-56c-27 0 -44 -27 -44 -67v-484c0 -40 17 -67 44 -67v-56h-218z" />
    <glyph glyph-name="Yacute" unicode="&#xdd;" horiz-adv-x="568" 
d="M211 821c36 0 66 51 68 117l84 12c-4 -91 -67 -151 -152 -151v22zM260 730v-56c-32 0 -46 -40 -35 -72l109 -266l112 271c11 28 -8 67 -38 67v56h150v-56c-24 0 -47 -26 -65 -68l-143 -345v-138c0 -40 18 -67 44 -67v-56h-218v56c26 0 44 27 44 67v141l-140 335
c-20 46 -41 75 -68 75v56h248z" />
    <glyph glyph-name="Udieresis" unicode="&#xdc;" horiz-adv-x="544" 
d="M221 880c0 39 18 65 46 65s46 -26 46 -65c0 -40 -18 -66 -46 -66s-46 26 -46 66zM354 880c0 39 18 65 46 65s46 -26 46 -65c0 -40 -18 -66 -46 -66s-46 26 -46 66zM21 730h218v-56c-27 0 -44 -27 -44 -66v-369c0 -117 48 -195 118 -195c74 0 123 85 123 214v350
c0 39 -18 66 -44 66v56h132v-56c-26 0 -44 -27 -44 -67v-353c0 -165 -79 -274 -207 -274c-122 0 -209 102 -209 256v371c0 40 -17 67 -43 67v56z" />
    <glyph glyph-name="Ucircumflex" unicode="&#xdb;" horiz-adv-x="544" 
d="M216 839l96 126h45l96 -126l-27 -44c-41 9 -71 64 -90 146h-3c-19 -82 -49 -137 -90 -146zM21 730h218v-56c-27 0 -44 -27 -44 -66v-369c0 -117 48 -195 118 -195c74 0 123 85 123 214v350c0 39 -18 66 -44 66v56h132v-56c-26 0 -44 -27 -44 -67v-353
c0 -165 -79 -274 -207 -274c-122 0 -209 102 -209 256v371c0 40 -17 67 -43 67v56z" />
    <glyph glyph-name="Uacute" unicode="&#xda;" horiz-adv-x="544" 
d="M259 821c36 0 66 51 68 117l84 12c-4 -91 -67 -151 -152 -151v22zM21 730h218v-56c-27 0 -44 -27 -44 -66v-369c0 -117 48 -195 118 -195c74 0 123 85 123 214v350c0 39 -18 66 -44 66v56h132v-56c-26 0 -44 -27 -44 -67v-353c0 -165 -79 -274 -207 -274
c-122 0 -209 102 -209 256v371c0 40 -17 67 -43 67v56z" />
    <glyph glyph-name="Ugrave" unicode="&#xd9;" horiz-adv-x="544" 
d="M410 821v-22c-84 0 -147 60 -152 151l85 -12c1 -66 32 -117 67 -117zM21 730h218v-56c-27 0 -44 -27 -44 -66v-369c0 -117 48 -195 118 -195c74 0 123 85 123 214v350c0 39 -18 66 -44 66v56h132v-56c-26 0 -44 -27 -44 -67v-353c0 -165 -79 -274 -207 -274
c-122 0 -209 102 -209 256v371c0 40 -17 67 -43 67v56z" />
    <glyph glyph-name="Odieresis" unicode="&#xd6;" horiz-adv-x="594" 
d="M185 880c0 39 18 65 46 65s46 -26 46 -65c0 -40 -18 -66 -46 -66s-46 26 -46 66zM318 880c0 39 18 65 46 65s46 -26 46 -65c0 -40 -18 -66 -46 -66s-46 26 -46 66zM31 365c0 231 106 385 266 385s266 -154 266 -385s-106 -385 -266 -385s-266 154 -266 385zM162 357
c16 -187 79 -313 160 -313c83 0 129 130 110 330c-17 186 -80 312 -160 312c-82 0 -128 -130 -110 -329z" />
    <glyph glyph-name="Otilde" unicode="&#xd5;" horiz-adv-x="594" 
d="M235 816l-61 19c0 69 23 116 57 116c42 0 68 -71 98 -71c20 0 26 33 26 71l60 -19c0 -67 -22 -116 -55 -116c-40 0 -64 71 -95 71c-20 0 -30 -28 -30 -71zM31 365c0 231 106 385 266 385s266 -154 266 -385s-106 -385 -266 -385s-266 154 -266 385zM162 357
c16 -187 79 -313 160 -313c83 0 129 130 110 330c-17 186 -80 312 -160 312c-82 0 -128 -130 -110 -329z" />
    <glyph glyph-name="Ocircumflex" unicode="&#xd4;" horiz-adv-x="594" 
d="M179 839l96 126h45l96 -126l-27 -44c-41 9 -71 64 -90 146h-3c-19 -82 -49 -137 -90 -146zM31 365c0 231 106 385 266 385s266 -154 266 -385s-106 -385 -266 -385s-266 154 -266 385zM162 357c16 -187 79 -313 160 -313c83 0 129 130 110 330c-17 186 -80 312 -160 312
c-82 0 -128 -130 -110 -329z" />
    <glyph glyph-name="Oacute" unicode="&#xd3;" horiz-adv-x="594" 
d="M222 821c36 0 66 51 68 117l84 12c-4 -91 -67 -151 -152 -151v22zM31 365c0 231 106 385 266 385s266 -154 266 -385s-106 -385 -266 -385s-266 154 -266 385zM162 357c16 -187 79 -313 160 -313c83 0 129 130 110 330c-17 186 -80 312 -160 312
c-82 0 -128 -130 -110 -329z" />
    <glyph glyph-name="Ograve" unicode="&#xd2;" horiz-adv-x="594" 
d="M373 821v-22c-84 0 -147 60 -152 151l85 -12c1 -66 32 -117 67 -117zM31 365c0 231 106 385 266 385s266 -154 266 -385s-106 -385 -266 -385s-266 154 -266 385zM162 357c16 -187 79 -313 160 -313c83 0 129 130 110 330c-17 186 -80 312 -160 312
c-82 0 -128 -130 -110 -329z" />
    <glyph glyph-name="Ntilde" unicode="&#xd1;" horiz-adv-x="535" 
d="M205 816l-61 19c0 69 23 116 57 116c42 0 68 -71 98 -71c20 0 26 33 26 71l60 -19c0 -67 -22 -116 -55 -116c-40 0 -64 71 -95 71c-20 0 -30 -28 -30 -71zM21 0v56c26 0 43 27 43 67v484c0 40 -17 67 -43 67v56h108l298 -489v366c0 40 -17 67 -44 67v56h132v-56
c-26 0 -43 -27 -43 -67v-627h-26l-337 542v-399c0 -40 18 -67 44 -67v-56h-132z" />
    <glyph glyph-name="Idieresis" unicode="&#xcf;" horiz-adv-x="258" 
d="M17 880c0 39 18 65 46 65s46 -26 46 -65c0 -40 -18 -66 -46 -66s-46 26 -46 66zM150 880c0 39 18 65 46 65s46 -26 46 -65c0 -40 -18 -66 -46 -66s-46 26 -46 66zM21 0v56c26 0 43 27 43 67v484c0 40 -17 67 -43 67v56h218v-56c-27 0 -44 -27 -44 -67v-484
c0 -40 17 -67 44 -67v-56h-218z" />
    <glyph glyph-name="Icircumflex" unicode="&#xce;" horiz-adv-x="258" 
d="M12 839l96 126h45l96 -126l-27 -44c-41 9 -71 64 -90 146h-3c-19 -82 -49 -137 -90 -146zM21 0v56c26 0 43 27 43 67v484c0 40 -17 67 -43 67v56h218v-56c-27 0 -44 -27 -44 -67v-484c0 -40 17 -67 44 -67v-56h-218z" />
    <glyph glyph-name="agrave" unicode="&#xe0;" horiz-adv-x="505" 
d="M297 591v-22c-84 0 -147 60 -152 151l85 -12c1 -66 32 -117 67 -117zM158 314l-109 -31c-27 138 48 237 182 237c120 0 195 -76 195 -191v-219c0 -34 8 -51 21 -51c9 0 22 11 31 27l20 -40c-20 -39 -61 -66 -106 -66c-50 0 -83 34 -83 85v34l-3 3
c-24 -76 -79 -122 -150 -122c-80 0 -132 52 -132 135c0 192 285 104 285 230v20c0 58 -33 98 -84 98c-55 0 -83 -55 -67 -125v-24zM309 279c-44 -61 -168 -42 -168 -145c0 -44 19 -78 61 -78c62 0 107 73 107 157v35l3 29z" />
    <glyph glyph-name="aacute" unicode="&#xe1;" horiz-adv-x="505" 
d="M146 591c36 0 66 51 68 117l84 12c-4 -91 -67 -151 -152 -151v22zM158 314l-109 -31c-27 138 48 237 182 237c120 0 195 -76 195 -191v-219c0 -34 8 -51 21 -51c9 0 22 11 31 27l20 -40c-20 -39 -61 -66 -106 -66c-50 0 -83 34 -83 85v34l-3 3
c-24 -76 -79 -122 -150 -122c-80 0 -132 52 -132 135c0 192 285 104 285 230v20c0 58 -33 98 -84 98c-55 0 -83 -55 -67 -125v-24zM309 279c-44 -61 -168 -42 -168 -145c0 -44 19 -78 61 -78c62 0 107 73 107 157v35l3 29z" />
    <glyph glyph-name="acircumflex" unicode="&#xe2;" horiz-adv-x="505" 
d="M103 609l96 126h45l96 -126l-27 -44c-41 9 -71 64 -90 146h-3c-19 -82 -49 -137 -90 -146zM158 314l-109 -31c-27 138 48 237 182 237c120 0 195 -76 195 -191v-219c0 -34 8 -51 21 -51c9 0 22 11 31 27l20 -40c-20 -39 -61 -66 -106 -66c-50 0 -83 34 -83 85v34l-3 3
c-24 -76 -79 -122 -150 -122c-80 0 -132 52 -132 135c0 192 285 104 285 230v20c0 58 -33 98 -84 98c-55 0 -83 -55 -67 -125v-24zM309 279c-44 -61 -168 -42 -168 -145c0 -44 19 -78 61 -78c62 0 107 73 107 157v35l3 29z" />
    <glyph glyph-name="atilde" unicode="&#xe3;" horiz-adv-x="505" 
d="M159 586l-61 19c0 69 23 116 57 116c42 0 68 -71 98 -71c20 0 26 33 26 71l60 -19c0 -67 -22 -116 -55 -116c-40 0 -64 71 -95 71c-20 0 -30 -28 -30 -71zM158 314l-109 -31c-27 138 48 237 182 237c120 0 195 -76 195 -191v-219c0 -34 8 -51 21 -51c9 0 22 11 31 27
l20 -40c-20 -39 -61 -66 -106 -66c-50 0 -83 34 -83 85v34l-3 3c-24 -76 -79 -122 -150 -122c-80 0 -132 52 -132 135c0 192 285 104 285 230v20c0 58 -33 98 -84 98c-55 0 -83 -55 -67 -125v-24zM309 279c-44 -61 -168 -42 -168 -145c0 -44 19 -78 61 -78
c62 0 107 73 107 157v35l3 29z" />
    <glyph glyph-name="adieresis" unicode="&#xe4;" horiz-adv-x="505" 
d="M109 650c0 39 18 65 46 65s46 -26 46 -65c0 -40 -18 -66 -46 -66s-46 26 -46 66zM242 650c0 39 18 65 46 65s46 -26 46 -65c0 -40 -18 -66 -46 -66s-46 26 -46 66zM158 314l-109 -31c-27 138 48 237 182 237c120 0 195 -76 195 -191v-219c0 -34 8 -51 21 -51
c9 0 22 11 31 27l20 -40c-20 -39 -61 -66 -106 -66c-50 0 -83 34 -83 85v34l-3 3c-24 -76 -79 -122 -150 -122c-80 0 -132 52 -132 135c0 192 285 104 285 230v20c0 58 -33 98 -84 98c-55 0 -83 -55 -67 -125v-24zM309 279c-44 -61 -168 -42 -168 -145c0 -44 19 -78 61 -78
c62 0 107 73 107 157v35l3 29z" />
    <glyph glyph-name="aring" unicode="&#xe5;" horiz-adv-x="505" 
d="M154 680c0 57 27 95 68 95c39 0 66 -38 66 -95c0 -58 -27 -96 -66 -96c-41 0 -68 38 -68 96zM177 680c0 -38 18 -64 45 -64c26 0 43 26 43 64c0 37 -17 63 -43 63c-27 0 -45 -26 -45 -63zM158 314l-109 -31c-27 138 48 237 182 237c120 0 195 -76 195 -191v-219
c0 -34 8 -51 21 -51c9 0 22 11 31 27l20 -40c-20 -39 -61 -66 -106 -66c-50 0 -83 34 -83 85v34l-3 3c-24 -76 -79 -122 -150 -122c-80 0 -132 52 -132 135c0 192 285 104 285 230v20c0 58 -33 98 -84 98c-55 0 -83 -55 -67 -125v-24zM309 279c-44 -61 -168 -42 -168 -145
c0 -44 19 -78 61 -78c62 0 107 73 107 157v35l3 29z" />
    <glyph glyph-name="ccedilla" unicode="&#xe7;" horiz-adv-x="435" 
d="M139 284c0 -123 53 -199 131 -199c55 0 98 37 116 93l38 -14c-20 -112 -91 -184 -207 -184l-16 -40c14 9 29 13 42 13c33 0 58 -27 58 -72c0 -65 -55 -98 -104 -98c-43 0 -82 27 -71 81l37 18c-4 -35 13 -51 31 -51c20 0 42 19 42 55c0 23 -8 33 -19 33
c-8 0 -19 -6 -29 -16l-29 14l23 68c-98 24 -160 124 -160 264c0 163 83 271 214 271c109 0 179 -74 168 -186l-111 -23v24c14 76 -8 128 -58 128c-58 0 -96 -76 -96 -179z" />
    <glyph glyph-name="egrave" unicode="&#xe8;" 
d="M301 591v-22c-84 0 -147 60 -152 151l85 -12c1 -66 32 -117 67 -117zM386 178l38 -14c-20 -112 -96 -184 -196 -184c-124 0 -206 108 -206 270s80 270 202 270c115 0 194 -89 201 -225v-19l-284 34c-1 -18 -1 -35 0 -53c7 -104 57 -172 129 -172c55 0 98 37 116 93z
M145 354l169 -21c-9 74 -42 130 -86 130c-41 0 -71 -42 -83 -109z" />
    <glyph glyph-name="eacute" unicode="&#xe9;" 
d="M150 591c36 0 66 51 68 117l84 12c-4 -91 -67 -151 -152 -151v22zM386 178l38 -14c-20 -112 -96 -184 -196 -184c-124 0 -206 108 -206 270s80 270 202 270c115 0 194 -89 201 -225v-19l-284 34c-1 -18 -1 -35 0 -53c7 -104 57 -172 129 -172c55 0 98 37 116 93zM145 354
l169 -21c-9 74 -42 130 -86 130c-41 0 -71 -42 -83 -109z" />
    <glyph glyph-name="ecircumflex" unicode="&#xea;" 
d="M107 609l96 126h45l96 -126l-27 -44c-41 9 -71 64 -90 146h-3c-19 -82 -49 -137 -90 -146zM386 178l38 -14c-20 -112 -96 -184 -196 -184c-124 0 -206 108 -206 270s80 270 202 270c115 0 194 -89 201 -225v-19l-284 34c-1 -18 -1 -35 0 -53c7 -104 57 -172 129 -172
c55 0 98 37 116 93zM145 354l169 -21c-9 74 -42 130 -86 130c-41 0 -71 -42 -83 -109z" />
    <glyph glyph-name="edieresis" unicode="&#xeb;" 
d="M113 650c0 39 18 65 46 65s46 -26 46 -65c0 -40 -18 -66 -46 -66s-46 26 -46 66zM246 650c0 39 18 65 46 65s46 -26 46 -65c0 -40 -18 -66 -46 -66s-46 26 -46 66zM386 178l38 -14c-20 -112 -96 -184 -196 -184c-124 0 -206 108 -206 270s80 270 202 270
c115 0 194 -89 201 -225v-19l-284 34c-1 -18 -1 -35 0 -53c7 -104 57 -172 129 -172c55 0 98 37 116 93zM145 354l169 -21c-9 74 -42 130 -86 130c-41 0 -71 -42 -83 -109z" />
    <glyph glyph-name="igrave" unicode="&#xec;" horiz-adv-x="212" 
d="M184 591v-22c-84 0 -147 60 -152 151l85 -12c1 -66 32 -117 67 -117zM14 455c46 0 92 25 115 65h39v-407c0 -34 14 -57 37 -57v-56h-191v56c22 0 37 23 37 57v229c0 34 -15 57 -37 57v56z" />
    <glyph glyph-name="iacute" unicode="&#xed;" horiz-adv-x="212" 
d="M33 591c36 0 66 51 68 117l84 12c-4 -91 -67 -151 -152 -151v22zM14 455c46 0 92 25 115 65h39v-407c0 -34 14 -57 37 -57v-56h-191v56c22 0 37 23 37 57v229c0 34 -15 57 -37 57v56z" />
    <glyph glyph-name="icircumflex" unicode="&#xee;" horiz-adv-x="212" 
d="M-11 609l97 126h45l96 -126l-27 -44c-41 9 -71 64 -90 146h-3c-19 -82 -49 -137 -90 -146zM14 455c46 0 92 25 115 65h39v-407c0 -34 14 -57 37 -57v-56h-191v56c22 0 37 23 37 57v229c0 34 -15 57 -37 57v56z" />
    <glyph glyph-name="ydieresis" unicode="&#xff;" horiz-adv-x="454" 
d="M126 650c0 39 18 65 46 65s46 -26 46 -65c0 -40 -18 -66 -46 -66s-46 26 -46 66zM259 650c0 39 18 65 46 65s46 -26 46 -65c0 -40 -18 -66 -46 -66s-46 26 -46 66zM152 138l-73 204c-24 61 -53 102 -71 102v56h197v-56c-27 0 -32 -34 -12 -87l74 -216l74 216
c21 53 16 87 -11 87v56h122v-56c-19 0 -47 -41 -72 -102l-158 -423c-45 -117 -87 -189 -166 -189c-72 0 -115 65 -92 161l113 34v-25c-24 -54 -16 -94 17 -94c32 0 56 45 66 98c5 45 -9 76 -32 76v14c33 50 39 108 24 144z" />
    <glyph glyph-name="yacute" unicode="&#xfd;" horiz-adv-x="454" 
d="M163 591c36 0 66 51 68 117l84 12c-4 -91 -67 -151 -152 -151v22zM152 138l-73 204c-24 61 -53 102 -71 102v56h197v-56c-27 0 -32 -34 -12 -87l74 -216l74 216c21 53 16 87 -11 87v56h122v-56c-19 0 -47 -41 -72 -102l-158 -423c-45 -117 -87 -189 -166 -189
c-72 0 -115 65 -92 161l113 34v-25c-24 -54 -16 -94 17 -94c32 0 56 45 66 98c5 45 -9 76 -32 76v14c33 50 39 108 24 144z" />
    <glyph glyph-name="udieresis" unicode="&#xfc;" horiz-adv-x="498" 
d="M143 650c0 39 18 65 46 65s46 -26 46 -65c0 -40 -18 -66 -46 -66s-46 26 -46 66zM276 650c0 39 18 65 46 65s46 -26 46 -65c0 -40 -18 -66 -46 -66s-46 26 -46 66zM490 45c-46 0 -92 -25 -115 -65h-39v95l3 32l-3 3c-27 -82 -79 -130 -147 -130c-83 0 -138 74 -138 184
v223c0 34 -15 57 -37 57v56h191v-56c-23 0 -37 -23 -37 -57v-224c0 -64 27 -107 71 -107c58 0 97 79 97 199v132c0 34 -15 57 -37 57v56h191v-56c-22 0 -37 -23 -37 -57v-229c0 -34 15 -57 37 -57v-56z" />
    <glyph glyph-name="ucircumflex" unicode="&#xfb;" horiz-adv-x="498" 
d="M138 609l96 126h45l96 -126l-27 -44c-41 9 -71 64 -90 146h-3c-19 -82 -49 -137 -90 -146zM490 45c-46 0 -92 -25 -115 -65h-39v95l3 32l-3 3c-27 -82 -79 -130 -147 -130c-83 0 -138 74 -138 184v223c0 34 -15 57 -37 57v56h191v-56c-23 0 -37 -23 -37 -57v-224
c0 -64 27 -107 71 -107c58 0 97 79 97 199v132c0 34 -15 57 -37 57v56h191v-56c-22 0 -37 -23 -37 -57v-229c0 -34 15 -57 37 -57v-56z" />
    <glyph glyph-name="uacute" unicode="&#xfa;" horiz-adv-x="498" 
d="M180 591c36 0 66 51 68 117l84 12c-4 -91 -67 -151 -152 -151v22zM490 45c-46 0 -92 -25 -115 -65h-39v95l3 32l-3 3c-27 -82 -79 -130 -147 -130c-83 0 -138 74 -138 184v223c0 34 -15 57 -37 57v56h191v-56c-23 0 -37 -23 -37 -57v-224c0 -64 27 -107 71 -107
c58 0 97 79 97 199v132c0 34 -15 57 -37 57v56h191v-56c-22 0 -37 -23 -37 -57v-229c0 -34 15 -57 37 -57v-56z" />
    <glyph glyph-name="ugrave" unicode="&#xf9;" horiz-adv-x="498" 
d="M332 591v-22c-84 0 -147 60 -152 151l85 -12c1 -66 32 -117 67 -117zM490 45c-46 0 -92 -25 -115 -65h-39v95l3 32l-3 3c-27 -82 -79 -130 -147 -130c-83 0 -138 74 -138 184v223c0 34 -15 57 -37 57v56h191v-56c-23 0 -37 -23 -37 -57v-224c0 -64 27 -107 71 -107
c58 0 97 79 97 199v132c0 34 -15 57 -37 57v56h191v-56c-22 0 -37 -23 -37 -57v-229c0 -34 15 -57 37 -57v-56z" />
    <glyph glyph-name="odieresis" unicode="&#xf6;" horiz-adv-x="467" 
d="M121 650c0 39 18 65 46 65s46 -26 46 -65c0 -40 -18 -66 -46 -66s-46 26 -46 66zM254 650c0 39 18 65 46 65s46 -26 46 -65c0 -40 -18 -66 -46 -66s-46 26 -46 66zM22 250c0 162 85 270 212 270s211 -108 211 -270s-84 -270 -211 -270s-212 108 -212 270zM141 242
c11 -119 54 -204 111 -204s89 85 75 220c-12 120 -55 205 -112 205c-56 0 -89 -85 -74 -221z" />
    <glyph glyph-name="otilde" unicode="&#xf5;" horiz-adv-x="467" 
d="M172 586l-61 19c0 69 23 116 57 116c42 0 68 -71 98 -71c20 0 26 33 26 71l60 -19c0 -67 -22 -116 -55 -116c-40 0 -64 71 -95 71c-20 0 -30 -28 -30 -71zM22 250c0 162 85 270 212 270s211 -108 211 -270s-84 -270 -211 -270s-212 108 -212 270zM141 242
c11 -119 54 -204 111 -204s89 85 75 220c-12 120 -55 205 -112 205c-56 0 -89 -85 -74 -221z" />
    <glyph glyph-name="ocircumflex" unicode="&#xf4;" horiz-adv-x="467" 
d="M115 609l96 126h45l96 -126l-27 -44c-41 9 -71 64 -90 146h-3c-19 -82 -49 -137 -90 -146zM22 250c0 162 85 270 212 270s211 -108 211 -270s-84 -270 -211 -270s-212 108 -212 270zM141 242c11 -119 54 -204 111 -204s89 85 75 220c-12 120 -55 205 -112 205
c-56 0 -89 -85 -74 -221z" />
    <glyph glyph-name="oacute" unicode="&#xf3;" horiz-adv-x="467" 
d="M158 591c36 0 66 51 68 117l84 12c-4 -91 -67 -151 -152 -151v22zM22 250c0 162 85 270 212 270s211 -108 211 -270s-84 -270 -211 -270s-212 108 -212 270zM141 242c11 -119 54 -204 111 -204s89 85 75 220c-12 120 -55 205 -112 205c-56 0 -89 -85 -74 -221z" />
    <glyph glyph-name="ograve" unicode="&#xf2;" horiz-adv-x="467" 
d="M309 591v-22c-84 0 -147 60 -152 151l85 -12c1 -66 32 -117 67 -117zM22 250c0 162 85 270 212 270s211 -108 211 -270s-84 -270 -211 -270s-212 108 -212 270zM141 242c11 -119 54 -204 111 -204s89 85 75 220c-12 120 -55 205 -112 205c-56 0 -89 -85 -74 -221z" />
    <glyph glyph-name="ntilde" unicode="&#xf1;" horiz-adv-x="498" 
d="M190 586l-61 19c0 69 23 116 57 116c42 0 68 -71 98 -71c20 0 26 33 26 71l60 -19c0 -67 -22 -116 -55 -116c-40 0 -64 71 -95 71c-20 0 -30 -28 -30 -71zM14 455c46 0 92 25 115 65h39v-95l-3 -32l3 -2c27 81 79 129 147 129c82 0 138 -74 138 -184v-223
c0 -34 15 -57 37 -57v-56h-191v56c22 0 37 23 37 57v224c0 64 -27 107 -71 107c-58 0 -97 -79 -97 -199v-132c0 -34 14 -57 37 -57v-56h-191v56c22 0 37 23 37 57v229c0 34 -15 57 -37 57v56z" />
    <glyph glyph-name="idieresis" unicode="&#xef;" horiz-adv-x="212" 
d="M-4 650c0 39 18 65 46 65s46 -26 46 -65c0 -40 -18 -66 -46 -66s-46 26 -46 66zM129 650c0 39 18 65 46 65s46 -26 46 -65c0 -40 -18 -66 -46 -66s-46 26 -46 66zM14 455c46 0 92 25 115 65h39v-407c0 -34 14 -57 37 -57v-56h-191v56c22 0 37 23 37 57v229
c0 34 -15 57 -37 57v56z" />
    <glyph glyph-name="Amacron" unicode="&#x100;" horiz-adv-x="634" 
d="M195 878h210v-58h-210v58zM355 0v56c37 0 45 43 29 95l-17 60h-195l-18 -60c-17 -51 -8 -95 29 -95v-56h-170v56c47 0 77 43 107 131l185 563h26l185 -567c27 -80 59 -127 106 -127v-56h-267zM269 518l-75 -244h150z" />
    <glyph glyph-name="amacron" unicode="&#x101;" horiz-adv-x="505" 
d="M116 648h210v-58h-210v58zM158 314l-109 -31c-27 138 48 237 182 237c120 0 195 -76 195 -191v-219c0 -34 8 -51 21 -51c9 0 22 11 31 27l20 -40c-20 -39 -61 -66 -106 -66c-50 0 -83 34 -83 85v34l-3 3c-24 -76 -79 -122 -150 -122c-80 0 -132 52 -132 135
c0 192 285 104 285 230v20c0 58 -33 98 -84 98c-55 0 -83 -55 -67 -125v-24zM309 279c-44 -61 -168 -42 -168 -145c0 -44 19 -78 61 -78c62 0 107 73 107 157v35l3 29z" />
    <glyph glyph-name="Abreve" unicode="&#x102;" horiz-adv-x="634" 
d="M191 944l39 12c0 -69 24 -111 58 -111c36 0 60 42 60 111l62 -12c0 -78 -44 -134 -109 -134c-66 0 -110 56 -110 134zM355 0v56c37 0 45 43 29 95l-17 60h-195l-18 -60c-17 -51 -8 -95 29 -95v-56h-170v56c47 0 77 43 107 131l185 563h26l185 -567
c27 -80 59 -127 106 -127v-56h-267zM269 518l-75 -244h150z" />
    <glyph glyph-name="abreve" unicode="&#x103;" horiz-adv-x="505" 
d="M112 714l39 12c0 -69 24 -111 58 -111c36 0 60 42 60 111l62 -12c0 -78 -44 -134 -109 -134c-66 0 -110 56 -110 134zM158 314l-109 -31c-27 138 48 237 182 237c120 0 195 -76 195 -191v-219c0 -34 8 -51 21 -51c9 0 22 11 31 27l20 -40c-20 -39 -61 -66 -106 -66
c-50 0 -83 34 -83 85v34l-3 3c-24 -76 -79 -122 -150 -122c-80 0 -132 52 -132 135c0 192 285 104 285 230v20c0 58 -33 98 -84 98c-55 0 -83 -55 -67 -125v-24zM309 279c-44 -61 -168 -42 -168 -145c0 -44 19 -78 61 -78c62 0 107 73 107 157v35l3 29z" />
    <glyph glyph-name="Aogonek" unicode="&#x104;" horiz-adv-x="634" 
d="M355 0v56c37 0 45 43 29 95l-17 60h-195l-18 -60c-17 -51 -8 -95 29 -95v-56h-170v56c47 0 77 43 107 131l185 563h26l185 -567c27 -80 59 -127 106 -127v-56h-267zM269 518l-75 -244h150zM745 0c-55 0 -91 -55 -91 -102c0 -24 10 -38 28 -38c21 0 52 20 87 62l15 -71
c-22 -37 -53 -55 -82 -55c-41 0 -77 34 -77 95c0 69 46 132 115 132z" />
    <glyph glyph-name="aogonek" unicode="&#x105;" horiz-adv-x="505" 
d="M158 314l-109 -31c-27 138 48 237 182 237c120 0 195 -76 195 -191v-219c0 -34 8 -51 21 -51c9 0 22 11 31 27l20 -40c-5 -9 -11 -18 -18 -25c7 1 14 2 21 2l5 -23c-55 0 -91 -55 -91 -102c0 -24 10 -38 28 -38c21 0 52 20 87 62l15 -71c-22 -37 -53 -55 -82 -55
c-41 0 -77 34 -77 95c0 35 11 68 32 92c-9 -2 -17 -3 -26 -3c-50 0 -83 34 -83 85v34l-3 3c-24 -76 -79 -122 -150 -122c-80 0 -132 52 -132 135c0 192 285 104 285 230v20c0 58 -33 98 -84 98c-55 0 -83 -55 -67 -125v-24zM309 279c-44 -61 -168 -42 -168 -145
c0 -44 19 -78 61 -78c62 0 107 73 107 157v35l3 29z" />
    <glyph glyph-name="Cacute" unicode="&#x106;" horiz-adv-x="569" 
d="M219 821c36 0 66 51 68 117l84 12c-4 -91 -67 -151 -152 -151v22zM161 410c0 -184 74 -306 184 -306c70 0 130 42 155 104l38 -14c-27 -117 -126 -214 -250 -214c-155 0 -257 153 -257 382c0 233 107 388 276 388c146 0 235 -113 224 -283l-137 -36v24
c29 139 -4 231 -82 231c-90 0 -151 -111 -151 -276z" />
    <glyph glyph-name="cacute" unicode="&#x107;" horiz-adv-x="435" 
d="M141 591c36 0 66 51 68 117l84 12c-4 -91 -67 -151 -152 -151v22zM139 284c0 -123 53 -199 131 -199c55 0 98 37 116 93l38 -14c-20 -112 -96 -184 -196 -184c-124 0 -206 108 -206 269c0 163 83 271 214 271c109 0 179 -74 168 -186l-111 -23v24c14 76 -8 128 -58 128
c-58 0 -96 -76 -96 -179z" />
    <glyph glyph-name="Ccircumflex" unicode="&#x108;" horiz-adv-x="569" 
d="M176 839l96 126h45l96 -126l-27 -44c-41 9 -71 64 -90 146h-3c-19 -82 -49 -137 -90 -146zM161 410c0 -184 74 -306 184 -306c70 0 130 42 155 104l38 -14c-27 -117 -126 -214 -250 -214c-155 0 -257 153 -257 382c0 233 107 388 276 388c146 0 235 -113 224 -283
l-137 -36v24c29 139 -4 231 -82 231c-90 0 -151 -111 -151 -276z" />
    <glyph glyph-name="ccircumflex" unicode="&#x109;" horiz-adv-x="435" 
d="M98 609l96 126h45l96 -126l-27 -44c-41 9 -71 64 -90 146h-3c-19 -82 -49 -137 -90 -146zM139 284c0 -123 53 -199 131 -199c55 0 98 37 116 93l38 -14c-20 -112 -96 -184 -196 -184c-124 0 -206 108 -206 269c0 163 83 271 214 271c109 0 179 -74 168 -186l-111 -23v24
c14 76 -8 128 -58 128c-58 0 -96 -76 -96 -179z" />
    <glyph glyph-name="Cdotaccent" unicode="&#x10a;" horiz-adv-x="569" 
d="M247 880c0 39 18 65 46 65s46 -26 46 -65c0 -40 -18 -66 -46 -66s-46 26 -46 66zM161 410c0 -184 74 -306 184 -306c70 0 130 42 155 104l38 -14c-27 -117 -126 -214 -250 -214c-155 0 -257 153 -257 382c0 233 107 388 276 388c146 0 235 -113 224 -283l-137 -36v24
c29 139 -4 231 -82 231c-90 0 -151 -111 -151 -276z" />
    <glyph glyph-name="cdotaccent" unicode="&#x10b;" horiz-adv-x="435" 
d="M169 650c0 39 18 65 46 65s46 -26 46 -65c0 -40 -18 -66 -46 -66s-46 26 -46 66zM139 284c0 -123 53 -199 131 -199c55 0 98 37 116 93l38 -14c-20 -112 -96 -184 -196 -184c-124 0 -206 108 -206 269c0 163 83 271 214 271c109 0 179 -74 168 -186l-111 -23v24
c14 76 -8 128 -58 128c-58 0 -96 -76 -96 -179z" />
    <glyph glyph-name="Ccaron" unicode="&#x10c;" horiz-adv-x="569" 
d="M175 921l27 44c41 -9 71 -64 90 -146h3c19 82 49 137 90 146l27 -44l-96 -126h-45zM161 410c0 -184 74 -306 184 -306c70 0 130 42 155 104l38 -14c-27 -117 -126 -214 -250 -214c-155 0 -257 153 -257 382c0 233 107 388 276 388c146 0 235 -113 224 -283l-137 -36v24
c29 139 -4 231 -82 231c-90 0 -151 -111 -151 -276z" />
    <glyph glyph-name="ccaron" unicode="&#x10d;" horiz-adv-x="435" 
d="M97 691l27 44c41 -9 71 -64 90 -146h3c19 82 49 137 90 146l27 -44l-96 -126h-45zM139 284c0 -123 53 -199 131 -199c55 0 98 37 116 93l38 -14c-20 -112 -96 -184 -196 -184c-124 0 -206 108 -206 269c0 163 83 271 214 271c109 0 179 -74 168 -186l-111 -23v24
c14 76 -8 128 -58 128c-58 0 -96 -76 -96 -179z" />
    <glyph glyph-name="Dcaron" unicode="&#x10e;" horiz-adv-x="590" 
d="M130 921l27 44c41 -9 71 -64 90 -146h3c19 82 49 137 90 146l27 -44l-96 -126h-45zM21 0v56c26 0 43 27 43 67v484c0 40 -17 67 -43 67v56h255c172 0 283 -146 283 -365s-110 -365 -281 -365h-257zM195 64h75c92 0 159 118 159 297c0 183 -64 305 -153 305h-81v-602z" />
    <glyph glyph-name="dcaron" unicode="&#x10f;" horiz-adv-x="584" 
d="M497 647c-14 8 -23 25 -23 49c0 33 18 56 44 56c27 0 45 -24 45 -66c0 -58 -28 -102 -71 -102l-7 22c9 0 17 3 22 8c14 8 7 24 -10 33zM292 685c46 0 92 25 115 65h39v-592c0 -34 15 -57 36 -57v-56c-46 0 -91 -25 -115 -65h-39v96l3 32l-3 2c-26 -81 -79 -130 -145 -130
c-97 0 -161 104 -161 259c0 169 80 281 201 281c44 0 81 -19 105 -50l3 2l-3 20v80c0 34 -14 57 -36 57v56zM328 255v98c0 65 -35 110 -83 110c-64 0 -106 -86 -106 -217c0 -114 36 -190 90 -190c57 0 99 80 99 199z" />
    <glyph glyph-name="gbreve" unicode="&#x11f;" horiz-adv-x="432" 
d="M55 714l39 12c0 -69 24 -111 58 -111c36 0 60 42 60 111l62 -12c0 -78 -44 -134 -109 -134c-66 0 -110 56 -110 134zM162 -270c-115 0 -155 58 -135 144l112 36v-25c-21 -62 -14 -104 43 -104s108 36 108 87c0 39 -28 64 -68 76l-78 24c-50 14 -84 19 -84 68
c0 46 32 77 67 97c-66 28 -107 95 -107 187c0 120 70 200 176 200c32 0 61 -7 85 -21c-3 123 42 201 109 201c62 0 83 -65 58 -162l-55 -18v25c12 48 4 79 -24 79c-37 0 -65 -56 -60 -144c40 -35 63 -91 63 -160c0 -120 -71 -200 -176 -200c-13 0 -25 2 -36 4
c-9 -8 -15 -19 -15 -32c0 -29 23 -32 54 -41l86 -23c70 -19 118 -56 118 -125c0 -103 -109 -173 -241 -173zM267 326c-8 87 -40 149 -83 149s-69 -62 -59 -161c8 -87 40 -149 83 -149s68 62 59 161z" />
    <glyph glyph-name="Gbreve" unicode="&#x11e;" horiz-adv-x="584" 
d="M181 944l39 12c0 -69 24 -111 58 -111c36 0 60 42 60 111l62 -12c0 -78 -44 -134 -109 -134c-66 0 -110 56 -110 134zM392 462v24c28 108 -4 200 -82 200c-89 0 -149 -121 -149 -311c0 -199 66 -331 171 -331c26 0 51 14 70 38v125c0 39 -19 60 -73 60
c-13 0 -29 -1 -47 -4v37l294 81v-37c-26 -12 -43 -41 -43 -71v-125c-47 -114 -152 -168 -240 -168c-158 0 -262 153 -262 382c0 233 107 388 275 388c145 0 229 -113 223 -252z" />
    <glyph glyph-name="gcircumflex" unicode="&#x11d;" horiz-adv-x="432" 
d="M46 609l96 126h45l96 -126l-27 -44c-41 9 -71 64 -90 146h-3c-19 -82 -49 -137 -90 -146zM162 -270c-115 0 -155 58 -135 144l112 36v-25c-21 -62 -14 -104 43 -104s108 36 108 87c0 39 -28 64 -68 76l-78 24c-50 14 -84 19 -84 68c0 46 32 77 67 97
c-66 28 -107 95 -107 187c0 120 70 200 176 200c32 0 61 -7 85 -21c-3 123 42 201 109 201c62 0 83 -65 58 -162l-55 -18v25c12 48 4 79 -24 79c-37 0 -65 -56 -60 -144c40 -35 63 -91 63 -160c0 -120 -71 -200 -176 -200c-13 0 -25 2 -36 4c-9 -8 -15 -19 -15 -32
c0 -29 23 -32 54 -41l86 -23c70 -19 118 -56 118 -125c0 -103 -109 -173 -241 -173zM267 326c-8 87 -40 149 -83 149s-69 -62 -59 -161c8 -87 40 -149 83 -149s68 62 59 161z" />
    <glyph glyph-name="Gcircumflex" unicode="&#x11c;" horiz-adv-x="584" 
d="M172 839l96 126h45l96 -126l-27 -44c-41 9 -71 64 -90 146h-3c-19 -82 -49 -137 -90 -146zM392 462v24c28 108 -4 200 -82 200c-89 0 -149 -121 -149 -311c0 -199 66 -331 171 -331c26 0 51 14 70 38v125c0 39 -19 60 -73 60c-13 0 -29 -1 -47 -4v37l294 81v-37
c-26 -12 -43 -41 -43 -71v-125c-47 -114 -152 -168 -240 -168c-158 0 -262 153 -262 382c0 233 107 388 275 388c145 0 229 -113 223 -252z" />
    <glyph glyph-name="ecaron" unicode="&#x11b;" 
d="M106 691l27 44c41 -9 71 -64 90 -146h3c19 82 49 137 90 146l27 -44l-96 -126h-45zM386 178l38 -14c-20 -112 -96 -184 -196 -184c-124 0 -206 108 -206 270s80 270 202 270c115 0 194 -89 201 -225v-19l-284 34c-1 -18 -1 -35 0 -53c7 -104 57 -172 129 -172
c55 0 98 37 116 93zM145 354l169 -21c-9 74 -42 130 -86 130c-41 0 -71 -42 -83 -109z" />
    <glyph glyph-name="Ecaron" unicode="&#x11a;" horiz-adv-x="476" 
d="M111 921l27 44c41 -9 71 -64 90 -146h3c19 82 49 137 90 146l27 -44l-96 -126h-45zM21 0v56c26 0 43 27 43 67v484c0 40 -17 67 -43 67v56h318c24 0 45 12 51 30h22l33 -241l-31 -21c-35 121 -71 168 -111 168h-108v-269h82c25 0 41 22 41 56h34v-176h-34
c0 34 -16 56 -41 56h-82v-269h113c46 0 93 51 135 172l32 -21l-58 -245h-22c-6 18 -26 30 -51 30h-323z" />
    <glyph glyph-name="eogonek" unicode="&#x119;" 
d="M386 178l38 -14c-12 -68 -45 -121 -91 -152l3 -12c-55 0 -91 -55 -91 -102c0 -24 10 -38 28 -38c21 0 52 20 87 62l15 -71c-22 -37 -53 -55 -82 -55c-41 0 -77 34 -77 95c0 34 11 66 30 90c-6 -1 -12 -1 -18 -1c-124 0 -206 108 -206 270s80 270 202 270
c115 0 194 -89 201 -225v-19l-284 34c-1 -18 -1 -35 0 -53c7 -104 57 -172 129 -172c55 0 98 37 116 93zM145 354l169 -21c-9 74 -42 130 -86 130c-41 0 -71 -42 -83 -109z" />
    <glyph glyph-name="Eogonek" unicode="&#x118;" horiz-adv-x="476" 
d="M21 0v56c26 0 43 27 43 67v484c0 40 -17 67 -43 67v56h318c24 0 45 12 51 30h22l33 -241l-31 -21c-35 121 -71 168 -111 168h-108v-269h82c25 0 41 22 41 56h34v-176h-34c0 34 -16 56 -41 56h-82v-269h113c46 0 93 51 135 172l32 -21l-47 -195c8 1 17 3 26 3l5 -23
c-14 0 -26 -3 -37 -9l-5 -21h-21c-18 -20 -28 -47 -28 -72c0 -24 10 -38 28 -38c21 0 52 20 87 62l15 -71c-22 -37 -53 -55 -82 -55c-41 0 -77 34 -77 95c0 39 14 75 39 100c-9 6 -21 9 -34 9h-323z" />
    <glyph glyph-name="edotaccent" unicode="&#x117;" 
d="M179 650c0 39 18 65 46 65s46 -26 46 -65c0 -40 -18 -66 -46 -66s-46 26 -46 66zM386 178l38 -14c-20 -112 -96 -184 -196 -184c-124 0 -206 108 -206 270s80 270 202 270c115 0 194 -89 201 -225v-19l-284 34c-1 -18 -1 -35 0 -53c7 -104 57 -172 129 -172
c55 0 98 37 116 93zM145 354l169 -21c-9 74 -42 130 -86 130c-41 0 -71 -42 -83 -109z" />
    <glyph glyph-name="Edotaccent" unicode="&#x116;" horiz-adv-x="476" 
d="M184 880c0 39 18 65 46 65s46 -26 46 -65c0 -40 -18 -66 -46 -66s-46 26 -46 66zM21 0v56c26 0 43 27 43 67v484c0 40 -17 67 -43 67v56h318c24 0 45 12 51 30h22l33 -241l-31 -21c-35 121 -71 168 -111 168h-108v-269h82c25 0 41 22 41 56h34v-176h-34
c0 34 -16 56 -41 56h-82v-269h113c46 0 93 51 135 172l32 -21l-58 -245h-22c-6 18 -26 30 -51 30h-323z" />
    <glyph glyph-name="ebreve" unicode="&#x115;" 
d="M116 714l39 12c0 -69 24 -111 58 -111c36 0 60 42 60 111l62 -12c0 -78 -44 -134 -109 -134c-66 0 -110 56 -110 134zM386 178l38 -14c-20 -112 -96 -184 -196 -184c-124 0 -206 108 -206 270s80 270 202 270c115 0 194 -89 201 -225v-19l-284 34c-1 -18 -1 -35 0 -53
c7 -104 57 -172 129 -172c55 0 98 37 116 93zM145 354l169 -21c-9 74 -42 130 -86 130c-41 0 -71 -42 -83 -109z" />
    <glyph glyph-name="Ebreve" unicode="&#x114;" horiz-adv-x="476" 
d="M121 944l39 12c0 -69 24 -111 58 -111c36 0 60 42 60 111l62 -12c0 -78 -44 -134 -109 -134c-66 0 -110 56 -110 134zM21 0v56c26 0 43 27 43 67v484c0 40 -17 67 -43 67v56h318c24 0 45 12 51 30h22l33 -241l-31 -21c-35 121 -71 168 -111 168h-108v-269h82
c25 0 41 22 41 56h34v-176h-34c0 34 -16 56 -41 56h-82v-269h113c46 0 93 51 135 172l32 -21l-58 -245h-22c-6 18 -26 30 -51 30h-323z" />
    <glyph glyph-name="emacron" unicode="&#x113;" 
d="M120 648h210v-58h-210v58zM386 178l38 -14c-20 -112 -96 -184 -196 -184c-124 0 -206 108 -206 270s80 270 202 270c115 0 194 -89 201 -225v-19l-284 34c-1 -18 -1 -35 0 -53c7 -104 57 -172 129 -172c55 0 98 37 116 93zM145 354l169 -21c-9 74 -42 130 -86 130
c-41 0 -71 -42 -83 -109z" />
    <glyph glyph-name="Emacron" unicode="&#x112;" horiz-adv-x="476" 
d="M125 878h210v-58h-210v58zM21 0v56c26 0 43 27 43 67v484c0 40 -17 67 -43 67v56h318c24 0 45 12 51 30h22l33 -241l-31 -21c-35 121 -71 168 -111 168h-108v-269h82c25 0 41 22 41 56h34v-176h-34c0 34 -16 56 -41 56h-82v-269h113c46 0 93 51 135 172l32 -21l-58 -245
h-22c-6 18 -26 30 -51 30h-323z" />
    <glyph glyph-name="dcroat" unicode="&#x111;" horiz-adv-x="492" 
d="M293 685c46 0 92 25 115 65h39v-181h50v-32h-50v-379c0 -34 15 -57 37 -57v-56c-47 0 -92 -25 -115 -65h-39v96l2 32l-2 2c-27 -81 -80 -130 -146 -130c-97 0 -161 104 -161 259c0 169 80 281 201 281c44 0 81 -19 106 -50l2 2l-2 20v45h-51v32h51v3c0 34 -15 57 -37 57
v56zM330 255v98c0 65 -36 110 -84 110c-64 0 -106 -86 -106 -217c0 -114 36 -190 90 -190c58 0 100 80 100 199z" />
    <glyph glyph-name="Gdotaccent" unicode="&#x120;" horiz-adv-x="584" 
d="M244 880c0 39 18 65 46 65s46 -26 46 -65c0 -40 -18 -66 -46 -66s-46 26 -46 66zM392 462v24c28 108 -4 200 -82 200c-89 0 -149 -121 -149 -311c0 -199 66 -331 171 -331c26 0 51 14 70 38v125c0 39 -19 60 -73 60c-13 0 -29 -1 -47 -4v37l294 81v-37
c-26 -12 -43 -41 -43 -71v-125c-47 -114 -152 -168 -240 -168c-158 0 -262 153 -262 382c0 233 107 388 275 388c145 0 229 -113 223 -252z" />
    <glyph glyph-name="gdotaccent" unicode="&#x121;" horiz-adv-x="432" 
d="M118 650c0 39 18 65 46 65s46 -26 46 -65c0 -40 -18 -66 -46 -66s-46 26 -46 66zM162 -270c-115 0 -155 58 -135 144l112 36v-25c-21 -62 -14 -104 43 -104s108 36 108 87c0 39 -28 64 -68 76l-78 24c-50 14 -84 19 -84 68c0 46 32 77 67 97c-66 28 -107 95 -107 187
c0 120 70 200 176 200c32 0 61 -7 85 -21c-3 123 42 201 109 201c62 0 83 -65 58 -162l-55 -18v25c12 48 4 79 -24 79c-37 0 -65 -56 -60 -144c40 -35 63 -91 63 -160c0 -120 -71 -200 -176 -200c-13 0 -25 2 -36 4c-9 -8 -15 -19 -15 -32c0 -29 23 -32 54 -41l86 -23
c70 -19 118 -56 118 -125c0 -103 -109 -173 -241 -173zM267 326c-8 87 -40 149 -83 149s-69 -62 -59 -161c8 -87 40 -149 83 -149s68 62 59 161z" />
    <glyph glyph-name="uni0122" unicode="&#x122;" horiz-adv-x="584" 
d="M392 462v24c28 108 -4 200 -82 200c-89 0 -149 -121 -149 -311c0 -199 66 -331 171 -331c26 0 51 14 70 38v125c0 39 -19 60 -73 60c-13 0 -29 -1 -47 -4v37l294 81v-37c-26 -12 -43 -41 -43 -71v-125c-47 -114 -152 -168 -240 -168c-158 0 -262 153 -262 382
c0 233 107 388 275 388c145 0 229 -113 223 -252zM278 -165c-14 8 -23 25 -23 49c0 33 18 56 44 56c27 0 45 -24 45 -66c0 -58 -28 -102 -71 -102l-6 22c8 0 16 3 21 8c15 8 7 24 -10 33z" />
    <glyph glyph-name="uni0123" unicode="&#x123;" horiz-adv-x="432" 
d="M186 689c14 -8 23 -25 23 -49c0 -33 -18 -56 -44 -56c-27 0 -45 24 -45 66c0 58 28 102 71 102l7 -22c-9 0 -17 -3 -22 -8c-14 -8 -7 -24 10 -33zM162 -270c-115 0 -155 58 -135 144l112 36v-25c-21 -62 -14 -104 43 -104s108 36 108 87c0 39 -28 64 -68 76l-78 24
c-50 14 -84 19 -84 68c0 46 32 77 67 97c-66 28 -107 95 -107 187c0 120 70 200 176 200c32 0 61 -7 85 -21c-3 123 42 201 109 201c62 0 83 -65 58 -162l-55 -18v25c12 48 4 79 -24 79c-37 0 -65 -56 -60 -144c40 -35 63 -91 63 -160c0 -120 -71 -200 -176 -200
c-13 0 -25 2 -36 4c-9 -8 -15 -19 -15 -32c0 -29 23 -32 54 -41l86 -23c70 -19 118 -56 118 -125c0 -103 -109 -173 -241 -173zM267 326c-8 87 -40 149 -83 149s-69 -62 -59 -161c8 -87 40 -149 83 -149s68 62 59 161z" />
    <glyph glyph-name="Hcircumflex" unicode="&#x124;" horiz-adv-x="582" 
d="M171 839l96 126h45l96 -126l-27 -44c-41 9 -71 64 -90 146h-3c-19 -82 -49 -137 -90 -146zM21 0v56c26 0 43 27 43 67v484c0 40 -17 67 -43 67v56h218v-56c-27 0 -44 -27 -44 -67v-210h193v210c0 40 -17 67 -44 67v56h218v-56c-26 0 -43 -27 -43 -67v-484
c0 -40 17 -67 43 -67v-56h-218v56c27 0 44 27 44 67v210h-193v-210c0 -40 17 -67 44 -67v-56h-218z" />
    <glyph glyph-name="hcircumflex" unicode="&#x125;" horiz-adv-x="492" 
d="M-36 839l97 126h45l96 -126l-27 -44c-41 9 -71 64 -90 146h-3c-19 -82 -49 -137 -90 -146zM8 685c46 0 92 25 115 65h39v-325l-3 -32l3 -2c27 81 79 129 147 129c83 0 138 -74 138 -184v-223c0 -34 15 -57 37 -57v-56h-191v56c22 0 37 23 37 57v224c0 64 -27 107 -71 107
c-58 0 -97 -79 -97 -199v-132c0 -34 15 -57 37 -57v-56h-191v56c22 0 37 23 37 57v459c0 34 -15 57 -37 57v56z" />
    <glyph glyph-name="Itilde" unicode="&#x128;" horiz-adv-x="258" 
d="M68 816l-61 19c0 69 23 116 57 116c42 0 68 -71 98 -71c20 0 26 33 26 71l60 -19c0 -67 -22 -116 -55 -116c-40 0 -64 71 -95 71c-20 0 -30 -28 -30 -71zM21 0v56c26 0 43 27 43 67v484c0 40 -17 67 -43 67v56h218v-56c-27 0 -44 -27 -44 -67v-484c0 -40 17 -67 44 -67
v-56h-218z" />
    <glyph glyph-name="itilde" unicode="&#x129;" horiz-adv-x="212" 
d="M47 586l-61 19c0 69 23 116 57 116c42 0 68 -71 98 -71c20 0 26 33 26 71l60 -19c0 -67 -22 -116 -55 -116c-40 0 -64 71 -95 71c-20 0 -30 -28 -30 -71zM14 455c46 0 92 25 115 65h39v-407c0 -34 14 -57 37 -57v-56h-191v56c22 0 37 23 37 57v229c0 34 -15 57 -37 57v56
z" />
    <glyph glyph-name="Imacron" unicode="&#x12a;" horiz-adv-x="258" 
d="M25 878h210v-58h-210v58zM21 0v56c26 0 43 27 43 67v484c0 40 -17 67 -43 67v56h218v-56c-27 0 -44 -27 -44 -67v-484c0 -40 17 -67 44 -67v-56h-218z" />
    <glyph glyph-name="imacron" unicode="&#x12b;" horiz-adv-x="212" 
d="M3 648h210v-58h-210v58zM14 455c46 0 92 25 115 65h39v-407c0 -34 14 -57 37 -57v-56h-191v56c22 0 37 23 37 57v229c0 34 -15 57 -37 57v56z" />
    <glyph glyph-name="Ibreve" unicode="&#x12c;" horiz-adv-x="258" 
d="M21 944l39 12c0 -69 24 -111 58 -111c36 0 60 42 60 111l62 -12c0 -78 -44 -134 -109 -134c-66 0 -110 56 -110 134zM21 0v56c26 0 43 27 43 67v484c0 40 -17 67 -43 67v56h218v-56c-27 0 -44 -27 -44 -67v-484c0 -40 17 -67 44 -67v-56h-218z" />
    <glyph glyph-name="ibreve" unicode="&#x12d;" horiz-adv-x="212" 
d="M-1 714l39 12c0 -69 24 -111 58 -111c36 0 60 42 60 111l62 -12c0 -78 -44 -134 -109 -134c-66 0 -110 56 -110 134zM14 455c46 0 92 25 115 65h39v-407c0 -34 14 -57 37 -57v-56h-191v56c22 0 37 23 37 57v229c0 34 -15 57 -37 57v56z" />
    <glyph glyph-name="Iogonek" unicode="&#x12e;" horiz-adv-x="258" 
d="M21 0v56c26 0 43 27 43 67v484c0 40 -17 67 -43 67v56h218v-56c-27 0 -44 -27 -44 -67v-484c0 -40 17 -67 44 -67v-39c10 4 22 6 34 6l5 -23c-55 0 -91 -55 -91 -102c0 -24 10 -38 28 -38c21 0 52 20 87 62l15 -71c-22 -37 -53 -55 -82 -55c-41 0 -77 34 -77 95
c0 44 18 85 49 109h-186z" />
    <glyph glyph-name="iogonek" unicode="&#x12f;" horiz-adv-x="212" 
d="M29 667c0 56 29 93 71 93s71 -37 71 -93c0 -57 -29 -93 -71 -93s-71 36 -71 93zM14 455c46 0 92 25 115 65h39v-407c0 -34 14 -57 37 -57v-56h-58c-55 0 -91 -55 -91 -102c0 -24 10 -38 28 -38c21 0 52 20 87 62l15 -71c-22 -37 -53 -55 -82 -55c-41 0 -77 34 -77 95
c0 44 18 85 49 109h-62v56c22 0 37 23 37 57v229c0 34 -15 57 -37 57v56z" />
    <glyph glyph-name="uni013B" unicode="&#x13b;" horiz-adv-x="455" 
d="M21 0v56c26 0 43 27 43 67v484c0 40 -17 67 -43 67v56h218v-56c-27 0 -44 -27 -44 -67v-543h113c41 0 79 51 114 172l31 -21l-36 -245h-22c-6 18 -26 30 -51 30h-323zM173 -165c-14 8 -23 25 -23 49c0 33 18 56 44 56c27 0 45 -24 45 -66c0 -58 -28 -102 -71 -102l-6 22
c8 0 16 3 21 8c15 8 7 24 -10 33z" />
    <glyph glyph-name="uni013C" unicode="&#x13c;" horiz-adv-x="206" 
d="M8 685c46 0 92 25 115 65h39v-637c0 -34 14 -57 37 -57v-56h-191v56c22 0 37 23 37 57v459c0 34 -15 57 -37 57v56zM83 -165c-14 8 -23 25 -23 49c0 33 18 56 44 56c27 0 45 -24 45 -66c0 -58 -28 -102 -71 -102l-6 22c8 0 16 3 21 8c15 8 7 24 -10 33z" />
    <glyph glyph-name="lacute" unicode="&#x13a;" horiz-adv-x="206" 
d="M26 811c36 0 66 51 68 117l84 12c-4 -91 -67 -151 -152 -151v22zM8 685c46 0 92 25 115 65h39v-637c0 -34 14 -57 37 -57v-56h-191v56c22 0 37 23 37 57v459c0 34 -15 57 -37 57v56z" />
    <glyph glyph-name="Lacute" unicode="&#x139;" horiz-adv-x="455" 
d="M15 821c36 0 66 51 68 117l84 12c-4 -91 -67 -151 -152 -151v22zM21 0v56c26 0 43 27 43 67v484c0 40 -17 67 -43 67v56h218v-56c-27 0 -44 -27 -44 -67v-543h113c41 0 79 51 114 172l31 -21l-36 -245h-22c-6 18 -26 30 -51 30h-323z" />
    <glyph glyph-name="uni0137" unicode="&#x137;" horiz-adv-x="499" 
d="M321 325l105 -214c17 -33 43 -55 65 -55v-56h-196v56c23 0 19 26 3 57l-62 124l-74 -84v-40c0 -34 15 -57 37 -57v-56h-191v56c22 0 37 23 37 57v459c0 34 -15 57 -37 57v56c46 0 92 25 115 65h39v-521l147 170c22 24 18 45 -11 45v56h186v-56c-19 0 -76 -18 -110 -55z
M222 -165c-14 8 -23 25 -23 49c0 33 18 56 44 56c27 0 45 -24 45 -66c0 -58 -28 -102 -71 -102l-6 22c8 0 16 3 21 8c15 8 7 24 -10 33z" />
    <glyph glyph-name="uni0136" unicode="&#x136;" horiz-adv-x="614" 
d="M376 93l-102 230l-79 -127v-73c0 -40 28 -67 55 -67v-56h-229v56c26 0 44 27 44 67v484c0 40 -18 67 -44 67v56h218v-56c-26 0 -44 -27 -44 -67v-290l151 244c42 66 42 113 5 113v56h210v-56c-32 0 -107 -72 -146 -131l-52 -88l113 -263c34 -82 84 -136 127 -136v-56h-85
c-63 0 -120 37 -142 93zM289 -165c-14 8 -23 25 -23 49c0 33 18 56 44 56c27 0 45 -24 45 -66c0 -58 -28 -102 -71 -102l-6 22c8 0 16 3 21 8c15 8 7 24 -10 33z" />
    <glyph glyph-name="IJ" unicode="&#x132;" horiz-adv-x="684" 
d="M21 0v56c26 0 43 27 43 67v484c0 40 -17 67 -43 67v56h218v-56c-27 0 -44 -27 -44 -67v-484c0 -40 17 -67 44 -67v-56h-218zM621 210c0 -138 -75 -230 -193 -230c-112 0 -190 98 -157 244l125 36v-25c-37 -107 -17 -179 29 -179c41 0 65 57 65 138v413
c0 40 -17 67 -44 67v56h218v-56c-26 0 -43 -27 -43 -67v-397z" />
    <glyph glyph-name="ij" unicode="&#x133;" horiz-adv-x="417" 
d="M29 667c0 56 29 93 71 93s71 -37 71 -93c0 -57 -29 -93 -71 -93s-71 36 -71 93zM244 667c0 56 29 93 71 93c43 0 72 -37 72 -93c0 -57 -29 -93 -72 -93c-42 0 -71 36 -71 93zM14 455c46 0 92 25 115 65h39v-407c0 -34 14 -57 37 -57v-56h-191v56c22 0 37 23 37 57v229
c0 34 -15 57 -37 57v56zM383 -40c0 -138 -69 -230 -172 -230c-71 0 -104 68 -81 169l113 36v-25c-21 -62 -12 -104 20 -104s58 47 58 113c0 39 -22 56 -55 61v362c0 34 -15 57 -37 57v56c47 0 92 25 115 65h39v-560z" />
    <glyph glyph-name="Idotaccent" unicode="&#x130;" horiz-adv-x="258" 
d="M84 880c0 39 18 65 46 65s46 -26 46 -65c0 -40 -18 -66 -46 -66s-46 26 -46 66zM21 0v56c26 0 43 27 43 67v484c0 40 -17 67 -43 67v56h218v-56c-27 0 -44 -27 -44 -67v-484c0 -40 17 -67 44 -67v-56h-218z" />
    <glyph glyph-name="Nacute" unicode="&#x143;" horiz-adv-x="535" 
d="M192 821c36 0 66 51 68 117l84 12c-4 -91 -67 -151 -152 -151v22zM21 0v56c26 0 43 27 43 67v484c0 40 -17 67 -43 67v56h108l298 -489v366c0 40 -17 67 -44 67v56h132v-56c-26 0 -43 -27 -43 -67v-627h-26l-337 542v-399c0 -40 18 -67 44 -67v-56h-132z" />
    <glyph glyph-name="nacute" unicode="&#x144;" horiz-adv-x="498" 
d="M176 591c36 0 66 51 68 117l84 12c-4 -91 -67 -151 -152 -151v22zM14 455c46 0 92 25 115 65h39v-95l-3 -32l3 -2c27 81 79 129 147 129c82 0 138 -74 138 -184v-223c0 -34 15 -57 37 -57v-56h-191v56c22 0 37 23 37 57v224c0 64 -27 107 -71 107c-58 0 -97 -79 -97 -199
v-132c0 -34 14 -57 37 -57v-56h-191v56c22 0 37 23 37 57v229c0 34 -15 57 -37 57v56z" />
    <glyph glyph-name="uni0145" unicode="&#x145;" horiz-adv-x="535" 
d="M21 0v56c26 0 43 27 43 67v484c0 40 -17 67 -43 67v56h108l298 -489v366c0 40 -17 67 -44 67v56h132v-56c-26 0 -43 -27 -43 -67v-627h-26l-337 542v-399c0 -40 18 -67 44 -67v-56h-132zM245 -165c-14 8 -23 25 -23 49c0 33 18 56 44 56c27 0 45 -24 45 -66
c0 -58 -28 -102 -71 -102l-6 22c8 0 16 3 21 8c15 8 7 24 -10 33z" />
    <glyph glyph-name="uni0146" unicode="&#x146;" horiz-adv-x="498" 
d="M14 455c46 0 92 25 115 65h39v-95l-3 -32l3 -2c27 81 79 129 147 129c82 0 138 -74 138 -184v-223c0 -34 15 -57 37 -57v-56h-191v56c22 0 37 23 37 57v224c0 64 -27 107 -71 107c-58 0 -97 -79 -97 -199v-132c0 -34 14 -57 37 -57v-56h-191v56c22 0 37 23 37 57v229
c0 34 -15 57 -37 57v56zM230 -165c-14 8 -23 25 -23 49c0 33 18 56 44 56c27 0 45 -24 45 -66c0 -58 -28 -102 -71 -102l-6 22c8 0 16 3 21 8c15 8 7 24 -10 33z" />
    <glyph glyph-name="Ncaron" unicode="&#x147;" horiz-adv-x="535" 
d="M148 921l27 44c41 -9 71 -64 90 -146h3c19 82 49 137 90 146l27 -44l-96 -126h-45zM21 0v56c26 0 43 27 43 67v484c0 40 -17 67 -43 67v56h108l298 -489v366c0 40 -17 67 -44 67v56h132v-56c-26 0 -43 -27 -43 -67v-627h-26l-337 542v-399c0 -40 18 -67 44 -67v-56h-132z
" />
    <glyph glyph-name="ncaron" unicode="&#x148;" horiz-adv-x="498" 
d="M132 691l27 44c41 -9 71 -64 90 -146h3c19 82 49 137 90 146l27 -44l-96 -126h-45zM14 455c46 0 92 25 115 65h39v-95l-3 -32l3 -2c27 81 79 129 147 129c82 0 138 -74 138 -184v-223c0 -34 15 -57 37 -57v-56h-191v56c22 0 37 23 37 57v224c0 64 -27 107 -71 107
c-58 0 -97 -79 -97 -199v-132c0 -34 14 -57 37 -57v-56h-191v56c22 0 37 23 37 57v229c0 34 -15 57 -37 57v56z" />
    <glyph glyph-name="Omacron" unicode="&#x14c;" horiz-adv-x="594" 
d="M192 878h210v-58h-210v58zM31 365c0 231 106 385 266 385s266 -154 266 -385s-106 -385 -266 -385s-266 154 -266 385zM162 357c16 -187 79 -313 160 -313c83 0 129 130 110 330c-17 186 -80 312 -160 312c-82 0 -128 -130 -110 -329z" />
    <glyph glyph-name="omacron" unicode="&#x14d;" horiz-adv-x="467" 
d="M128 648h210v-58h-210v58zM22 250c0 162 85 270 212 270s211 -108 211 -270s-84 -270 -211 -270s-212 108 -212 270zM141 242c11 -119 54 -204 111 -204s89 85 75 220c-12 120 -55 205 -112 205c-56 0 -89 -85 -74 -221z" />
    <glyph glyph-name="Obreve" unicode="&#x14e;" horiz-adv-x="594" 
d="M188 944l39 12c0 -69 24 -111 58 -111c36 0 60 42 60 111l62 -12c0 -78 -44 -134 -109 -134c-66 0 -110 56 -110 134zM31 365c0 231 106 385 266 385s266 -154 266 -385s-106 -385 -266 -385s-266 154 -266 385zM162 357c16 -187 79 -313 160 -313c83 0 129 130 110 330
c-17 186 -80 312 -160 312c-82 0 -128 -130 -110 -329z" />
    <glyph glyph-name="obreve" unicode="&#x14f;" horiz-adv-x="467" 
d="M124 714l39 12c0 -69 24 -111 58 -111c36 0 60 42 60 111l62 -12c0 -78 -44 -134 -109 -134c-66 0 -110 56 -110 134zM22 250c0 162 85 270 212 270s211 -108 211 -270s-84 -270 -211 -270s-212 108 -212 270zM141 242c11 -119 54 -204 111 -204s89 85 75 220
c-12 120 -55 205 -112 205c-56 0 -89 -85 -74 -221z" />
    <glyph glyph-name="scedilla" unicode="&#x15f;" horiz-adv-x="383" 
d="M22 364c0 103 69 156 162 156c68 0 134 -31 172 -79l-23 -112h-39c-4 82 -42 134 -92 134c-42 0 -70 -36 -70 -73c0 -103 227 -64 227 -255c0 -102 -64 -155 -163 -155l-16 -40c14 9 29 13 42 13c33 0 58 -27 58 -72c0 -65 -55 -98 -104 -98c-43 0 -82 27 -71 81l37 18
c-4 -35 13 -51 31 -51c20 0 42 19 42 55c0 23 -8 33 -19 33c-8 0 -19 -6 -29 -16l-29 14l22 67c-53 9 -104 37 -135 75l23 112h39c5 -82 43 -133 93 -133c42 0 69 34 69 72c0 103 -227 64 -227 254z" />
    <glyph glyph-name="Scedilla" unicode="&#x15e;" horiz-adv-x="491" 
d="M31 537c0 138 89 213 214 213c94 0 178 -46 212 -105l-36 -161h-39c-4 121 -50 202 -123 202c-63 0 -105 -44 -105 -110c0 -156 306 -134 306 -385c0 -133 -80 -208 -198 -211l-16 -40c14 9 29 13 42 13c33 0 58 -27 58 -72c0 -65 -55 -98 -104 -98c-43 0 -82 27 -71 81
l37 18c-4 -35 13 -51 31 -51c20 0 42 19 42 55c0 23 -8 33 -19 33c-8 0 -19 -6 -29 -16l-29 14l22 65c-79 8 -154 51 -192 103l36 161h39c6 -121 54 -202 125 -202c62 0 102 44 102 110c0 157 -305 134 -305 383z" />
    <glyph glyph-name="scircumflex" unicode="&#x15d;" horiz-adv-x="383" 
d="M62 609l96 126h45l96 -126l-27 -44c-41 9 -71 64 -90 146h-3c-19 -82 -49 -137 -90 -146zM22 364c0 103 69 156 162 156c68 0 134 -31 172 -79l-23 -112h-39c-4 82 -42 134 -92 134c-42 0 -70 -36 -70 -73c0 -103 227 -64 227 -255c0 -102 -66 -155 -158 -155
c-69 0 -137 32 -176 79l23 112h39c5 -82 43 -133 93 -133c42 0 69 34 69 72c0 103 -227 64 -227 254z" />
    <glyph glyph-name="Scircumflex" unicode="&#x15c;" horiz-adv-x="491" 
d="M132 839l96 126h45l96 -126l-27 -44c-41 9 -71 64 -90 146h-3c-19 -82 -49 -137 -90 -146zM31 537c0 138 89 213 214 213c94 0 178 -46 212 -105l-36 -161h-39c-4 121 -50 202 -123 202c-63 0 -105 -44 -105 -110c0 -156 306 -134 306 -385c0 -135 -84 -211 -206 -211
c-89 0 -177 47 -220 105l36 161h39c6 -121 54 -202 125 -202c62 0 102 44 102 110c0 157 -305 134 -305 383z" />
    <glyph glyph-name="sacute" unicode="&#x15b;" horiz-adv-x="383" 
d="M104 591c36 0 66 51 68 117l84 12c-4 -91 -67 -151 -152 -151v22zM22 364c0 103 69 156 162 156c68 0 134 -31 172 -79l-23 -112h-39c-4 82 -42 134 -92 134c-42 0 -70 -36 -70 -73c0 -103 227 -64 227 -255c0 -102 -66 -155 -158 -155c-69 0 -137 32 -176 79l23 112h39
c5 -82 43 -133 93 -133c42 0 69 34 69 72c0 103 -227 64 -227 254z" />
    <glyph glyph-name="Sacute" unicode="&#x15a;" horiz-adv-x="491" 
d="M175 821c36 0 66 51 68 117l84 12c-4 -91 -67 -151 -152 -151v22zM31 537c0 138 89 213 214 213c94 0 178 -46 212 -105l-36 -161h-39c-4 121 -50 202 -123 202c-63 0 -105 -44 -105 -110c0 -156 306 -134 306 -385c0 -135 -84 -211 -206 -211c-89 0 -177 47 -220 105
l36 161h39c6 -121 54 -202 125 -202c62 0 102 44 102 110c0 157 -305 134 -305 383z" />
    <glyph glyph-name="rcaron" unicode="&#x159;" horiz-adv-x="413" 
d="M90 691l27 44c41 -9 71 -64 90 -146h3c19 82 49 137 90 146l27 -44l-96 -126h-45zM14 455c46 0 92 25 115 65h39v-88l-3 -32l3 -3c25 77 70 123 131 123c80 0 127 -78 95 -214l-121 -23v24c24 82 14 137 -26 137c-48 0 -79 -79 -79 -199v-132c0 -34 14 -57 37 -57v-56
h-191v56c22 0 37 23 37 57v229c0 34 -15 57 -37 57v56z" />
    <glyph glyph-name="Rcaron" unicode="&#x158;" horiz-adv-x="577" 
d="M131 921l27 44c41 -9 71 -64 90 -146h3c19 82 49 137 90 146l27 -44l-96 -126h-45zM21 0v56c26 0 43 27 43 67v484c0 40 -17 67 -43 67v56h246c141 0 235 -71 235 -175c0 -83 -62 -131 -157 -173c44 -30 79 -84 107 -156c35 -92 54 -170 113 -170v-56
c-165 0 -189 51 -248 214c-24 65 -48 109 -75 125l-47 -20v-196c0 -40 17 -67 44 -67v-56h-218zM195 384l62 30c69 34 115 79 115 143s-44 109 -110 109h-67v-282z" />
    <glyph glyph-name="uni0157" unicode="&#x157;" horiz-adv-x="413" 
d="M14 455c46 0 92 25 115 65h39v-88l-3 -32l3 -3c25 77 70 123 131 123c80 0 127 -78 95 -214l-121 -23v24c24 82 14 137 -26 137c-48 0 -79 -79 -79 -199v-132c0 -34 14 -57 37 -57v-56h-191v56c22 0 37 23 37 57v229c0 34 -15 57 -37 57v56zM86 -165c-14 8 -23 25 -23 49
c0 33 18 56 44 56c27 0 45 -24 45 -66c0 -58 -28 -102 -71 -102l-6 22c8 0 16 3 21 8c15 8 7 24 -10 33z" />
    <glyph glyph-name="uni0156" unicode="&#x156;" horiz-adv-x="577" 
d="M21 0v56c26 0 43 27 43 67v484c0 40 -17 67 -43 67v56h246c141 0 235 -71 235 -175c0 -83 -62 -131 -157 -173c44 -30 79 -84 107 -156c35 -92 54 -170 113 -170v-56c-165 0 -189 51 -248 214c-24 65 -48 109 -75 125l-47 -20v-196c0 -40 17 -67 44 -67v-56h-218z
M195 384l62 30c69 34 115 79 115 143s-44 109 -110 109h-67v-282zM288 -165c-14 8 -23 25 -23 49c0 33 18 56 44 56c27 0 45 -24 45 -66c0 -58 -28 -102 -71 -102l-6 22c8 0 16 3 21 8c15 8 7 24 -10 33z" />
    <glyph glyph-name="racute" unicode="&#x155;" horiz-adv-x="413" 
d="M134 591c36 0 66 51 68 117l84 12c-4 -91 -67 -151 -152 -151v22zM14 455c46 0 92 25 115 65h39v-88l-3 -32l3 -3c25 77 70 123 131 123c80 0 127 -78 95 -214l-121 -23v24c24 82 14 137 -26 137c-48 0 -79 -79 -79 -199v-132c0 -34 14 -57 37 -57v-56h-191v56
c22 0 37 23 37 57v229c0 34 -15 57 -37 57v56z" />
    <glyph glyph-name="Racute" unicode="&#x154;" horiz-adv-x="577" 
d="M175 821c36 0 66 51 68 117l84 12c-4 -91 -67 -151 -152 -151v22zM21 0v56c26 0 43 27 43 67v484c0 40 -17 67 -43 67v56h246c141 0 235 -71 235 -175c0 -83 -62 -131 -157 -173c44 -30 79 -84 107 -156c35 -92 54 -170 113 -170v-56c-165 0 -189 51 -248 214
c-24 65 -48 109 -75 125l-47 -20v-196c0 -40 17 -67 44 -67v-56h-218zM195 384l62 30c69 34 115 79 115 143s-44 109 -110 109h-67v-282z" />
    <glyph glyph-name="ohungarumlaut" unicode="&#x151;" horiz-adv-x="467" 
d="M121 591c27 0 45 51 45 117l75 12c-3 -91 -50 -151 -120 -151v22zM227 591c27 0 45 51 45 117l75 12c-3 -91 -50 -151 -120 -151v22zM22 250c0 162 85 270 212 270s211 -108 211 -270s-84 -270 -211 -270s-212 108 -212 270zM141 242c11 -119 54 -204 111 -204
s89 85 75 220c-12 120 -55 205 -112 205c-56 0 -89 -85 -74 -221z" />
    <glyph glyph-name="Ohungarumlaut" unicode="&#x150;" horiz-adv-x="594" 
d="M185 821c27 0 45 51 45 117l75 12c-3 -91 -50 -151 -120 -151v22zM291 821c27 0 45 51 45 117l75 12c-3 -91 -50 -151 -120 -151v22zM31 365c0 231 106 385 266 385s266 -154 266 -385s-106 -385 -266 -385s-266 154 -266 385zM162 357c16 -187 79 -313 160 -313
c83 0 129 130 110 330c-17 186 -80 312 -160 312c-82 0 -128 -130 -110 -329z" />
    <glyph glyph-name="Scaron" unicode="&#x160;" horiz-adv-x="491" 
d="M131 921l27 44c41 -9 71 -64 90 -146h3c19 82 49 137 90 146l27 -44l-96 -126h-45zM31 537c0 138 89 213 214 213c94 0 178 -46 212 -105l-36 -161h-39c-4 121 -50 202 -123 202c-63 0 -105 -44 -105 -110c0 -156 306 -134 306 -385c0 -135 -84 -211 -206 -211
c-89 0 -177 47 -220 105l36 161h39c6 -121 54 -202 125 -202c62 0 102 44 102 110c0 157 -305 134 -305 383z" />
    <glyph glyph-name="scaron" unicode="&#x161;" horiz-adv-x="383" 
d="M60 691l27 44c41 -9 71 -64 90 -146h3c19 82 49 137 90 146l27 -44l-96 -126h-45zM22 364c0 103 69 156 162 156c68 0 134 -31 172 -79l-23 -112h-39c-4 82 -42 134 -92 134c-42 0 -70 -36 -70 -73c0 -103 227 -64 227 -255c0 -102 -66 -155 -158 -155
c-69 0 -137 32 -176 79l23 112h39c5 -82 43 -133 93 -133c42 0 69 34 69 72c0 103 -227 64 -227 254z" />
    <glyph glyph-name="uni0162" unicode="&#x162;" horiz-adv-x="610" 
d="M476 730c25 0 45 12 51 30h22l56 -271l-32 -21c-43 151 -87 198 -132 198h-71v-543c0 -40 17 -67 44 -67v-56h-112l-23 -60c14 9 29 13 42 13c33 0 58 -27 58 -72c0 -65 -55 -98 -104 -98c-43 0 -82 27 -71 81l37 18c-4 -35 13 -51 31 -51c20 0 42 19 42 55
c0 23 -8 33 -19 33c-8 0 -19 -6 -29 -16l-29 14l28 83h-69v56c26 0 43 27 43 67v543h-70c-46 0 -90 -47 -133 -198l-31 21l55 271h22c6 -18 26 -30 51 -30h343z" />
    <glyph glyph-name="uni0163" unicode="&#x163;" horiz-adv-x="378" 
d="M172 233c0 -89 33 -148 78 -148c34 0 64 37 81 93l38 -14c-15 -86 -64 -186 -165 -184l-16 -40c14 9 29 13 42 13c33 0 58 -27 58 -72c0 -65 -55 -98 -104 -98c-43 0 -82 27 -71 81l37 18c-4 -35 13 -51 31 -51c20 0 42 19 42 55c0 23 -8 33 -19 33c-8 0 -19 -6 -29 -16
l-29 14l23 68c-69 20 -113 96 -114 202v219c0 34 -15 57 -44 57v37c60 0 106 36 122 150h39v-150h138v-51h-138v-216z" />
    <glyph glyph-name="Tcaron" unicode="&#x164;" horiz-adv-x="610" 
d="M183 921l27 44c41 -9 71 -64 90 -146h3c19 82 49 137 90 146l27 -44l-96 -126h-45zM476 730c25 0 45 12 51 30h22l56 -271l-32 -21c-43 151 -87 198 -132 198h-71v-543c0 -40 17 -67 44 -67v-56h-218v56c26 0 43 27 43 67v543h-70c-46 0 -90 -47 -133 -198l-31 21l55 271
h22c6 -18 26 -30 51 -30h343z" />
    <glyph glyph-name="tcaron" unicode="&#x165;" horiz-adv-x="377" 
d="M223 647c-14 8 -23 25 -23 49c0 33 18 56 44 56c27 0 45 -24 45 -66c0 -58 -28 -102 -71 -102l-7 22c10 0 17 3 22 8c14 8 7 24 -10 33zM172 233c0 -89 33 -148 78 -148c33 0 63 37 81 93l38 -14c-20 -112 -80 -184 -164 -184c-89 0 -149 83 -150 207v219
c0 34 -15 57 -45 57v37c61 0 107 36 123 150h39v-150h138v-51h-138v-216z" />
    <glyph glyph-name="Utilde" unicode="&#x168;" horiz-adv-x="544" 
d="M272 816l-61 19c0 69 23 116 57 116c42 0 68 -71 98 -71c20 0 26 33 26 71l60 -19c0 -67 -22 -116 -55 -116c-40 0 -64 71 -95 71c-20 0 -30 -28 -30 -71zM21 730h218v-56c-27 0 -44 -27 -44 -66v-369c0 -117 48 -195 118 -195c74 0 123 85 123 214v350
c0 39 -18 66 -44 66v56h132v-56c-26 0 -44 -27 -44 -67v-353c0 -165 -79 -274 -207 -274c-122 0 -209 102 -209 256v371c0 40 -17 67 -43 67v56z" />
    <glyph glyph-name="utilde" unicode="&#x169;" horiz-adv-x="498" 
d="M194 586l-61 19c0 69 23 116 57 116c42 0 68 -71 98 -71c20 0 26 33 26 71l60 -19c0 -67 -22 -116 -55 -116c-40 0 -64 71 -95 71c-20 0 -30 -28 -30 -71zM490 45c-46 0 -92 -25 -115 -65h-39v95l3 32l-3 3c-27 -82 -79 -130 -147 -130c-83 0 -138 74 -138 184v223
c0 34 -15 57 -37 57v56h191v-56c-23 0 -37 -23 -37 -57v-224c0 -64 27 -107 71 -107c58 0 97 79 97 199v132c0 34 -15 57 -37 57v56h191v-56c-22 0 -37 -23 -37 -57v-229c0 -34 15 -57 37 -57v-56z" />
    <glyph glyph-name="Umacron" unicode="&#x16a;" horiz-adv-x="544" 
d="M229 878h210v-58h-210v58zM21 730h218v-56c-27 0 -44 -27 -44 -66v-369c0 -117 48 -195 118 -195c74 0 123 85 123 214v350c0 39 -18 66 -44 66v56h132v-56c-26 0 -44 -27 -44 -67v-353c0 -165 -79 -274 -207 -274c-122 0 -209 102 -209 256v371c0 40 -17 67 -43 67v56z
" />
    <glyph glyph-name="umacron" unicode="&#x16b;" horiz-adv-x="498" 
d="M150 648h210v-58h-210v58zM490 45c-46 0 -92 -25 -115 -65h-39v95l3 32l-3 3c-27 -82 -79 -130 -147 -130c-83 0 -138 74 -138 184v223c0 34 -15 57 -37 57v56h191v-56c-23 0 -37 -23 -37 -57v-224c0 -64 27 -107 71 -107c58 0 97 79 97 199v132c0 34 -15 57 -37 57v56
h191v-56c-22 0 -37 -23 -37 -57v-229c0 -34 15 -57 37 -57v-56z" />
    <glyph glyph-name="Ubreve" unicode="&#x16c;" horiz-adv-x="544" 
d="M225 944l39 12c0 -69 24 -111 58 -111c36 0 60 42 60 111l62 -12c0 -78 -44 -134 -109 -134c-66 0 -110 56 -110 134zM21 730h218v-56c-27 0 -44 -27 -44 -66v-369c0 -117 48 -195 118 -195c74 0 123 85 123 214v350c0 39 -18 66 -44 66v56h132v-56
c-26 0 -44 -27 -44 -67v-353c0 -165 -79 -274 -207 -274c-122 0 -209 102 -209 256v371c0 40 -17 67 -43 67v56z" />
    <glyph glyph-name="ubreve" unicode="&#x16d;" horiz-adv-x="498" 
d="M146 714l39 12c0 -69 24 -111 58 -111c36 0 60 42 60 111l62 -12c0 -78 -44 -134 -109 -134c-66 0 -110 56 -110 134zM490 45c-46 0 -92 -25 -115 -65h-39v95l3 32l-3 3c-27 -82 -79 -130 -147 -130c-83 0 -138 74 -138 184v223c0 34 -15 57 -37 57v56h191v-56
c-23 0 -37 -23 -37 -57v-224c0 -64 27 -107 71 -107c58 0 97 79 97 199v132c0 34 -15 57 -37 57v56h191v-56c-22 0 -37 -23 -37 -57v-229c0 -34 15 -57 37 -57v-56z" />
    <glyph glyph-name="Uring" unicode="&#x16e;" horiz-adv-x="544" 
d="M267 910c0 57 27 95 68 95c39 0 66 -38 66 -95c0 -58 -27 -96 -66 -96c-41 0 -68 38 -68 96zM290 910c0 -38 18 -64 45 -64c26 0 43 26 43 64c0 37 -17 63 -43 63c-27 0 -45 -26 -45 -63zM21 730h218v-56c-27 0 -44 -27 -44 -66v-369c0 -117 48 -195 118 -195
c74 0 123 85 123 214v350c0 39 -18 66 -44 66v56h132v-56c-26 0 -44 -27 -44 -67v-353c0 -165 -79 -274 -207 -274c-122 0 -209 102 -209 256v371c0 40 -17 67 -43 67v56z" />
    <glyph glyph-name="uring" unicode="&#x16f;" horiz-adv-x="498" 
d="M188 680c0 57 27 95 68 95c39 0 66 -38 66 -95c0 -58 -27 -96 -66 -96c-41 0 -68 38 -68 96zM211 680c0 -38 18 -64 45 -64c26 0 43 26 43 64c0 37 -17 63 -43 63c-27 0 -45 -26 -45 -63zM490 45c-46 0 -92 -25 -115 -65h-39v95l3 32l-3 3c-27 -82 -79 -130 -147 -130
c-83 0 -138 74 -138 184v223c0 34 -15 57 -37 57v56h191v-56c-23 0 -37 -23 -37 -57v-224c0 -64 27 -107 71 -107c58 0 97 79 97 199v132c0 34 -15 57 -37 57v56h191v-56c-22 0 -37 -23 -37 -57v-229c0 -34 15 -57 37 -57v-56z" />
    <glyph glyph-name="zcaron" unicode="&#x17e;" horiz-adv-x="453" 
d="M145 691l27 44c41 -9 71 -64 90 -146h3c19 82 49 137 90 146l27 -44l-96 -126h-45zM140 500h285v-35l-247 -414h125c34 0 50 44 93 165l36 -21l-54 -225h-22c-3 18 -18 30 -38 30h-298v35l247 414h-112c-35 0 -51 -44 -92 -165l-36 21l54 225h22c2 -18 18 -30 37 -30z
" />
    <glyph glyph-name="Zcaron" unicode="&#x17d;" horiz-adv-x="529" 
d="M205 921l27 44c41 -9 71 -64 90 -146h3c19 82 49 137 90 146l27 -44l-96 -126h-45zM158 730h344v-35l-317 -631h143c50 0 102 77 149 232l32 -21l-72 -305h-22c-2 18 -17 30 -37 30h-358v35l316 631h-133c-48 0 -99 -72 -144 -219l-32 20l71 293h22c3 -18 19 -30 38 -30z
" />
    <glyph glyph-name="zdotaccent" unicode="&#x17c;" horiz-adv-x="453" 
d="M217 650c0 39 18 65 46 65s46 -26 46 -65c0 -40 -18 -66 -46 -66s-46 26 -46 66zM140 500h285v-35l-247 -414h125c34 0 50 44 93 165l36 -21l-54 -225h-22c-3 18 -18 30 -38 30h-298v35l247 414h-112c-35 0 -51 -44 -92 -165l-36 21l54 225h22c2 -18 18 -30 37 -30z" />
    <glyph glyph-name="Zdotaccent" unicode="&#x17b;" horiz-adv-x="529" 
d="M278 880c0 39 18 65 46 65s46 -26 46 -65c0 -40 -18 -66 -46 -66s-46 26 -46 66zM158 730h344v-35l-317 -631h143c50 0 102 77 149 232l32 -21l-72 -305h-22c-2 18 -17 30 -37 30h-358v35l316 631h-133c-48 0 -99 -72 -144 -219l-32 20l71 293h22c3 -18 19 -30 38 -30z
" />
    <glyph glyph-name="zacute" unicode="&#x17a;" horiz-adv-x="453" 
d="M189 591c36 0 66 51 68 117l84 12c-4 -91 -67 -151 -152 -151v22zM140 500h285v-35l-247 -414h125c34 0 50 44 93 165l36 -21l-54 -225h-22c-3 18 -18 30 -38 30h-298v35l247 414h-112c-35 0 -51 -44 -92 -165l-36 21l54 225h22c2 -18 18 -30 37 -30z" />
    <glyph glyph-name="Zacute" unicode="&#x179;" horiz-adv-x="529" 
d="M249 821c36 0 66 51 68 117l84 12c-4 -91 -67 -151 -152 -151v22zM158 730h344v-35l-317 -631h143c50 0 102 77 149 232l32 -21l-72 -305h-22c-2 18 -17 30 -37 30h-358v35l316 631h-133c-48 0 -99 -72 -144 -219l-32 20l71 293h22c3 -18 19 -30 38 -30z" />
    <glyph glyph-name="ycircumflex" unicode="&#x177;" horiz-adv-x="454" 
d="M121 609l96 126h45l96 -126l-27 -44c-41 9 -71 64 -90 146h-3c-19 -82 -49 -137 -90 -146zM152 138l-73 204c-24 61 -53 102 -71 102v56h197v-56c-27 0 -32 -34 -12 -87l74 -216l74 216c21 53 16 87 -11 87v56h122v-56c-19 0 -47 -41 -72 -102l-158 -423
c-45 -117 -87 -189 -166 -189c-72 0 -115 65 -92 161l113 34v-25c-24 -54 -16 -94 17 -94c32 0 56 45 66 98c5 45 -9 76 -32 76v14c33 50 39 108 24 144z" />
    <glyph glyph-name="Ydieresis" unicode="&#x178;" horiz-adv-x="568" 
d="M174 880c0 39 18 65 46 65s46 -26 46 -65c0 -40 -18 -66 -46 -66s-46 26 -46 66zM307 880c0 39 18 65 46 65s46 -26 46 -65c0 -40 -18 -66 -46 -66s-46 26 -46 66zM260 730v-56c-32 0 -46 -40 -35 -72l109 -266l112 271c11 28 -8 67 -38 67v56h150v-56
c-24 0 -47 -26 -65 -68l-143 -345v-138c0 -40 18 -67 44 -67v-56h-218v56c26 0 44 27 44 67v141l-140 335c-20 46 -41 75 -68 75v56h248z" />
    <glyph glyph-name="Ycircumflex" unicode="&#x176;" horiz-adv-x="568" 
d="M168 839l96 126h45l96 -126l-27 -44c-41 9 -71 64 -90 146h-3c-19 -82 -49 -137 -90 -146zM260 730v-56c-32 0 -46 -40 -35 -72l109 -266l112 271c11 28 -8 67 -38 67v56h150v-56c-24 0 -47 -26 -65 -68l-143 -345v-138c0 -40 18 -67 44 -67v-56h-218v56
c26 0 44 27 44 67v141l-140 335c-20 46 -41 75 -68 75v56h248z" />
    <glyph glyph-name="wcircumflex" unicode="&#x175;" horiz-adv-x="656" 
d="M220 609l96 126h45l96 -126l-27 -44c-41 9 -71 64 -90 146h-3c-19 -82 -49 -137 -90 -146zM4 444v56h194v-56c-25 0 -33 -27 -20 -69l65 -219l109 364h28l105 -366l67 221c13 42 6 69 -20 69v56h122v-56c-20 0 -46 -37 -66 -92l-124 -372h-28l-105 345l-109 -345h-28
l-124 372c-20 55 -47 92 -66 92z" />
    <glyph glyph-name="Wcircumflex" unicode="&#x174;" horiz-adv-x="891" 
d="M376 839l96 126h45l96 -126l-27 -44c-41 9 -71 64 -90 146h-3c-19 -82 -49 -137 -90 -146zM11 674v56h250v-56c-32 0 -46 -40 -31 -91l100 -360l150 527h28l150 -529l100 362c14 51 2 91 -30 91v56h152v-56c-27 0 -54 -26 -70 -78l-188 -616h-26l-150 528l-151 -528h-26
l-185 609c-17 56 -44 85 -73 85z" />
    <glyph glyph-name="uogonek" unicode="&#x173;" horiz-adv-x="498" 
d="M490 45c-28 0 -54 -9 -77 -24c6 1 12 2 19 2l5 -23c-55 0 -91 -55 -91 -102c0 -24 10 -38 28 -38c21 0 52 20 87 62l15 -71c-22 -37 -53 -55 -82 -55c-41 0 -77 34 -77 95c0 33 10 65 29 89h-10v95l3 32l-3 3c-27 -82 -79 -130 -147 -130c-83 0 -138 74 -138 184v223
c0 34 -15 57 -37 57v56h191v-56c-23 0 -37 -23 -37 -57v-224c0 -64 27 -107 71 -107c58 0 97 79 97 199v132c0 34 -15 57 -37 57v56h191v-56c-22 0 -37 -23 -37 -57v-229c0 -34 15 -57 37 -57v-56z" />
    <glyph glyph-name="Uogonek" unicode="&#x172;" horiz-adv-x="544" 
d="M21 730h218v-56c-27 0 -44 -27 -44 -66v-369c0 -117 48 -195 118 -195c74 0 123 85 123 214v350c0 39 -18 66 -44 66v56h132v-56c-26 0 -44 -27 -44 -67v-353c0 -120 -42 -211 -115 -251l1 -3h-7c-12 -7 -25 -11 -39 -15c-28 -19 -45 -55 -45 -87c0 -24 10 -38 28 -38
c21 0 52 20 87 62l15 -71c-22 -37 -53 -55 -82 -55c-41 0 -77 34 -77 95c0 33 10 65 29 89c-144 0 -211 127 -211 256v371c0 40 -17 67 -43 67v56z" />
    <glyph glyph-name="uhungarumlaut" unicode="&#x171;" horiz-adv-x="498" 
d="M143 591c27 0 45 51 45 117l75 12c-3 -91 -50 -151 -120 -151v22zM249 591c27 0 45 51 45 117l75 12c-3 -91 -50 -151 -120 -151v22zM490 45c-46 0 -92 -25 -115 -65h-39v95l3 32l-3 3c-27 -82 -79 -130 -147 -130c-83 0 -138 74 -138 184v223c0 34 -15 57 -37 57v56h191
v-56c-23 0 -37 -23 -37 -57v-224c0 -64 27 -107 71 -107c58 0 97 79 97 199v132c0 34 -15 57 -37 57v56h191v-56c-22 0 -37 -23 -37 -57v-229c0 -34 15 -57 37 -57v-56z" />
    <glyph glyph-name="Uhungarumlaut" unicode="&#x170;" horiz-adv-x="544" 
d="M221 821c27 0 45 51 45 117l75 12c-3 -91 -50 -151 -120 -151v22zM327 821c27 0 45 51 45 117l75 12c-3 -91 -50 -151 -120 -151v22zM21 730h218v-56c-27 0 -44 -27 -44 -66v-369c0 -117 48 -195 118 -195c74 0 123 85 123 214v350c0 39 -18 66 -44 66v56h132v-56
c-26 0 -44 -27 -44 -67v-353c0 -165 -79 -274 -207 -274c-122 0 -209 102 -209 256v371c0 40 -17 67 -43 67v56z" />
    <glyph glyph-name="OE" unicode="&#x152;" horiz-adv-x="709" 
d="M427 64h114c45 0 92 51 135 172l32 -21l-59 -245h-22c-6 18 -26 30 -50 30h-280c-160 0 -267 146 -267 365s107 365 267 365h275c24 0 44 12 50 30h22l34 -241l-32 -21c-35 121 -70 168 -110 168h-109v-269h83c24 0 40 22 40 56h35v-176h-35c0 34 -16 56 -40 56h-83v-269
zM297 64v602c-81 0 -135 -120 -135 -301s54 -301 135 -301z" />
    <glyph glyph-name="oe" unicode="&#x153;" horiz-adv-x="742" 
d="M22 250c0 162 85 270 211 270c66 0 119 -35 152 -93c31 58 81 93 144 93c115 0 194 -89 201 -225v-19l-284 34c-1 -16 -1 -37 0 -53c8 -104 58 -172 130 -172c54 0 98 37 115 93l39 -14c-20 -112 -97 -184 -197 -184c-64 0 -115 36 -147 94c-33 -58 -87 -94 -153 -94
c-126 0 -211 108 -211 270zM140 250c0 -127 38 -212 93 -212c57 0 94 85 94 212c0 128 -37 213 -94 213c-55 0 -93 -85 -93 -213zM450 354l169 -21c-9 74 -42 130 -86 130c-41 0 -71 -42 -83 -109z" />
    <glyph glyph-name="Jcircumflex" unicode="&#x134;" horiz-adv-x="427" 
d="M217 839l96 126h45l96 -126l-27 -44c-41 9 -71 64 -90 146h-3c-19 -82 -49 -137 -90 -146zM363 210c0 -138 -75 -230 -193 -230c-112 0 -190 98 -157 244l125 36v-25c-37 -107 -17 -179 29 -179c41 0 65 57 65 138v413c0 40 -17 67 -44 67v56h218v-56
c-26 0 -43 -27 -43 -67v-397z" />
    <glyph glyph-name="Eng" unicode="&#x14a;" horiz-adv-x="535" 
d="M20 0v56c26 0 44 27 44 67v484c0 40 -18 67 -44 67v56h109l298 -489v366c0 40 -18 67 -44 67v56h133v-56c-27 0 -44 -27 -44 -67v-598c0 -126 -62 -209 -152 -209v64c64 0 107 56 107 140l-318 518v-399c0 -40 18 -67 44 -67v-56h-133z" />
    <glyph glyph-name="eng" unicode="&#x14b;" horiz-adv-x="483" 
d="M13 455c47 0 92 25 116 65h38v-95l-3 -32l3 -2c27 81 79 129 147 129c83 0 138 -74 138 -184v-376c0 -138 -69 -230 -172 -230c-71 0 -103 68 -80 169l112 36v-25c-21 -62 -12 -104 20 -104s58 47 58 113c0 39 -22 56 -55 61v357c0 64 -27 107 -71 107
c-57 0 -97 -79 -97 -199v-132c0 -34 15 -57 37 -57v-56h-191v56c22 0 37 23 37 57v229c0 34 -15 57 -37 57v56z" />
    <glyph glyph-name="odieresis.ss01" horiz-adv-x="467" 
d="M121 650c0 39 18 65 46 65s46 -26 46 -65c0 -40 -18 -66 -46 -66s-46 26 -46 66zM254 650c0 39 18 65 46 65s46 -26 46 -65c0 -40 -18 -66 -46 -66s-46 26 -46 66zM22 250c0 162 85 270 212 270s211 -108 211 -270s-84 -270 -211 -270s-212 108 -212 270zM141 242
c11 -119 54 -204 111 -204s89 85 75 220c-12 120 -55 205 -112 205c-56 0 -89 -85 -74 -221zM211 250c0 20 10 33 23 33s22 -13 22 -33c0 -19 -9 -32 -22 -32s-23 13 -23 32z" />
    <glyph glyph-name="otilde.ss01" horiz-adv-x="467" 
d="M172 586l-61 19c0 69 23 116 57 116c42 0 68 -71 98 -71c20 0 26 33 26 71l60 -19c0 -67 -22 -116 -55 -116c-40 0 -64 71 -95 71c-20 0 -30 -28 -30 -71zM22 250c0 162 85 270 212 270s211 -108 211 -270s-84 -270 -211 -270s-212 108 -212 270zM141 242
c11 -119 54 -204 111 -204s89 85 75 220c-12 120 -55 205 -112 205c-56 0 -89 -85 -74 -221zM211 250c0 20 10 33 23 33s22 -13 22 -33c0 -19 -9 -32 -22 -32s-23 13 -23 32z" />
    <glyph glyph-name="ocircumflex.ss01" horiz-adv-x="467" 
d="M115 609l96 126h45l96 -126l-27 -44c-41 9 -71 64 -90 146h-3c-19 -82 -49 -137 -90 -146zM22 250c0 162 85 270 212 270s211 -108 211 -270s-84 -270 -211 -270s-212 108 -212 270zM141 242c11 -119 54 -204 111 -204s89 85 75 220c-12 120 -55 205 -112 205
c-56 0 -89 -85 -74 -221zM211 250c0 20 10 33 23 33s22 -13 22 -33c0 -19 -9 -32 -22 -32s-23 13 -23 32z" />
    <glyph glyph-name="oacute.ss01" horiz-adv-x="467" 
d="M158 591c36 0 66 51 68 117l84 12c-4 -91 -67 -151 -152 -151v22zM22 250c0 162 85 270 212 270s211 -108 211 -270s-84 -270 -211 -270s-212 108 -212 270zM141 242c11 -119 54 -204 111 -204s89 85 75 220c-12 120 -55 205 -112 205c-56 0 -89 -85 -74 -221zM211 250
c0 20 10 33 23 33s22 -13 22 -33c0 -19 -9 -32 -22 -32s-23 13 -23 32z" />
    <glyph glyph-name="ograve.ss01" horiz-adv-x="467" 
d="M309 591v-22c-84 0 -147 60 -152 151l85 -12c1 -66 32 -117 67 -117zM22 250c0 162 85 270 212 270s211 -108 211 -270s-84 -270 -211 -270s-212 108 -212 270zM141 242c11 -119 54 -204 111 -204s89 85 75 220c-12 120 -55 205 -112 205c-56 0 -89 -85 -74 -221z
M211 250c0 20 10 33 23 33s22 -13 22 -33c0 -19 -9 -32 -22 -32s-23 13 -23 32z" />
    <glyph glyph-name="omacron.ss01" horiz-adv-x="467" 
d="M128 648h210v-58h-210v58zM22 250c0 162 85 270 212 270s211 -108 211 -270s-84 -270 -211 -270s-212 108 -212 270zM141 242c11 -119 54 -204 111 -204s89 85 75 220c-12 120 -55 205 -112 205c-56 0 -89 -85 -74 -221zM211 250c0 20 10 33 23 33s22 -13 22 -33
c0 -19 -9 -32 -22 -32s-23 13 -23 32z" />
    <glyph glyph-name="obreve.ss01" horiz-adv-x="467" 
d="M124 714l39 12c0 -69 24 -111 58 -111c36 0 60 42 60 111l62 -12c0 -78 -44 -134 -109 -134c-66 0 -110 56 -110 134zM22 250c0 162 85 270 212 270s211 -108 211 -270s-84 -270 -211 -270s-212 108 -212 270zM141 242c11 -119 54 -204 111 -204s89 85 75 220
c-12 120 -55 205 -112 205c-56 0 -89 -85 -74 -221zM211 250c0 20 10 33 23 33s22 -13 22 -33c0 -19 -9 -32 -22 -32s-23 13 -23 32z" />
    <glyph glyph-name="ohungarumlaut.ss01" horiz-adv-x="467" 
d="M121 591c27 0 45 51 45 117l75 12c-3 -91 -50 -151 -120 -151v22zM227 591c27 0 45 51 45 117l75 12c-3 -91 -50 -151 -120 -151v22zM22 250c0 162 85 270 212 270s211 -108 211 -270s-84 -270 -211 -270s-212 108 -212 270zM141 242c11 -119 54 -204 111 -204
s89 85 75 220c-12 120 -55 205 -112 205c-56 0 -89 -85 -74 -221zM211 250c0 20 10 33 23 33s22 -13 22 -33c0 -19 -9 -32 -22 -32s-23 13 -23 32z" />
    <glyph glyph-name="Odieresis.ss01" horiz-adv-x="594" 
d="M185 880c0 39 18 65 46 65s46 -26 46 -65c0 -40 -18 -66 -46 -66s-46 26 -46 66zM318 880c0 39 18 65 46 65s46 -26 46 -65c0 -40 -18 -66 -46 -66s-46 26 -46 66zM31 365c0 231 106 385 266 385s266 -154 266 -385s-106 -385 -266 -385s-266 154 -266 385zM162 357
c16 -187 79 -313 160 -313c83 0 129 130 110 330c-17 186 -80 312 -160 312c-82 0 -128 -130 -110 -329zM270 365c0 23 11 39 27 39s27 -16 27 -39s-11 -39 -27 -39s-27 16 -27 39z" />
    <glyph glyph-name="Otilde.ss01" horiz-adv-x="594" 
d="M235 816l-61 19c0 69 23 116 57 116c42 0 68 -71 98 -71c20 0 26 33 26 71l60 -19c0 -67 -22 -116 -55 -116c-40 0 -64 71 -95 71c-20 0 -30 -28 -30 -71zM31 365c0 231 106 385 266 385s266 -154 266 -385s-106 -385 -266 -385s-266 154 -266 385zM162 357
c16 -187 79 -313 160 -313c83 0 129 130 110 330c-17 186 -80 312 -160 312c-82 0 -128 -130 -110 -329zM270 365c0 23 11 39 27 39s27 -16 27 -39s-11 -39 -27 -39s-27 16 -27 39z" />
    <glyph glyph-name="Ocircumflex.ss01" horiz-adv-x="594" 
d="M179 839l96 126h45l96 -126l-27 -44c-41 9 -71 64 -90 146h-3c-19 -82 -49 -137 -90 -146zM31 365c0 231 106 385 266 385s266 -154 266 -385s-106 -385 -266 -385s-266 154 -266 385zM162 357c16 -187 79 -313 160 -313c83 0 129 130 110 330c-17 186 -80 312 -160 312
c-82 0 -128 -130 -110 -329zM270 365c0 23 11 39 27 39s27 -16 27 -39s-11 -39 -27 -39s-27 16 -27 39z" />
    <glyph glyph-name="Oacute.ss01" horiz-adv-x="594" 
d="M222 821c36 0 66 51 68 117l84 12c-4 -91 -67 -151 -152 -151v22zM31 365c0 231 106 385 266 385s266 -154 266 -385s-106 -385 -266 -385s-266 154 -266 385zM162 357c16 -187 79 -313 160 -313c83 0 129 130 110 330c-17 186 -80 312 -160 312
c-82 0 -128 -130 -110 -329zM270 365c0 23 11 39 27 39s27 -16 27 -39s-11 -39 -27 -39s-27 16 -27 39z" />
    <glyph glyph-name="Ograve.ss01" horiz-adv-x="594" 
d="M373 821v-22c-84 0 -147 60 -152 151l85 -12c1 -66 32 -117 67 -117zM31 365c0 231 106 385 266 385s266 -154 266 -385s-106 -385 -266 -385s-266 154 -266 385zM162 357c16 -187 79 -313 160 -313c83 0 129 130 110 330c-17 186 -80 312 -160 312
c-82 0 -128 -130 -110 -329zM270 365c0 23 11 39 27 39s27 -16 27 -39s-11 -39 -27 -39s-27 16 -27 39z" />
    <glyph glyph-name="Omacron.ss01" horiz-adv-x="594" 
d="M192 878h210v-58h-210v58zM31 365c0 231 106 385 266 385s266 -154 266 -385s-106 -385 -266 -385s-266 154 -266 385zM162 357c16 -187 79 -313 160 -313c83 0 129 130 110 330c-17 186 -80 312 -160 312c-82 0 -128 -130 -110 -329zM270 365c0 23 11 39 27 39
s27 -16 27 -39s-11 -39 -27 -39s-27 16 -27 39z" />
    <glyph glyph-name="Obreve.ss01" horiz-adv-x="594" 
d="M188 944l39 12c0 -69 24 -111 58 -111c36 0 60 42 60 111l62 -12c0 -78 -44 -134 -109 -134c-66 0 -110 56 -110 134zM31 365c0 231 106 385 266 385s266 -154 266 -385s-106 -385 -266 -385s-266 154 -266 385zM162 357c16 -187 79 -313 160 -313c83 0 129 130 110 330
c-17 186 -80 312 -160 312c-82 0 -128 -130 -110 -329zM270 365c0 23 11 39 27 39s27 -16 27 -39s-11 -39 -27 -39s-27 16 -27 39z" />
    <glyph glyph-name="Ohungarumlaut.ss01" horiz-adv-x="594" 
d="M185 821c27 0 45 51 45 117l75 12c-3 -91 -50 -151 -120 -151v22zM291 821c27 0 45 51 45 117l75 12c-3 -91 -50 -151 -120 -151v22zM31 365c0 231 106 385 266 385s266 -154 266 -385s-106 -385 -266 -385s-266 154 -266 385zM162 357c16 -187 79 -313 160 -313
c83 0 129 130 110 330c-17 186 -80 312 -160 312c-82 0 -128 -130 -110 -329zM270 365c0 23 11 39 27 39s27 -16 27 -39s-11 -39 -27 -39s-27 16 -27 39z" />
    <glyph glyph-name="egrave.ss01" 
d="M294 591v-22c-84 0 -147 60 -152 151l85 -12c1 -66 32 -117 67 -117zM148 226c13 -86 59 -141 122 -141c55 0 98 37 116 93l38 -14c-20 -112 -96 -184 -196 -184c-124 0 -206 108 -206 270s80 270 202 270c115 0 186 -89 201 -193v-13l-284 -34c0 -19 3 -37 7 -54z
M141 324l173 20c-9 63 -42 119 -86 119c-46 0 -79 -54 -87 -139z" />
    <glyph glyph-name="eacute.ss01" 
d="M142 591c36 0 66 51 68 117l84 12c-4 -91 -67 -151 -152 -151v22zM148 226c13 -86 59 -141 122 -141c55 0 98 37 116 93l38 -14c-20 -112 -96 -184 -196 -184c-124 0 -206 108 -206 270s80 270 202 270c115 0 186 -89 201 -193v-13l-284 -34c0 -19 3 -37 7 -54zM141 324
l173 20c-9 63 -42 119 -86 119c-46 0 -79 -54 -87 -139z" />
    <glyph glyph-name="ecircumflex.ss01" 
d="M100 609l96 126h45l96 -126l-27 -44c-41 9 -71 64 -90 146h-3c-19 -82 -49 -137 -90 -146zM148 226c13 -86 59 -141 122 -141c55 0 98 37 116 93l38 -14c-20 -112 -96 -184 -196 -184c-124 0 -206 108 -206 270s80 270 202 270c115 0 186 -89 201 -193v-13l-284 -34
c0 -19 3 -37 7 -54zM141 324l173 20c-9 63 -42 119 -86 119c-46 0 -79 -54 -87 -139z" />
    <glyph glyph-name="edieresis.ss01" 
d="M106 650c0 39 18 65 46 65s46 -26 46 -65c0 -40 -18 -66 -46 -66s-46 26 -46 66zM239 650c0 39 18 65 46 65s46 -26 46 -65c0 -40 -18 -66 -46 -66s-46 26 -46 66zM148 226c13 -86 59 -141 122 -141c55 0 98 37 116 93l38 -14c-20 -112 -96 -184 -196 -184
c-124 0 -206 108 -206 270s80 270 202 270c115 0 186 -89 201 -193v-13l-284 -34c0 -19 3 -37 7 -54zM141 324l173 20c-9 63 -42 119 -86 119c-46 0 -79 -54 -87 -139z" />
    <glyph glyph-name="ecaron.ss01" 
d="M100 691l27 44c41 -9 71 -64 90 -146h3c19 82 49 137 90 146l27 -44l-96 -126h-45zM148 226c13 -86 59 -141 122 -141c55 0 98 37 116 93l38 -14c-20 -112 -96 -184 -196 -184c-124 0 -206 108 -206 270s80 270 202 270c115 0 186 -89 201 -193v-13l-284 -34
c0 -19 3 -37 7 -54zM141 324l173 20c-9 63 -42 119 -86 119c-46 0 -79 -54 -87 -139z" />
    <glyph glyph-name="eogonek.ss01" 
d="M148 226c13 -86 59 -141 122 -141c55 0 98 37 116 93l38 -14c-20 -112 -96 -184 -196 -184c-7 0 -14 0 -20 1c-25 -20 -39 -53 -39 -83c0 -24 10 -38 28 -38c21 0 52 20 87 62l15 -71c-22 -37 -53 -55 -82 -55c-41 0 -77 34 -77 95c0 37 13 71 35 96
c-94 26 -153 125 -153 263c0 162 80 270 202 270c115 0 186 -89 201 -193v-13l-284 -34c0 -19 3 -37 7 -54zM141 324l173 20c-9 63 -42 119 -86 119c-46 0 -79 -54 -87 -139z" />
    <glyph glyph-name="edotaccent.ss01" 
d="M173 650c0 39 18 65 46 65s46 -26 46 -65c0 -40 -18 -66 -46 -66s-46 26 -46 66zM148 226c13 -86 59 -141 122 -141c55 0 98 37 116 93l38 -14c-20 -112 -96 -184 -196 -184c-124 0 -206 108 -206 270s80 270 202 270c115 0 186 -89 201 -193v-13l-284 -34
c0 -19 3 -37 7 -54zM141 324l173 20c-9 63 -42 119 -86 119c-46 0 -79 -54 -87 -139z" />
    <glyph glyph-name="ebreve.ss01" 
d="M109 714l39 12c0 -69 24 -111 58 -111c36 0 60 42 60 111l62 -12c0 -78 -44 -134 -109 -134c-66 0 -110 56 -110 134zM148 226c13 -86 59 -141 122 -141c55 0 98 37 116 93l38 -14c-20 -112 -96 -184 -196 -184c-124 0 -206 108 -206 270s80 270 202 270
c115 0 186 -89 201 -193v-13l-284 -34c0 -19 3 -37 7 -54zM141 324l173 20c-9 63 -42 119 -86 119c-46 0 -79 -54 -87 -139z" />
    <glyph glyph-name="emacron.ss01" 
d="M114 648h210v-58h-210v58zM148 226c13 -86 59 -141 122 -141c55 0 98 37 116 93l38 -14c-20 -112 -96 -184 -196 -184c-124 0 -206 108 -206 270s80 270 202 270c115 0 186 -89 201 -193v-13l-284 -34c0 -19 3 -37 7 -54zM141 324l173 20c-9 63 -42 119 -86 119
c-46 0 -79 -54 -87 -139z" />
    <glyph glyph-name="egrave.ss02" 
d="M294 591v-22c-84 0 -147 60 -152 151l85 -12c1 -66 32 -117 67 -117zM141 272c6 -77 33 -187 129 -187c55 0 98 37 116 93l38 -14c-20 -112 -96 -184 -196 -184c-124 0 -206 108 -206 270s80 270 202 270c115 0 194 -89 201 -229v-19h-284zM141 327h173
c-9 80 -42 136 -86 136c-46 0 -79 -53 -87 -136z" />
    <glyph glyph-name="eacute.ss02" 
d="M142 591c36 0 66 51 68 117l84 12c-4 -91 -67 -151 -152 -151v22zM141 272c6 -77 33 -187 129 -187c55 0 98 37 116 93l38 -14c-20 -112 -96 -184 -196 -184c-124 0 -206 108 -206 270s80 270 202 270c115 0 194 -89 201 -229v-19h-284zM141 327h173
c-9 80 -42 136 -86 136c-46 0 -79 -53 -87 -136z" />
    <glyph glyph-name="ecircumflex.ss02" 
d="M100 609l96 126h45l96 -126l-27 -44c-41 9 -71 64 -90 146h-3c-19 -82 -49 -137 -90 -146zM141 272c6 -77 33 -187 129 -187c55 0 98 37 116 93l38 -14c-20 -112 -96 -184 -196 -184c-124 0 -206 108 -206 270s80 270 202 270c115 0 194 -89 201 -229v-19h-284zM141 327
h173c-9 80 -42 136 -86 136c-46 0 -79 -53 -87 -136z" />
    <glyph glyph-name="edieresis.ss02" 
d="M106 650c0 39 18 65 46 65s46 -26 46 -65c0 -40 -18 -66 -46 -66s-46 26 -46 66zM239 650c0 39 18 65 46 65s46 -26 46 -65c0 -40 -18 -66 -46 -66s-46 26 -46 66zM141 272c6 -77 33 -187 129 -187c55 0 98 37 116 93l38 -14c-20 -112 -96 -184 -196 -184
c-124 0 -206 108 -206 270s80 270 202 270c115 0 194 -89 201 -229v-19h-284zM141 327h173c-9 80 -42 136 -86 136c-46 0 -79 -53 -87 -136z" />
    <glyph glyph-name="ecaron.ss02" 
d="M100 691l27 44c41 -9 71 -64 90 -146h3c19 82 49 137 90 146l27 -44l-96 -126h-45zM141 272c6 -77 33 -187 129 -187c55 0 98 37 116 93l38 -14c-20 -112 -96 -184 -196 -184c-124 0 -206 108 -206 270s80 270 202 270c115 0 194 -89 201 -229v-19h-284zM141 327h173
c-9 80 -42 136 -86 136c-46 0 -79 -53 -87 -136z" />
    <glyph glyph-name="eogonek.ss02" 
d="M141 272c6 -77 33 -187 129 -187c55 0 98 37 116 93l38 -14c-20 -112 -96 -184 -196 -184c-7 0 -14 0 -20 1c-25 -20 -39 -53 -39 -83c0 -24 10 -38 28 -38c21 0 52 20 87 62l15 -71c-22 -37 -53 -55 -82 -55c-41 0 -77 34 -77 95c0 37 13 71 35 96
c-94 26 -153 125 -153 263c0 162 80 270 202 270c115 0 194 -89 201 -229v-19h-284zM141 327h173c-9 80 -42 136 -86 136c-46 0 -79 -53 -87 -136z" />
    <glyph glyph-name="edotaccent.ss02" 
d="M173 650c0 39 18 65 46 65s46 -26 46 -65c0 -40 -18 -66 -46 -66s-46 26 -46 66zM141 272c6 -77 33 -187 129 -187c55 0 98 37 116 93l38 -14c-20 -112 -96 -184 -196 -184c-124 0 -206 108 -206 270s80 270 202 270c115 0 194 -89 201 -229v-19h-284zM141 327h173
c-9 80 -42 136 -86 136c-46 0 -79 -53 -87 -136z" />
    <glyph glyph-name="ebreve.ss02" 
d="M109 714l39 12c0 -69 24 -111 58 -111c36 0 60 42 60 111l62 -12c0 -78 -44 -134 -109 -134c-66 0 -110 56 -110 134zM141 272c6 -77 33 -187 129 -187c55 0 98 37 116 93l38 -14c-20 -112 -96 -184 -196 -184c-124 0 -206 108 -206 270s80 270 202 270
c115 0 194 -89 201 -229v-19h-284zM141 327h173c-9 80 -42 136 -86 136c-46 0 -79 -53 -87 -136z" />
    <glyph glyph-name="emacron.ss02" 
d="M114 648h210v-58h-210v58zM141 272c6 -77 33 -187 129 -187c55 0 98 37 116 93l38 -14c-20 -112 -96 -184 -196 -184c-124 0 -206 108 -206 270s80 270 202 270c115 0 194 -89 201 -229v-19h-284zM141 327h173c-9 80 -42 136 -86 136c-46 0 -79 -53 -87 -136z" />
    <glyph glyph-name="AEacute" unicode="&#x1fc;" horiz-adv-x="710" 
d="M384 821c36 0 66 51 68 117l84 12c-4 -91 -67 -151 -152 -151v22zM13 56c47 0 77 43 107 131l178 543h275c24 0 45 12 51 30h22l33 -241l-31 -21c-35 121 -71 168 -111 168h-108v-269h83c24 0 40 22 40 56h34v-176h-34c0 34 -16 56 -40 56h-83v-269h113
c53 0 99 67 135 172l32 -21l-58 -245h-22c-6 18 -26 30 -51 30h-323v56c26 0 43 27 43 67v88h-126l-18 -60c-17 -51 -8 -95 29 -95v-56h-170v56zM253 459l-13 -185l58 164z" />
    <glyph glyph-name="Oslashacute" unicode="&#x1fe;" horiz-adv-x="594" 
d="M222 821c36 0 66 51 68 117l84 12c-4 -91 -67 -151 -152 -151v22zM31 365c0 231 106 385 266 385c74 0 136 -33 182 -91l49 71h35l-66 -96c42 -67 66 -159 66 -269c0 -231 -106 -385 -266 -385c-75 0 -138 34 -184 94l-51 -74h-32l66 98c-42 66 -65 158 -65 267zM162 357
c4 -48 11 -93 21 -132l216 317c-29 90 -74 144 -127 144c-82 0 -128 -130 -110 -329zM410 507l-217 -316c30 -92 75 -147 129 -147c83 0 129 130 110 330c-5 49 -12 94 -22 133z" />
    <glyph glyph-name="oslashacute" unicode="&#x1ff;" horiz-adv-x="467" 
d="M158 591c36 0 66 51 68 117l84 12c-4 -91 -67 -151 -152 -151v22zM22 250c0 162 85 270 212 270c58 0 107 -23 144 -63l33 43h35l-51 -65c32 -47 50 -110 50 -185c0 -162 -84 -270 -211 -270c-59 0 -108 23 -145 63l-34 -43h-32l50 64c-33 47 -51 111 -51 186zM141 242
c2 -27 6 -52 12 -74l152 196c-20 61 -52 99 -90 99c-56 0 -89 -85 -74 -221zM315 332l-153 -196c20 -60 52 -98 90 -98c57 0 89 85 75 220c-3 27 -7 51 -12 74z" />
    <glyph glyph-name="aeacute" unicode="&#x1fd;" horiz-adv-x="727" 
d="M308 591c36 0 66 51 68 117l84 12c-4 -91 -67 -151 -152 -151v22zM158 314l-109 -31c-27 138 48 237 182 237c68 0 119 -29 146 -77c32 48 80 77 137 77c115 0 193 -89 201 -225v-19l-284 34c-1 -18 -1 -35 0 -53c7 -104 57 -172 129 -172c55 0 98 37 116 93l38 -14
c-21 -121 -107 -185 -198 -185c-67 0 -127 41 -162 112c-31 -61 -89 -111 -161 -111c-102 0 -169 52 -169 135c0 192 285 104 285 230v20c0 58 -33 98 -84 98c-55 0 -83 -55 -67 -125v-24zM435 354l169 -21c-9 74 -42 130 -87 130c-40 0 -70 -42 -82 -109zM309 279
c-44 -61 -168 -42 -168 -145c0 -44 19 -78 61 -78c62 0 107 73 107 157v35l3 29z" />
    <glyph glyph-name="uni0237" unicode="&#x237;" horiz-adv-x="266" 
d="M234 -40c0 -138 -69 -230 -172 -230c-71 0 -104 68 -81 169l113 36v-25c-21 -62 -12 -104 20 -104s58 47 58 113c0 39 -22 56 -55 61v362c0 34 -15 57 -37 57v56c47 0 92 25 115 65h39v-560z" />
    <glyph glyph-name="jcircumflex" unicode="&#x135;" horiz-adv-x="266" 
d="M77 609l96 126h45l96 -126l-27 -44c-41 9 -71 64 -90 146h-3c-19 -82 -49 -137 -90 -146zM234 -40c0 -138 -69 -230 -172 -230c-71 0 -104 68 -81 169l113 36v-25c-21 -62 -12 -104 20 -104s58 47 58 113c0 39 -22 56 -55 61v362c0 34 -15 57 -37 57v56
c47 0 92 25 115 65h39v-560z" />
    <glyph glyph-name="asterisk" unicode="*" horiz-adv-x="295" 
d="M74 454l54 94l-4 3l-79 -45c-2 17 -11 23 -14 36c-1 13 5 25 2 42l84 -2l-1 8l-72 58c7 13 5 28 10 38c6 10 17 11 24 25l52 -97l3 7l-13 118c12 0 19 11 27 11c10 0 16 -11 29 -11l-21 -118h6l56 90c8 -14 18 -15 24 -25c5 -10 3 -25 11 -38l-77 -51l3 -7l84 -6
c-3 -17 3 -29 2 -42c-2 -13 -12 -19 -14 -36l-76 54l-1 -7l48 -99c-11 -7 -13 -21 -22 -27c-8 -5 -17 0 -28 -7l-17 119l-6 -4l-23 -115c-11 7 -21 2 -29 7c-8 6 -11 20 -22 27z" />
    <glyph glyph-name="Lcaron" unicode="&#x13d;" horiz-adv-x="454" 
d="M290 647c-15 8 -24 25 -24 49c0 33 18 56 45 56c26 0 44 -24 44 -66c0 -58 -28 -102 -71 -102l-6 22c8 0 16 3 22 8c14 8 7 24 -10 33zM20 0v56c26 0 44 27 44 67v484c0 40 -18 67 -44 67v56h218v-56c-26 0 -43 -27 -43 -67v-543h114c40 0 78 51 113 172l31 -21l-37 -245
h-21c-6 18 -26 30 -51 30h-324z" />
    <glyph glyph-name="lcaron" unicode="&#x13e;" horiz-adv-x="300" 
d="M213 647c-15 8 -24 25 -24 49c0 33 18 56 45 56c26 0 44 -24 44 -66c0 -58 -28 -102 -71 -102l-6 22c8 0 16 3 22 8c14 8 7 24 -10 33zM7 685c46 0 92 25 115 65h39v-637c0 -34 15 -57 37 -57v-56h-191v56c22 0 37 23 37 57v459c0 34 -15 57 -37 57v56z" />
    <glyph glyph-name="Ldot" unicode="&#x13f;" horiz-adv-x="454" 
d="M20 0v56c26 0 44 27 44 67v484c0 40 -18 67 -44 67v56h218v-56c-26 0 -43 -27 -43 -67v-543h114c40 0 78 51 113 172l31 -21l-37 -245h-21c-6 18 -26 30 -51 30h-324zM223 365c0 38 18 63 44 63s44 -25 44 -63s-18 -63 -44 -63s-44 25 -44 63z" />
    <glyph glyph-name="ldot" unicode="&#x140;" horiz-adv-x="299" 
d="M7 685c46 0 92 25 115 65h39v-637c0 -34 15 -57 37 -57v-56h-191v56c22 0 37 23 37 57v459c0 34 -15 57 -37 57v56zM189 365c0 38 18 63 45 63c26 0 44 -25 44 -63s-18 -63 -44 -63c-27 0 -45 25 -45 63z" />
    <glyph glyph-name="kgreenlandic" unicode="&#x138;" horiz-adv-x="505" 
d="M327 325l105 -214c16 -33 42 -55 64 -55v-56h-196v56c24 0 19 26 3 57l-62 124l-74 -84v-40c0 -34 15 -57 37 -57v-56h-191v56c22 0 37 23 37 57v229c0 34 -15 57 -37 57v56c47 0 92 25 116 65h38v-291l147 170c22 24 19 45 -11 45v56h186v-56c-19 0 -75 -18 -110 -55z
" />
    <glyph glyph-name="u_n.dlig" horiz-adv-x="783" 
d="M490 45c-47 0 -92 -25 -115 -65h-39v95l2 32l-2 3c-27 -82 -79 -130 -147 -130c-83 0 -139 74 -139 184v223c0 34 -15 57 -37 57v56h191v-56c-22 0 -37 -23 -37 -57v-224c0 -64 27 -107 71 -107c59 0 98 79 98 199v87c0 34 -15 57 -37 57v56c46 0 91 25 115 65h39v-95
l-3 -32l3 -2c27 81 79 129 147 129c82 0 138 -74 138 -184v-223c0 -34 15 -57 37 -57v-56h-191v56c22 0 37 23 37 57v224c0 64 -27 107 -71 107c-58 0 -97 -79 -97 -199v-87c0 -34 14 -57 37 -57v-56z" />
    <glyph glyph-name="uni1025" unicode="&#x1025;" horiz-adv-x="1025" 
d="M490 45c-47 0 -92 -25 -115 -65h-39v95l2 32l-2 3c-27 -82 -79 -130 -147 -130c-83 0 -139 74 -139 184v223c0 34 -15 57 -37 57v56h191v-56c-22 0 -37 -23 -37 -57v-224c0 -64 27 -107 71 -107c59 0 98 79 98 199v87c0 34 -15 57 -37 57v56c46 0 91 25 115 65h39v-90
l-3 -33l3 -2c25 78 73 125 135 125c61 0 103 -45 120 -120v-18h3c25 86 75 138 140 138c77 0 129 -74 129 -184v-223c0 -34 14 -57 37 -57v-56h-187v56c20 0 33 23 33 57v224c0 64 -24 107 -63 107c-49 0 -84 -79 -84 -199v-132c0 -34 13 -57 32 -57v-56h-182v56
c20 0 33 23 33 57v224c0 64 -24 107 -62 107c-50 0 -84 -79 -84 -199v-87c0 -34 14 -57 37 -57v-56z" />
    <glyph glyph-name="u_r.dlig" horiz-adv-x="698" 
d="M490 45c-47 0 -92 -25 -115 -65h-39v95l2 32l-2 3c-27 -82 -79 -130 -147 -130c-83 0 -139 74 -139 184v223c0 34 -15 57 -37 57v56h191v-56c-22 0 -37 -23 -37 -57v-224c0 -64 27 -107 71 -107c59 0 98 79 98 199v87c0 34 -15 57 -37 57v56c46 0 91 25 115 65h39v-88
l-3 -32l3 -3c25 77 70 123 131 123c80 0 127 -78 95 -214l-120 -23v24c22 82 13 137 -27 137c-48 0 -79 -79 -79 -199v-87c0 -34 14 -57 37 -57v-56z" />
    <glyph glyph-name="o_o.dlig" horiz-adv-x="799" 
d="M22 250c0 162 84 270 211 270c74 0 132 -40 166 -108c35 68 94 108 167 108c127 0 212 -108 212 -270s-85 -270 -212 -270c-73 0 -132 40 -167 108c-34 -68 -92 -108 -166 -108c-127 0 -211 108 -211 270zM140 242c12 -119 55 -204 112 -204c56 0 89 85 75 220
c-12 120 -56 205 -112 205c-57 0 -89 -85 -75 -221zM473 258c-15 -135 18 -220 75 -220c56 0 99 85 111 204c15 136 -18 221 -75 221c-56 0 -99 -85 -111 -205zM211 250c0 20 9 33 22 33s23 -13 23 -33c0 -19 -10 -32 -23 -32s-22 13 -22 32zM543 250c0 20 10 33 23 33
s23 -13 23 -33c0 -19 -10 -32 -23 -32s-23 13 -23 32z" />
    <glyph glyph-name="O_O.dlig" horiz-adv-x="1026" 
d="M30 365c0 231 107 385 267 385c97 0 173 -63 216 -167c43 104 118 167 216 167c160 0 267 -154 267 -385s-107 -385 -267 -385c-98 0 -173 63 -216 168c-43 -105 -119 -168 -216 -168c-160 0 -267 154 -267 385zM161 357c17 -187 80 -313 161 -313c83 0 129 130 110 330
c-17 186 -80 312 -161 312c-82 0 -127 -130 -110 -329zM594 374c-19 -200 27 -330 110 -330c81 0 144 126 160 313c18 199 -27 329 -110 329c-80 0 -143 -126 -160 -312zM270 365c0 23 11 39 27 39c15 0 27 -16 27 -39s-12 -39 -27 -39c-16 0 -27 16 -27 39zM702 365
c0 23 11 39 27 39s27 -16 27 -39s-11 -39 -27 -39s-27 16 -27 39z" />
    <glyph glyph-name="T_h.dlig" horiz-adv-x="968" 
d="M565 730c25 0 45 12 51 30h21v-335l-2 -32l2 -2c28 81 80 129 148 129c82 0 138 -74 138 -184v-223c0 -34 15 -57 37 -57v-56h-191v56c22 0 37 23 37 57v224c0 64 -27 107 -71 107c-58 0 -98 -79 -98 -199v-132c0 -34 15 -57 37 -57v-56h-191v56c22 0 37 23 37 57v496
c0 34 -15 57 -37 57h-113v-543c0 -40 17 -67 44 -67v-56h-218v56c26 0 44 27 44 67v543h-72c-45 0 -89 -47 -132 -198l-32 21l56 271h22c6 -18 26 -30 51 -30h432z" />
    <glyph glyph-name="T_H.dlig" horiz-adv-x="1084" 
d="M527 0v56c26 0 44 27 44 67v482c0 37 -18 61 -44 61h-157v-543c0 -40 17 -67 44 -67v-56h-218v56c26 0 44 27 44 67v543h-72c-45 0 -89 -47 -132 -198l-32 21l56 271h22c6 -18 26 -30 51 -30h612v-56c-26 0 -43 -27 -43 -67v-210h188v210c0 40 -18 67 -44 67v56h218v-56
c-27 0 -44 -27 -44 -67v-484c0 -40 17 -67 44 -67v-56h-218v56c26 0 44 27 44 67v210h-188v-210c0 -40 17 -67 43 -67v-56h-218z" />
    <glyph glyph-name="T_H_E.dlig" horiz-adv-x="1301" 
d="M527 0v56c26 0 44 27 44 67v482c0 37 -18 61 -44 61h-157v-543c0 -40 17 -67 44 -67v-56h-218v56c26 0 44 27 44 67v543h-72c-45 0 -89 -47 -132 -198l-32 21l56 271h22c6 -18 26 -30 51 -30h612v-56c-26 0 -44 -27 -44 -67v-210h189v210c0 40 -18 67 -44 67v56h318
c25 0 45 12 50 30h22l34 -241l-31 -21c-35 121 -71 168 -111 168h-108v-269h83c24 0 40 22 40 56h34v-176h-34c0 34 -16 56 -40 56h-83v-269h113c46 0 93 51 135 172l32 -21l-58 -245h-22c-6 18 -26 30 -51 30h-323v56c26 0 44 27 44 67v210h-188v-210c0 -40 17 -67 43 -67
v-56h-218z" />
    <glyph glyph-name="U_N.dlig" horiz-adv-x="907" 
d="M20 730h218v-56c-26 0 -43 -27 -43 -66v-369c0 -117 48 -195 118 -195c74 0 123 85 123 214v349c0 40 -18 67 -44 67v56h109l298 -489v366c0 40 -18 67 -44 67v56h132v-56c-26 0 -43 -27 -43 -67v-627h-26l-337 542v-268c0 -165 -80 -274 -208 -274
c-122 0 -209 102 -209 256v371c0 40 -18 67 -44 67v56z" />
    <glyph glyph-name="s_t" unicode="&#xfb06;" horiz-adv-x="750" 
d="M22 364c0 103 68 156 162 156c24 0 48 -4 71 -11c15 77 66 126 136 126c51 0 97 22 115 65h39v-200h138v-51h-138v-216c0 -89 32 -148 78 -148c33 0 63 37 81 93l38 -14c-20 -112 -80 -184 -164 -184c-89 0 -149 96 -150 241v301c0 34 -15 57 -37 57
c-47 0 -80 -34 -89 -88c21 -11 40 -29 54 -50l-23 -112h-39c-4 82 -42 134 -92 134c-43 0 -70 -36 -70 -73c0 -103 227 -64 227 -255c0 -102 -66 -155 -159 -155c-68 0 -136 32 -175 79l23 112h39c5 -82 42 -133 92 -133c42 0 69 34 69 72c0 103 -226 64 -226 254z" />
    <glyph glyph-name="s_p.dlig" horiz-adv-x="874" 
d="M22 364c0 103 68 156 162 156c24 0 48 -4 71 -11c15 77 66 126 136 126c47 0 92 25 115 65h39v-276l-3 -32l3 -2c27 81 80 130 145 130c98 0 162 -104 162 -259c0 -169 -80 -281 -201 -281c-44 0 -82 19 -106 50l-3 -2l3 -27v-138c0 -34 15 -57 37 -57v-56h-191v56
c22 0 37 23 37 57v659c0 34 -15 57 -37 57c-47 0 -80 -34 -89 -88c21 -11 40 -29 54 -50l-23 -112h-39c-4 82 -42 134 -92 134c-43 0 -70 -36 -70 -73c0 -103 227 -64 227 -255c0 -102 -66 -155 -159 -155c-68 0 -136 32 -175 79l23 112h39c5 -82 42 -133 92 -133
c42 0 69 34 69 72c0 103 -226 64 -226 254zM545 245v-97c0 -66 35 -110 84 -110c64 0 106 85 106 216c0 114 -36 190 -90 190c-58 0 -100 -80 -100 -199z" />
    <glyph glyph-name="s_k.dlig" horiz-adv-x="882" 
d="M22 364c0 103 68 156 162 156c22 0 44 -3 65 -9c7 106 62 174 142 174c47 0 92 25 115 65h39v-521l147 170c22 24 19 45 -12 45v56h187v-56c-19 0 -75 -18 -110 -55l-53 -64l106 -214c16 -33 42 -55 64 -55v-56h-196v56c24 0 19 26 3 57l-62 124l-74 -84v-40
c0 -34 15 -57 37 -57v-56h-191v56c22 0 37 23 37 57v459c0 34 -15 57 -37 57c-54 0 -91 -53 -96 -135c24 -13 45 -31 61 -53l-23 -112h-39c-4 82 -42 134 -92 134c-43 0 -70 -36 -70 -73c0 -103 227 -64 227 -255c0 -102 -66 -155 -159 -155c-68 0 -136 32 -175 79l23 112
h39c5 -82 42 -133 92 -133c42 0 69 34 69 72c0 103 -226 64 -226 254z" />
    <glyph glyph-name="s_h.dlig" horiz-adv-x="875" 
d="M22 364c0 103 68 156 162 156c22 0 44 -3 65 -9c7 106 62 174 142 174c47 0 92 25 115 65h39v-325l-3 -32l3 -2c27 81 79 129 146 129c84 0 139 -74 139 -184v-223c0 -34 15 -57 37 -57v-56h-191v56c22 0 37 23 37 57v224c0 64 -27 107 -71 107c-58 0 -97 -79 -97 -199
v-132c0 -34 15 -57 37 -57v-56h-191v56c22 0 37 23 37 57v459c0 34 -15 57 -37 57c-54 0 -91 -53 -96 -135c24 -13 45 -31 61 -53l-23 -112h-39c-4 82 -42 134 -92 134c-43 0 -70 -36 -70 -73c0 -103 227 -64 227 -255c0 -102 -66 -155 -159 -155c-68 0 -136 32 -175 79
l23 112h39c5 -82 42 -133 92 -133c42 0 69 34 69 72c0 103 -226 64 -226 254z" />
    <glyph glyph-name="c_t.dlig" horiz-adv-x="805" 
d="M139 284c0 -123 53 -199 132 -199c54 0 98 37 116 93l38 -14c-20 -112 -97 -184 -197 -184c-124 0 -206 108 -206 269c0 163 83 271 214 271c27 0 52 -4 73 -12c13 76 65 127 137 127c51 0 97 22 115 65h39v-200h138v-51h-138v-216c0 -89 32 -148 78 -148
c33 0 63 37 81 93l38 -14c-20 -112 -80 -184 -164 -184c-89 0 -149 96 -151 241v301c0 34 -14 57 -36 57c-51 0 -87 -40 -94 -100c39 -27 58 -79 52 -145l-111 -23v24c14 76 -8 128 -58 128c-58 0 -96 -76 -96 -179z" />
    <glyph glyph-name="c_h.dlig" horiz-adv-x="926" 
d="M139 284c0 -123 53 -199 132 -199c54 0 98 37 116 93l38 -14c-20 -112 -97 -184 -197 -184c-124 0 -206 108 -206 269c0 163 83 271 214 271c24 0 45 -3 64 -9c6 104 61 174 142 174c46 0 92 25 115 65h39v-325l-3 -32l3 -2c26 81 79 129 147 129c83 0 138 -74 138 -184
v-223c0 -34 15 -57 37 -57v-56h-191v56c22 0 37 23 37 57v224c0 64 -27 107 -71 107c-58 0 -97 -79 -97 -199v-132c0 -34 15 -57 37 -57v-56h-191v56c22 0 37 23 37 57v459c0 34 -15 57 -37 57c-57 0 -95 -58 -97 -144c43 -28 65 -81 59 -151l-111 -23v24
c14 76 -8 128 -58 128c-58 0 -96 -76 -96 -179z" />
    <glyph glyph-name="c_k.dlig" horiz-adv-x="932" 
d="M139 284c0 -123 53 -199 132 -199c54 0 98 37 116 93l38 -14c-20 -112 -97 -184 -197 -184c-124 0 -206 108 -206 269c0 163 83 271 214 271c24 0 45 -3 64 -9c6 104 61 174 141 174c47 0 92 25 115 65h39v-521l147 170c23 24 19 45 -11 45v56h186v-56
c-19 0 -75 -19 -110 -55l-52 -64l105 -214c16 -33 42 -55 64 -55v-56h-196v56c24 0 19 26 3 57l-62 124l-74 -84v-40c0 -34 15 -57 37 -57v-56h-191v56c22 0 37 23 37 57v459c0 34 -14 57 -36 57c-57 0 -95 -59 -97 -144c43 -28 65 -81 59 -151l-111 -23v24
c14 76 -8 128 -58 128c-58 0 -96 -76 -96 -179z" />
    <glyph glyph-name="c_l.dlig" horiz-adv-x="641" 
d="M139 284c0 -123 53 -199 132 -199c54 0 98 37 116 93l38 -14c-20 -112 -97 -184 -197 -184c-124 0 -206 108 -206 269c0 163 83 271 214 271c24 0 45 -3 64 -9c6 104 61 174 142 174c46 0 92 25 115 65h39v-637c0 -34 15 -57 37 -57v-56h-191v56c22 0 37 23 37 57v459
c0 34 -15 57 -37 57c-57 0 -95 -58 -97 -144c43 -28 65 -81 59 -151l-111 -23v24c14 76 -8 128 -58 128c-58 0 -96 -76 -96 -179z" />
    <glyph glyph-name="s_l.dlig" horiz-adv-x="590" 
d="M22 364c0 103 68 156 162 156c22 0 44 -3 65 -9c7 106 62 174 142 174c47 0 92 25 115 65h39v-637c0 -34 15 -57 37 -57v-56h-191v56c22 0 37 23 37 57v459c0 34 -15 57 -37 57c-54 0 -91 -53 -96 -135c24 -13 45 -31 61 -53l-23 -112h-39c-4 82 -42 134 -92 134
c-43 0 -70 -36 -70 -73c0 -103 227 -64 227 -255c0 -102 -66 -155 -159 -155c-68 0 -136 32 -175 79l23 112h39c5 -82 42 -133 92 -133c42 0 69 34 69 72c0 103 -226 64 -226 254z" />
    <glyph glyph-name="y.ss01" horiz-adv-x="454" 
d="M8 500h197v-56c-27 0 -32 -34 -12 -87l74 -216l74 216c21 53 16 87 -11 87v56h122v-56c-19 0 -47 -41 -72 -102l-158 -423c-45 -117 -87 -189 -166 -189c-72 0 -115 65 -92 161l113 34v-25c-24 -54 -16 -94 17 -94c30 0 59 39 79 93l37 99l-131 344
c-25 61 -53 102 -71 102v56z" />
    <glyph glyph-name="ydieresis.ss01" horiz-adv-x="454" 
d="M126 650c0 39 18 65 46 65s46 -26 46 -65c0 -40 -18 -66 -46 -66s-46 26 -46 66zM259 650c0 39 18 65 46 65s46 -26 46 -65c0 -40 -18 -66 -46 -66s-46 26 -46 66zM8 500h197v-56c-27 0 -32 -34 -12 -87l74 -216l74 216c21 53 16 87 -11 87v56h122v-56
c-19 0 -47 -41 -72 -102l-158 -423c-45 -117 -87 -189 -166 -189c-72 0 -115 65 -92 161l113 34v-25c-24 -54 -16 -94 17 -94c30 0 59 39 79 93l37 99l-131 344c-25 61 -53 102 -71 102v56z" />
    <glyph glyph-name="yacute.ss01" horiz-adv-x="454" 
d="M163 591c36 0 66 51 68 117l84 12c-4 -91 -67 -151 -152 -151v22zM8 500h197v-56c-27 0 -32 -34 -12 -87l74 -216l74 216c21 53 16 87 -11 87v56h122v-56c-19 0 -47 -41 -72 -102l-158 -423c-45 -117 -87 -189 -166 -189c-72 0 -115 65 -92 161l113 34v-25
c-24 -54 -16 -94 17 -94c30 0 59 39 79 93l37 99l-131 344c-25 61 -53 102 -71 102v56z" />
    <glyph glyph-name="ycircumflex.ss01" horiz-adv-x="454" 
d="M121 609l96 126h45l96 -126l-27 -44c-41 9 -71 64 -90 146h-3c-19 -82 -49 -137 -90 -146zM8 500h197v-56c-27 0 -32 -34 -12 -87l74 -216l74 216c21 53 16 87 -11 87v56h122v-56c-19 0 -47 -41 -72 -102l-158 -423c-45 -117 -87 -189 -166 -189c-72 0 -115 65 -92 161
l113 34v-25c-24 -54 -16 -94 17 -94c30 0 59 39 79 93l37 99l-131 344c-25 61 -53 102 -71 102v56z" />
    <glyph glyph-name="ff_j.liga" horiz-adv-x="775" 
d="M623 673c0 53 25 87 61 87c35 0 60 -34 60 -87s-25 -87 -60 -87c-36 0 -61 34 -61 87zM740 -40c0 -138 -69 -230 -172 -230c-71 0 -103 68 -80 169l112 36v-25c-21 -62 -12 -104 20 -104s58 47 58 113c0 39 -21 56 -55 61v470h-163v-337c0 -34 15 -57 37 -57v-56h-191v56
c23 0 37 23 37 57v337h-176v-337c0 -34 15 -57 37 -57v-56h-191v56c22 0 37 23 37 57v337h-37v50h37v58c0 115 68 192 158 192c85 0 118 -68 95 -169l-112 -36v25c19 62 10 104 -21 104c-32 0 -58 -47 -58 -113c0 -39 22 -56 55 -61h176v58c0 115 68 192 158 192
c86 0 118 -68 95 -169l-112 -36v25c19 62 10 104 -21 104s-58 -47 -58 -113c0 -39 22 -56 55 -61h280v-540z" />
    <glyph glyph-name="g_g.dlig" horiz-adv-x="865" 
d="M566 -270c-114 0 -154 58 -134 144l112 36v-25c-21 -62 -14 -104 43 -104s108 36 108 87c0 39 -28 64 -68 76l-79 24c-49 14 -83 19 -83 68c0 46 32 77 67 97c-66 28 -107 95 -107 187c0 120 70 200 176 200c31 0 60 -7 85 -21c-3 123 42 201 109 201
c61 0 83 -65 58 -162l-55 -18v25c12 48 4 79 -24 79c-37 0 -65 -56 -60 -144c40 -35 63 -91 63 -160c0 -120 -71 -200 -176 -200c-13 0 -25 2 -37 4c-9 -8 -14 -19 -14 -32c0 -29 23 -32 53 -41l87 -23c70 -19 118 -56 118 -125c0 -103 -109 -173 -242 -173zM162 -270
c-115 0 -155 58 -135 144l112 36v-25c-21 -62 -13 -104 43 -104c57 0 107 36 107 87c0 39 -27 64 -67 76l-79 24c-49 14 -83 19 -83 68c0 46 32 77 67 97c-66 28 -107 95 -107 187c0 120 70 200 176 200c46 0 85 -15 114 -41c59 -4 97 35 97 86c0 28 -11 42 -28 42
c-8 0 -17 -3 -27 -8h-17l12 79c19 10 36 14 50 14c40 0 64 -33 64 -97c0 -86 -46 -148 -120 -154c20 -32 31 -73 31 -121c0 -120 -70 -200 -176 -200c-13 0 -25 2 -37 4c-8 -8 -14 -19 -14 -32c0 -29 23 -32 54 -41l86 -23c70 -19 118 -56 118 -125
c0 -103 -109 -173 -241 -173zM267 326c-8 87 -40 149 -84 149c-42 0 -67 -62 -58 -161c8 -87 40 -149 83 -149s69 62 59 161zM671 326c-7 87 -39 149 -82 149c-44 0 -69 -62 -59 -161c8 -87 40 -149 83 -149s68 62 58 161z" />
    <glyph glyph-name="w_w_w.dlig" horiz-adv-x="1139" 
d="M3 444v56h194v-56c-25 0 -33 -27 -20 -69l65 -219l109 364h29l104 -363l109 363h28l104 -363l110 363h28l104 -366l67 221c14 42 6 69 -19 69v56h122v-56c-20 0 -47 -37 -66 -92l-125 -372h-28l-103 342l-111 -342h-27l-104 342l-110 -342h-29l-104 345l-109 -345h-28
l-124 372c-20 55 -46 92 -66 92z" />
    <glyph glyph-name="W_W_W.dlig" horiz-adv-x="1545" 
d="M11 674v56h250v-56c-32 0 -45 -40 -31 -91l100 -360l150 527h28l149 -526l151 526h28l149 -526l150 526h28l150 -529l100 362c14 51 2 91 -30 91v56h152v-56c-28 0 -54 -26 -70 -78l-188 -616h-26l-149 525l-152 -525h-26l-150 525l-151 -525h-26l-151 528l-151 -528h-26
l-184 609c-17 56 -45 85 -74 85z" />
    <glyph glyph-name="r_d.dlig" horiz-adv-x="739" 
d="M167 226v-76c0 -57 15 -94 37 -94v-56h-191v56c22 0 37 23 37 57v229c0 34 -15 57 -37 57v56c47 0 92 25 116 65h38v-88l-2 -32l2 -3c51 212 162 353 272 353c83 0 121 -73 90 -183l-121 -23v25c23 63 14 105 -26 105c-66 0 -142 -114 -195 -294
c-12 -40 -20 -102 -20 -154zM577 685c29 2 58 28 79 65h39v-592c0 -34 14 -57 36 -57v-56c-46 0 -92 -25 -115 -65h-39v96l3 32l-3 2c-26 -81 -80 -130 -145 -130c-97 0 -162 104 -162 259c0 169 80 281 201 281c45 0 82 -19 106 -50l3 2l-3 20v193zM562 255v98
c0 65 -35 110 -83 110c-64 0 -107 -86 -107 -217c0 -114 36 -190 90 -190c58 0 100 80 100 199z" />
    <glyph glyph-name="r_a.dlig" horiz-adv-x="751" 
d="M167 226v-76c0 -57 15 -94 37 -94v-56h-191v56c22 0 37 23 37 57v229c0 34 -15 57 -37 57v56c47 0 92 25 116 65h38v-88l-2 -32l2 -3c51 212 162 353 272 353c83 0 121 -73 90 -183l-121 -23v25c23 63 14 105 -26 105c-66 0 -142 -114 -195 -294
c-12 -40 -20 -102 -20 -154zM404 314l-108 -31c-27 138 48 237 181 237c120 0 195 -76 195 -191v-219c0 -34 8 -51 21 -51c10 0 23 11 32 27l19 -40c-19 -39 -61 -66 -106 -66c-49 0 -83 34 -83 85v34l-2 3c-25 -76 -80 -122 -151 -122c-79 0 -132 52 -132 135
c0 192 285 104 285 230v20c0 58 -33 98 -83 98c-56 0 -84 -55 -68 -125v-24zM555 279c-44 -61 -168 -42 -168 -145c0 -44 19 -78 61 -78c63 0 107 73 107 157v35l3 29z" />
    <glyph glyph-name="r_e.dlig" horiz-adv-x="685" 
d="M167 226v-76c0 -57 15 -94 37 -94v-56h-191v56c22 0 37 23 37 57v229c0 34 -15 57 -37 57v56c47 0 92 25 116 65h38v-88l-2 -32l2 -3c51 212 162 353 272 353c83 0 121 -73 90 -183l-121 -23v25c23 63 14 105 -26 105c-66 0 -142 -114 -195 -294
c-12 -40 -20 -102 -20 -154zM635 178l37 -14c-20 -112 -96 -184 -196 -184c-124 0 -206 108 -206 270s81 270 202 270c116 0 194 -89 201 -225v-19l-283 34c-2 -18 -2 -35 -1 -53c8 -104 58 -172 130 -172c54 0 98 37 116 93zM393 354l169 -21c-8 74 -42 130 -86 130
c-41 0 -71 -42 -83 -109z" />
    <glyph glyph-name="r_o.dlig" horiz-adv-x="715" 
d="M167 226v-76c0 -57 15 -94 37 -94v-56h-191v56c22 0 37 23 37 57v229c0 34 -15 57 -37 57v56c47 0 92 25 116 65h38v-88l-2 -32l2 -3c51 212 162 353 272 353c83 0 121 -73 90 -183l-121 -23v25c23 63 14 105 -26 105c-66 0 -142 -114 -195 -294
c-12 -40 -20 -102 -20 -154zM270 250c0 162 85 270 212 270c126 0 212 -108 212 -270s-86 -270 -212 -270c-127 0 -212 108 -212 270zM389 242c12 -119 54 -204 111 -204s90 85 75 220c-12 120 -55 205 -112 205s-89 -85 -74 -221zM459 250c0 20 10 33 23 33s23 -13 23 -33
c0 -19 -10 -32 -23 -32s-23 13 -23 32z" />
    <glyph glyph-name="r_u.dlig" horiz-adv-x="769" 
d="M167 226v-76c0 -57 15 -94 37 -94v-56h-191v56c22 0 37 23 37 57v229c0 34 -15 57 -37 57v56c47 0 92 25 116 65h38v-88l-2 -32l2 -3c51 212 162 353 272 353c83 0 121 -73 90 -183l-121 -23v25c23 63 14 105 -26 105c-66 0 -142 -114 -195 -294
c-12 -40 -20 -102 -20 -154zM760 45c-46 0 -92 -25 -115 -65h-39v95l3 32l-3 3c-26 -82 -79 -130 -146 -130c-84 0 -139 74 -139 184v223c0 34 -15 57 -36 57v56h190v-56c-22 0 -36 -23 -36 -57v-224c0 -64 26 -107 70 -107c58 0 97 79 97 199v132c0 34 -15 57 -37 57v56
h191v-56c-22 0 -37 -23 -37 -57v-229c0 -34 15 -57 37 -57v-56z" />
    <glyph glyph-name="tilde" unicode="&#x2dc;" horiz-adv-x="262" 
d="M71 586l-61 19c0 69 23 116 57 116c42 0 68 -71 98 -71c20 0 26 33 26 71l60 -19c0 -67 -22 -116 -55 -116c-40 0 -64 71 -95 71c-20 0 -30 -28 -30 -71z" />
    <glyph glyph-name="breve" unicode="&#x2d8;" horiz-adv-x="239" 
d="M10 714l39 12c0 -69 24 -111 58 -111c36 0 60 42 60 111l62 -12c0 -78 -44 -134 -109 -134c-66 0 -110 56 -110 134z" />
    <glyph glyph-name="dotaccent" unicode="&#x2d9;" horiz-adv-x="113" 
d="M11 650c0 39 18 65 46 65s46 -26 46 -65c0 -40 -18 -66 -46 -66s-46 26 -46 66z" />
    <glyph glyph-name="ring" unicode="&#x2da;" horiz-adv-x="155" 
d="M11 680c0 57 27 95 68 95c39 0 66 -38 66 -95c0 -58 -27 -96 -66 -96c-41 0 -68 38 -68 96zM34 680c0 -38 18 -64 45 -64c26 0 43 26 43 64c0 37 -17 63 -43 63c-27 0 -45 -26 -45 -63z" />
    <glyph glyph-name="hungarumlaut" unicode="&#x2dd;" horiz-adv-x="247" 
d="M10 591c27 0 45 51 45 117l75 12c-3 -91 -50 -151 -120 -151v22zM116 591c27 0 45 51 45 117l75 12c-3 -91 -50 -151 -120 -151v22z" />
    <glyph glyph-name="ogonek" unicode="&#x2db;" horiz-adv-x="180" 
d="M131 0c-55 0 -91 -55 -91 -102c0 -24 10 -38 28 -38c21 0 52 20 87 62l15 -71c-22 -37 -53 -55 -82 -55c-41 0 -77 34 -77 95c0 69 46 132 115 132z" />
    <glyph glyph-name="caron" unicode="&#x2c7;" horiz-adv-x="258" 
d="M11 691l27 44c41 -9 71 -64 90 -146h3c19 82 49 137 90 146l27 -44l-96 -126h-45z" />
    <glyph glyph-name="grave" unicode="`" horiz-adv-x="172" 
d="M162 591v-22c-84 0 -147 60 -152 151l85 -12c1 -66 32 -117 67 -117z" />
    <glyph glyph-name="circumflex" unicode="&#x2c6;" horiz-adv-x="258" 
d="M11 609l96 126h45l96 -126l-27 -44c-41 9 -71 64 -90 146h-3c-19 -82 -49 -137 -90 -146z" />
    <glyph glyph-name="dieresis" unicode="&#xa8;" horiz-adv-x="246" 
d="M11 650c0 39 18 65 46 65s46 -26 46 -65c0 -40 -18 -66 -46 -66s-46 26 -46 66zM144 650c0 39 18 65 46 65s46 -26 46 -65c0 -40 -18 -66 -46 -66s-46 26 -46 66z" />
    <glyph glyph-name="acute" unicode="&#xb4;" horiz-adv-x="172" 
d="M10 591c36 0 66 51 68 117l84 12c-4 -91 -67 -151 -152 -151v22z" />
    <glyph glyph-name="cedilla" unicode="&#xb8;" horiz-adv-x="198" 
d="M110 0l-23 -60c14 9 29 13 42 13c33 0 58 -27 58 -72c0 -65 -55 -98 -104 -98c-43 0 -82 27 -71 81l37 18c-4 -35 13 -51 31 -51c20 0 42 19 42 55c0 23 -8 33 -19 33c-8 0 -19 -6 -29 -16l-29 14l36 106z" />
    <glyph glyph-name="macron" unicode="&#xaf;" horiz-adv-x="231" 
d="M11 648h210v-58h-210v58z" />
    </font>
</defs>
</svg>
